<svg width="645" height="343" viewBox="0 0 645 343" fill="none" xmlns="http://www.w3.org/2000/svg">
<path d="M52.554 8.72107L68.26 321.004L82.076 342.002L107.787 321.004L107.536 216.498H564.321L564.067 321.004L578.086 342.888L603.596 321.004L617.509 37.355L52.554 8.72107Z" fill="#8A5F45"/>
<path d="M644.718 0H40.102L0 29.719H611.188L644.718 0Z" fill="#9A6B4F"/>
<path d="M26.842 29.7191L42.549 342.002H82.076L81.824 237.495H538.609L538.355 342.002H577.885L593.591 29.7191H26.842Z" fill="#D1906C"/>
<path d="M540.55 217.763H78.255L66.861 70.3519H551.947L540.55 217.763Z" fill="#AC7758"/>
<path d="M535.327 213.751H83.482L72.344 74.359H546.462L535.327 213.751Z" fill="#D1906C"/>
<path d="M309.683 183.413C229.129 170.375 134.895 148.071 88.855 74.359H72.343L83.481 213.751H535.326L536.849 194.656C461.407 202.624 383.876 195.417 309.683 183.413Z" fill="#CB8C69"/>
<path d="M611.188 29.7191H0V55.7811H611.188V29.7191Z" fill="#B07A5B"/>
<path d="M611.188 55.781L644.639 19.248L644.718 0L611.188 29.719V55.781Z" fill="#8C6046"/>
</svg>
