<svg width="288" height="902" viewBox="0 0 288 902" fill="none" xmlns="http://www.w3.org/2000/svg">
<path d="M287.107 45.563L0 0V901.224L287.107 719.497V45.563Z" fill="#27596B"/>
<path d="M273.783 77.674L22.9869 47.798V886.677L273.783 727.931V77.674Z" fill="#AE6029"/>
<path d="M273.783 616.813L22.9869 743.324V886.677L273.783 727.931V616.813Z" fill="#B8BABC"/>
<path d="M247.153 630.248L200.528 653.766L112.951 829.732L168.21 794.755C196.077 736.81 222.335 682.05 247.153 630.248Z" fill="#EDEDEE"/>
<path d="M148.154 680.184L99.0929 704.935C74.9209 749.783 49.5799 796.759 22.9869 846.016V886.677L50.0089 869.572L148.154 680.184Z" fill="#EDEDEE"/>
<path d="M132.443 408.387L50.5961 426.914V118.593L132.443 123.26V408.387Z" fill="#9DD1E9"/>
<path d="M61.1481 407.68V119.193L50.5961 118.593V426.914L132.443 408.387V392.657L61.1481 407.68Z" fill="#59BFE6"/>
<path opacity="0.7" d="M132.443 201.238V145.596C106.563 180.998 79.3201 218.274 50.5961 257.568V318.012C79.2921 277.001 106.542 238.131 132.443 201.238Z" fill="#EDEDEE"/>
<path opacity="0.7" d="M132.443 327.301V281.378C106.534 320.39 79.2871 361.498 50.5961 404.878V426.914L71.6241 422.154C92.6781 389.268 112.937 357.671 132.443 327.301Z" fill="#EDEDEE"/>
<path d="M262.952 478.096L236.714 487.011V370.681L262.952 365.15V478.096Z" fill="#86888A"/>
<path d="M262.952 471.679L236.714 480.4V364.07L262.952 358.733V471.679Z" fill="#B8BABC"/>
<path d="M262.952 407.256V360.856C254.302 381.392 245.611 402.468 236.715 423.926V467.103C245.348 446.498 254.059 426.512 262.952 407.256Z" fill="#DCDDDE"/>
<path d="M262.952 416.064C262.952 426.692 257.573 436.877 250.846 438.834C244.013 440.82 238.399 433.594 238.399 422.666C238.399 411.733 244.013 401.484 250.846 399.799C257.573 398.137 262.952 405.427 262.952 416.064Z" fill="#97999C"/>
<path d="M256.77 428.465C246.512 431.346 242.259 417.408 244.175 404.568C240.713 408.945 238.399 415.667 238.399 422.666C238.399 433.594 244.013 440.82 250.846 438.834C255.412 437.505 259.351 432.384 261.412 425.93C260.041 427.094 258.501 427.98 256.77 428.465Z" fill="#86888A"/>
<path d="M258.381 411.023C258.381 414.587 256.576 417.962 254.339 418.563C252.093 419.168 250.262 416.748 250.262 413.152C250.262 409.556 252.093 406.176 254.339 405.603C256.576 405.035 258.381 407.463 258.381 411.023Z" fill="white"/>
</svg>
