<svg width="320" height="354" viewBox="0 0 320 354" fill="none" xmlns="http://www.w3.org/2000/svg">
<path d="M0.126953 319.49L319.056 353.262V0L0 40.301L0.126953 319.49Z" fill="#AE6029"/>
<path d="M312.682 0.804001L319.056 0V353.262L312.682 352.583V0.804001Z" fill="#663304"/>
<path d="M12.4011 298.423L299.834 323.567L299.827 30.116L12.2949 61.136L12.4011 298.423Z" fill="#383F3B"/>
<path d="M116.73 267.568C114.156 271.95 112.042 277.213 109.35 281.631C103.549 291.16 93.2149 285.726 86.5009 282.305C69.1329 273.45 53.9569 254.013 44.2389 228.094C39.3589 215.066 35.906 200.213 34.059 185.005C30.882 158.855 24.4369 129.294 37.3759 107.391C42.7939 98.222 51.3308 92.829 59.2848 96.255C65.9998 99.145 73.1999 109.468 80.8339 108.084C90.2549 106.38 95.7988 93.688 102.785 83.425C111.141 71.144 122.102 63.434 132.97 68.328C142.686 72.705 151.128 85.069 159.942 93.337C167.366 100.299 175.33 108.868 184.582 108.309C196.221 107.612 199.735 87.118 209.954 81.333C227.263 71.541 239.232 88.249 250.917 105.973C266.552 129.699 271.644 162.608 274.195 196.209C275.25 210.115 276.554 227.266 271.115 239.778C267.75 247.521 263.075 254.026 256.932 255.101C250.039 256.301 243.082 251.763 236.385 254.543C231.168 256.708 227.163 261.602 225.538 269.806C223.853 278.301 226.011 289.783 220.349 294.926C208.211 305.941 190.002 295.849 178.472 287.663C165.796 278.665 153.952 268.402 141.285 261.754C135.512 258.725 129.314 256.772 123.626 259.967C120.795 261.558 118.635 264.323 116.73 267.568Z" fill="#424844"/>
<path d="M293.848 323.04L299.834 323.567L299.827 30.116L293.836 30.762L293.848 323.04Z" fill="#663304"/>
<path d="M12.4011 299.822L299.834 325.293V317.228L12.3989 293.298L12.4011 299.822Z" fill="#663304"/>
<path d="M181.534 143.344C181.534 143.344 211.165 138.187 216.779 136.737C222.439 135.278 223.815 130.846 223.815 130.846L222.877 125.153L220.169 79.063L178.405 88.565L181.534 143.344Z" fill="#FFF9B0"/>
<path d="M218.34 79.484L220.171 79.064L222.879 125.154L223.817 130.842C223.817 130.842 222.441 135.279 216.781 136.738C211.167 138.188 181.536 143.345 181.536 143.345L181.213 137.703C200.929 134.008 220.708 114.299 218.34 79.484Z" fill="#FFDE90"/>
<path d="M196.922 92.655C196.922 95.845 198.522 98.32 200.5 98.191C202.483 98.057 204.092 95.351 204.092 92.143C204.092 88.939 202.481 86.46 200.5 86.612C198.52 86.76 196.922 89.465 196.922 92.655Z" fill="#F26648"/>
<path d="M198.418 92.5489C198.418 94.4049 199.351 95.8459 200.5 95.7669C201.652 95.6879 202.587 94.1139 202.587 92.2489C202.587 90.3879 201.65 88.9479 200.5 89.0359C199.348 89.1189 198.418 90.6929 198.418 92.5489Z" fill="#B04931"/>
<path d="M51.7319 276.175L78.9761 267.43L76.635 217.379L49.6841 222.836L51.7319 276.175Z" fill="#F6ABCC"/>
<path d="M75.46 217.614L76.635 217.374L79.2161 270.306L51.7319 276.174L51.52 270.684C64.288 268.672 76.986 251.285 75.46 217.614Z" fill="#F391BC"/>
<path d="M61.6909 225.477C61.6909 227.753 62.725 229.637 63.999 229.674C65.278 229.711 66.317 227.887 66.314 225.597C66.314 223.312 65.275 221.428 63.999 221.4C62.72 221.373 61.6909 223.196 61.6909 225.477Z" fill="#F26648"/>
<path d="M62.656 225.5C62.656 226.83 63.256 227.919 64 227.942C64.743 227.96 65.3459 226.903 65.3459 225.574C65.3459 224.245 64.743 223.15 64 223.132C63.255 223.113 62.656 224.175 62.656 225.5Z" fill="#B04931"/>
<path d="M65.1069 190.209L65.4209 103.103L100.712 100.624L100.74 190.153L65.1069 190.209Z" fill="#FFF9B0"/>
<path d="M81.0331 114.511C80.8871 117.429 82.109 119.931 83.764 120.098C85.426 120.264 86.8922 118.016 87.0372 115.084C87.1852 112.148 85.9521 109.641 84.2931 109.488C82.6331 109.341 81.1761 111.584 81.0331 114.511Z" fill="#F26648"/>
<path d="M82.2839 114.627C82.1979 116.33 82.909 117.785 83.874 117.877C84.839 117.974 85.6931 116.667 85.7761 114.959C85.8591 113.255 85.1459 111.801 84.1809 111.709C83.2159 111.621 82.3689 112.928 82.2839 114.627Z" fill="#B04931"/>
<path d="M68.678 132.637L96.9451 131.312V129.068L68.676 130.44L68.678 132.637Z" fill="#DDD278"/>
<path d="M68.678 132.637L96.9451 131.312V129.068L68.676 130.44L68.678 132.637Z" fill="#DDD278"/>
<path d="M68.6799 138.736L96.947 137.545L96.9451 135.301L68.6799 136.538V138.736Z" fill="#DDD278"/>
<path d="M68.6799 144.835L96.949 143.782L96.947 141.538L68.6799 142.637V144.835Z" fill="#DDD278"/>
<path d="M68.6851 150.929L96.9519 150.015L96.949 147.771L68.6851 148.736V150.929Z" fill="#DDD278"/>
<path d="M68.6851 157.028L96.9541 156.248L96.9519 154.004L68.6851 154.835V157.028Z" fill="#DDD278"/>
<path d="M68.687 163.127L96.9541 162.48V160.236L68.687 160.934V163.127Z" fill="#DDD278"/>
<path d="M68.6899 169.226L96.959 168.713L96.9561 166.469L68.6899 167.028V169.226Z" fill="#DDD278"/>
<path d="M68.6941 175.324L96.959 174.946V172.702L68.6919 173.127L68.6941 175.324Z" fill="#DDD278"/>
<path d="M120.948 207.702C120.948 207.702 147.963 212.859 153.127 213.39C158.33 213.93 160.038 210.241 160.038 210.241L159.812 204.594L162.374 160.305L123.904 155.042L120.948 207.702Z" fill="#70CCD9"/>
<path d="M160.689 160.075L162.374 160.306L159.812 204.595L160.036 210.242C160.036 210.242 158.33 213.93 153.127 213.391C147.963 212.86 120.948 207.703 120.948 207.703L121.252 202.301C139.272 205.491 159.046 193.672 160.689 160.075Z" fill="#00BDD7"/>
<path d="M140.087 165.223C139.748 168.233 140.916 171.114 142.702 171.659C144.492 172.208 146.225 170.205 146.567 167.181C146.909 164.157 145.732 161.267 143.935 160.731C142.148 160.195 140.426 162.208 140.087 165.223Z" fill="#F26648"/>
<path d="M141.437 165.629C141.239 167.384 141.922 169.059 142.958 169.373C144 169.692 145.005 168.528 145.204 166.77C145.402 165.011 144.719 163.33 143.676 163.021C142.638 162.707 141.636 163.875 141.437 165.629Z" fill="#B04931"/>
<path d="M198.229 265.177L198.727 168.962L251.996 168.076L252.006 267.98L198.229 265.177Z" fill="white"/>
<path d="M221.959 176.913C221.779 180.149 223.284 182.988 225.324 183.266C227.369 183.538 229.179 181.124 229.359 177.874C229.539 174.624 228.022 171.78 225.975 171.521C223.936 171.262 222.137 173.681 221.959 176.913Z" fill="#F26648"/>
<path d="M223.501 177.116C223.395 178.995 224.274 180.653 225.461 180.805C226.65 180.967 227.698 179.563 227.804 177.675C227.91 175.787 227.029 174.129 225.837 173.977C224.651 173.829 223.605 175.232 223.501 177.116Z" fill="#B04931"/>
<path d="M224.427 186.234V189.346L203.589 189.387V186.322L224.427 186.234Z" fill="#C2C4C6"/>
<path d="M224.427 186.234V189.346L203.589 189.387V186.322L224.427 186.234Z" fill="#C2C4C6"/>
<path d="M224.429 194.877V197.989L203.591 197.905L203.589 194.835L224.429 194.877Z" fill="#C2C4C6"/>
<path d="M224.429 203.519V206.631L203.591 206.419V203.353L224.429 203.519Z" fill="#C2C4C6"/>
<path d="M224.431 212.162V215.274L203.594 214.937L203.591 211.871L224.431 212.162Z" fill="#C2C4C6"/>
<path d="M203.594 223.455L246.253 224.401V221.243L203.594 220.39V223.455Z" fill="#C2C4C6"/>
<path d="M203.596 231.968L246.253 233.178V230.02L203.596 228.903V231.968Z" fill="#C2C4C6"/>
<path d="M203.598 240.486L246.253 241.95V238.792L203.598 237.421V240.486Z" fill="#C2C4C6"/>
<path d="M203.598 249L246.255 250.726V247.569L203.598 245.934V249Z" fill="#C2C4C6"/>
<path d="M225.727 215.814L246.232 216.155L246.23 185.615L225.722 185.708L225.727 215.814Z" fill="#C2C4C6"/>
</svg>
