<svg width="499" height="638" viewBox="0 0 499 638" fill="none" xmlns="http://www.w3.org/2000/svg">
<path d="M70.4351 427.884L9.06519 392.741L0.230957 12.0549L62.1082 20.6649L70.4351 427.884Z" fill="#8271A6"/>
<path d="M59.5161 20.3049L67.8682 426.416L70.4351 427.884L62.1082 20.6649L59.5161 20.3049Z" fill="#776A94"/>
<path d="M65.4302 414.228L13.043 384.832L4.72314 23.3199L57.5161 31.312L65.4302 414.228Z" fill="#695F81"/>
<path d="M62.4841 408.387L15.5132 382.242L7.396 27.8669L54.728 35.2589L62.4841 408.387Z" fill="#8271A6"/>
<path d="M11.865 223.017L15.512 382.242L62.4832 408.387L62.342 401.545C34.095 353.05 17.251 286.286 11.865 223.017Z" fill="#816EA2"/>
<path d="M11.2771 36.4958L14.47 176.922L53.907 189.706L50.832 43.0329L11.2771 36.4958ZM52.136 185.473L15.947 173.885L12.918 40.3379L49.2112 46.4879L52.136 185.473Z" fill="#908AB0"/>
<path d="M45.873 53.86C45.892 54.76 45.5411 55.421 45.0881 55.337L17.154 50.314C16.732 50.235 16.3691 49.469 16.3481 48.601C16.3301 47.733 16.658 47.091 17.082 47.165L45.019 52.091C45.471 52.171 45.854 52.965 45.873 53.86Z" fill="#464056"/>
<path d="M45.9951 59.5849C46.0161 60.4809 45.662 61.1409 45.208 61.0529L17.279 55.8549C16.852 55.7769 16.4941 55.0099 16.4731 54.1419C16.4551 53.2739 16.782 52.6319 17.207 52.7109L45.1391 57.8129C45.5911 57.8909 45.9771 58.6849 45.9951 59.5849Z" fill="#464056"/>
<path d="M46.1182 65.301C46.1362 66.201 45.7851 66.857 45.3311 66.769L17.4041 61.395C16.9771 61.316 16.6192 60.545 16.5992 59.678C16.5802 58.81 16.9081 58.173 17.3331 58.251L45.2652 63.523C45.7162 63.611 46.0992 64.406 46.1182 65.301Z" fill="#464056"/>
<path d="M46.238 71.0209C46.256 71.9159 45.9051 72.5669 45.4531 72.4799L17.5281 66.9299C17.1011 66.8469 16.7431 66.076 16.7221 65.208C16.7041 64.345 17.032 63.708 17.456 63.791L45.383 69.239C45.836 69.327 46.219 70.1249 46.238 71.0209Z" fill="#464056"/>
<path d="M46.3581 76.732C46.3761 77.627 46.025 78.278 45.573 78.186L17.6531 72.466C17.2261 72.379 16.8661 71.607 16.8471 70.739C16.8291 69.876 17.156 69.238 17.581 69.326L45.5041 74.944C45.9561 75.038 46.3391 75.836 46.3581 76.732Z" fill="#464056"/>
<path d="M46.48 82.443C46.499 83.338 46.1481 83.985 45.6931 83.892L17.7751 77.9971C17.3521 77.9091 16.9901 77.1331 16.9721 76.2701C16.9541 75.4021 17.281 74.769 17.706 74.857L45.624 80.6511C46.078 80.7491 46.462 81.547 46.48 82.443Z" fill="#464056"/>
<path d="M15.79 235.057L18.927 373.008L58.2 394.375L55.1812 250.403L15.79 235.057ZM56.438 389.841L20.397 370.376L17.4241 239.184L53.5691 253.404L56.438 389.841Z" fill="#908AB0"/>
<path d="M50.2409 259.859C50.2619 260.736 49.9109 261.304 49.4599 261.124L21.6421 249.891C21.2191 249.72 20.8591 248.889 20.8401 248.04C20.8221 247.186 21.1499 246.632 21.5739 246.803L49.3911 257.939C49.8431 258.114 50.2249 258.977 50.2409 259.859Z" fill="#464056"/>
<path d="M50.3611 265.473C50.3821 266.355 50.0281 266.918 49.5781 266.733L21.7641 255.334C21.3391 255.163 20.9841 254.332 20.9631 253.478C20.9421 252.624 21.27 252.074 21.695 252.246L49.5119 263.548C49.9609 263.733 50.3421 264.596 50.3611 265.473Z" fill="#464056"/>
<path d="M50.4809 271.087C50.4999 271.969 50.148 272.532 49.698 272.343L21.8891 260.778C21.4641 260.603 21.1042 259.767 21.0862 258.917C21.0682 258.063 21.3951 257.513 21.8181 257.689L49.6321 269.157C50.0791 269.347 50.4619 270.21 50.4809 271.087Z" fill="#464056"/>
<path d="M50.6002 276.701C50.6192 277.578 50.2682 278.137 49.8152 277.948L22.0081 266.217C21.5851 266.037 21.2281 265.201 21.2071 264.352C21.1881 263.498 21.514 262.953 21.938 263.128L49.751 274.767C50.199 274.956 50.5822 275.824 50.6002 276.701Z" fill="#464056"/>
<path d="M50.718 282.311C50.737 283.188 50.388 283.747 49.936 283.553L22.1311 271.651C21.7081 271.471 21.3481 270.635 21.3291 269.785C21.3111 268.931 21.639 268.386 22.063 268.566L49.8681 280.371C50.3191 280.561 50.7 281.429 50.718 282.311Z" fill="#464056"/>
<path d="M50.8362 287.916C50.8542 288.793 50.505 289.347 50.053 289.153L22.2532 277.085C21.8282 276.9 21.4721 276.065 21.4521 275.215C21.4311 274.361 21.7591 273.821 22.1841 274.001L49.987 285.973C50.439 286.166 50.8172 287.039 50.8362 287.916Z" fill="#464056"/>
<path d="M22.341 208.307C22.456 213.376 20.518 216.737 18.019 215.819C15.537 214.909 13.4441 210.113 13.3291 205.094C13.2151 200.076 15.1251 196.701 17.6091 197.56C20.1021 198.427 22.23 203.238 22.341 208.307Z" fill="#353340"/>
<path d="M21.5382 208.021C21.6302 212.185 20.0353 214.951 17.9833 214.203C15.9423 213.455 14.2161 209.508 14.1231 205.376C14.0261 201.244 15.6011 198.469 17.6441 199.18C19.6951 199.895 21.4432 203.857 21.5382 208.021Z" fill="#5E5575"/>
<path d="M20.1602 213.502C20.4552 213.151 20.7161 212.703 20.9241 212.154C19.1231 208.036 17.328 203.927 15.532 199.841C15.232 200.183 14.9731 200.644 14.7561 201.189C16.5561 205.27 18.3542 209.379 20.1602 213.502Z" fill="#4B445D"/>
<path d="M20.8062 203.681C20.6102 203.063 20.3952 202.472 20.1392 201.95C18.4772 204.863 16.824 207.776 15.176 210.671C15.402 211.234 15.6611 211.729 15.9351 212.19L20.8062 203.681Z" fill="#4B445D"/>
<path d="M21.5152 208.82C21.5222 208.557 21.5432 208.299 21.5382 208.022C21.5262 207.593 21.4871 207.168 21.4461 206.743L14.1561 204.153C14.1331 204.55 14.1141 204.952 14.1231 205.377C14.1281 205.654 14.1602 205.926 14.1812 206.199L21.5152 208.82Z" fill="#4B445D"/>
<path d="M18.082 199.425C17.937 199.337 17.794 199.236 17.644 199.181C17.446 199.111 17.254 199.103 17.064 199.098L17.4011 213.872C17.5921 214.006 17.7842 214.131 17.9832 214.204C18.1332 214.255 18.274 214.255 18.417 214.274L18.082 199.425Z" fill="#4B445D"/>
<path d="M20.072 207.499C20.13 210.025 19.1619 211.71 17.9179 211.257C16.6739 210.809 15.6231 208.408 15.5681 205.892C15.5081 203.376 16.4679 201.69 17.7099 202.129C18.9569 202.564 20.014 204.974 20.072 207.499Z" fill="#6C6185"/>
<path d="M141.06 468.332L70.4351 427.884L62.1082 20.665L133.5 30.605L141.06 468.332Z" fill="#8271A6"/>
<path d="M130.495 30.1851L138.09 466.629L141.06 468.332L133.503 30.605L130.495 30.1851Z" fill="#776A94"/>
<path d="M135.329 453.448L75.042 419.62L67.2161 32.78L128.122 42.0051L135.329 453.448Z" fill="#695F81"/>
<path d="M131.949 447.049L77.8911 416.961L70.2661 37.688L124.867 46.215L131.949 447.049Z" fill="#8271A6"/>
<path d="M74.4651 246.655L77.8911 416.961L131.95 447.049L131.82 439.708C99.4241 386.545 80.3561 314.485 74.4651 246.655Z" fill="#816EA2"/>
<path d="M74.689 46.9811L77.6831 197.411L123.131 212.144L120.313 54.5201L74.689 46.9811ZM121.104 207.555L79.396 194.198L76.5571 51.1171L118.42 58.2081L121.104 207.555Z" fill="#908AB0"/>
<path d="M114.521 66.0861C114.539 67.0511 114.128 67.753 113.604 67.66L81.3861 61.8661C80.8981 61.7791 80.4852 60.952 80.4672 60.024C80.4492 59.091 80.8322 58.4081 81.3212 58.4911L113.542 64.1741C114.064 64.2671 114.502 65.1211 114.521 66.0861Z" fill="#464056"/>
<path d="M114.632 72.235C114.65 73.2 114.24 73.902 113.715 73.805L81.501 67.808C81.014 67.716 80.601 66.889 80.584 65.961C80.568 65.028 80.947 64.345 81.436 64.437L113.653 70.319C114.174 70.412 114.613 71.271 114.632 72.235Z" fill="#464056"/>
<path d="M114.745 78.38C114.761 79.345 114.35 80.042 113.829 79.941L81.6221 73.75C81.1301 73.653 80.7212 72.822 80.7012 71.894C80.6852 70.967 81.066 70.283 81.553 70.38L113.765 76.461C114.287 76.557 114.726 77.42 114.745 78.38Z" fill="#464056"/>
<path d="M114.858 84.525C114.872 85.485 114.463 86.183 113.939 86.076L81.737 79.682C81.248 79.585 80.8371 78.754 80.8181 77.826C80.7991 76.894 81.1831 76.22 81.6721 76.316L113.874 82.595C114.401 82.697 114.839 83.56 114.858 84.525Z" fill="#464056"/>
<path d="M114.966 90.6611C114.984 91.6261 114.574 92.319 114.049 92.212L81.851 85.615C81.361 85.518 80.951 84.682 80.935 83.754C80.916 82.822 81.2971 82.1521 81.7871 82.2491L113.985 88.7311C114.511 88.8381 114.95 89.7011 114.966 90.6611Z" fill="#464056"/>
<path d="M115.079 96.8021C115.095 97.7621 114.684 98.4501 114.16 98.3391L81.969 91.548C81.477 91.442 81.0691 90.6061 81.0481 89.6781C81.0321 88.7501 81.4131 88.0811 81.9021 88.1821L114.098 94.8621C114.622 94.9691 115.061 95.8371 115.079 96.8021Z" fill="#464056"/>
<path d="M78.9231 259.656L81.8621 407.247L127.058 431.836L124.295 277.329L78.9231 259.656ZM125.045 426.901L83.5652 404.496L80.781 264.116L122.414 280.501L125.045 426.901Z" fill="#908AB0"/>
<path d="M118.535 287.311C118.551 288.253 118.145 288.853 117.623 288.64L85.582 275.704C85.097 275.51 84.6859 274.61 84.6679 273.696C84.6489 272.782 85.031 272.2 85.518 272.394L117.561 285.22C118.08 285.432 118.519 286.364 118.535 287.311Z" fill="#464056"/>
<path d="M118.643 293.341C118.661 294.283 118.253 294.874 117.733 294.661L85.697 281.535C85.209 281.336 84.8009 280.432 84.7829 279.522C84.7639 278.608 85.143 278.031 85.632 278.225L117.669 291.244C118.191 291.457 118.627 292.394 118.643 293.341Z" fill="#464056"/>
<path d="M118.755 299.365C118.773 300.307 118.362 300.898 117.843 300.681L85.8139 287.361C85.3249 287.158 84.9161 286.253 84.9001 285.344C84.8811 284.43 85.26 283.852 85.747 284.056L117.781 297.265C118.302 297.477 118.736 298.419 118.755 299.365Z" fill="#464056"/>
<path d="M118.865 305.386C118.881 306.328 118.472 306.915 117.951 306.698L85.9241 293.185C85.4401 292.982 85.0312 292.077 85.0132 291.162C84.9962 290.248 85.3751 289.676 85.8621 289.878L117.891 303.281C118.41 303.502 118.847 304.444 118.865 305.386Z" fill="#464056"/>
<path d="M118.971 311.401C118.99 312.347 118.583 312.929 118.062 312.707L86.0391 299.004C85.5541 298.796 85.143 297.887 85.127 296.977C85.111 296.063 85.4891 295.49 85.9741 295.698L117.996 309.295C118.519 309.518 118.955 310.46 118.971 311.401Z" fill="#464056"/>
<path d="M119.082 317.422C119.098 318.364 118.689 318.941 118.17 318.715L86.1549 304.823C85.6679 304.61 85.2588 303.701 85.2408 302.792C85.2228 301.878 85.6039 301.31 86.0909 301.522L118.108 315.308C118.63 315.529 119.064 316.475 119.082 317.422Z" fill="#464056"/>
<path d="M86.593 231.221C86.699 236.646 84.4461 240.187 81.5791 239.139C78.7301 238.091 76.344 232.897 76.237 227.528C76.128 222.158 78.3401 218.594 81.1911 219.582C84.0631 220.579 86.487 225.792 86.593 231.221Z" fill="#353340"/>
<path d="M85.6649 230.888C85.7529 235.352 83.902 238.261 81.547 237.402C79.197 236.548 77.2349 232.273 77.1469 227.85C77.0589 223.427 78.8779 220.505 81.2279 221.317C83.5879 222.139 85.5779 226.428 85.6649 230.888Z" fill="#5E5575"/>
<path d="M84.054 236.719C84.396 236.35 84.6962 235.874 84.9402 235.297C82.8852 230.833 80.8402 226.387 78.7952 221.968C78.4472 222.323 78.149 222.813 77.895 223.385C79.948 227.8 81.995 232.25 84.054 236.719Z" fill="#4B445D"/>
<path d="M84.8462 226.221C84.6242 225.556 84.3772 224.919 84.0872 224.351C82.1592 227.426 80.243 230.496 78.335 233.543C78.589 234.152 78.887 234.693 79.198 235.192L84.8462 226.221Z" fill="#4B445D"/>
<path d="M85.635 231.743C85.646 231.461 85.67 231.189 85.665 230.889C85.656 230.427 85.6142 229.97 85.5662 229.518L77.1912 226.545C77.1612 226.965 77.138 227.394 77.147 227.851C77.152 228.147 77.1862 228.437 77.2122 228.733L85.635 231.743Z" fill="#4B445D"/>
<path d="M81.7322 221.59C81.5662 221.493 81.4 221.378 81.229 221.318C80.998 221.239 80.781 221.226 80.564 221.216L80.8782 237.033C81.0972 237.176 81.3171 237.319 81.5471 237.402C81.7181 237.467 81.8801 237.467 82.0461 237.49L81.7322 221.59Z" fill="#4B445D"/>
<path d="M83.9832 230.288C84.0362 232.998 82.9142 234.771 81.4832 234.254C80.0562 233.737 78.8612 231.133 78.8062 228.441C78.7502 225.75 79.8631 223.972 81.2921 224.475C82.7221 224.979 83.9302 227.583 83.9832 230.288Z" fill="#6C6185"/>
<path d="M223.203 515.373L141.06 468.332L133.5 30.605L216.788 42.198L223.203 515.373Z" fill="#8271A6"/>
<path d="M213.261 41.709L219.729 513.388L223.203 515.373L216.788 42.198L213.261 41.709Z" fill="#776A94"/>
<path d="M216.566 499.03L146.446 459.685L139.368 43.708L210.41 54.465L216.566 499.03Z" fill="#695F81"/>
<path d="M212.642 491.966L149.765 456.965L142.887 49.026L206.569 58.971L212.642 491.966Z" fill="#8271A6"/>
<path d="M146.677 273.922L149.766 456.966L212.643 491.966L212.532 484.044C174.974 425.28 153.164 347.025 146.677 273.922Z" fill="#816EA2"/>
<path d="M147.976 59.0959L150.672 221.073L203.616 238.234L201.185 67.8909L147.976 59.0959ZM201.269 233.22L152.679 217.666L150.131 63.5789L198.95 71.848L201.269 233.22Z" fill="#908AB0"/>
<path d="M194.341 80.301C194.355 81.344 193.87 82.097 193.261 81.986L155.692 75.2319C155.121 75.1299 154.65 74.23 154.632 73.228C154.616 72.226 155.062 71.4919 155.632 71.5939L193.203 78.2189C193.815 78.3249 194.325 79.258 194.341 80.301Z" fill="#464056"/>
<path d="M194.438 86.9449C194.452 87.9879 193.969 88.7409 193.357 88.6259L155.794 81.6359C155.226 81.5299 154.751 80.6299 154.737 79.6279C154.718 78.6259 155.166 77.8969 155.734 78.0029L193.301 84.8589C193.912 84.9689 194.424 85.9059 194.438 86.9449Z" fill="#464056"/>
<path d="M194.535 93.5879C194.549 94.6269 194.064 95.3749 193.452 95.2589L155.901 88.0339C155.331 87.9279 154.858 87.0229 154.839 86.0209C154.825 85.0189 155.273 84.2939 155.841 84.3999L193.399 91.4919C194.011 91.6079 194.518 92.5449 194.535 93.5879Z" fill="#464056"/>
<path d="M194.632 100.227C194.646 101.266 194.161 102.009 193.552 101.889L156.003 94.4329C155.435 94.3179 154.962 93.4169 154.945 92.4159C154.929 91.4139 155.377 90.6889 155.945 90.7999L193.496 98.1269C194.105 98.2469 194.616 99.1839 194.632 100.227Z" fill="#464056"/>
<path d="M194.729 106.857C194.743 107.896 194.258 108.639 193.649 108.515L156.109 100.824C155.541 100.709 155.066 99.804 155.05 98.801C155.034 97.799 155.482 97.0839 156.05 97.1989L193.594 104.752C194.205 104.877 194.713 105.818 194.729 106.857Z" fill="#464056"/>
<path d="M194.826 113.487C194.84 114.526 194.355 115.265 193.746 115.135L156.211 107.212C155.646 107.097 155.172 106.187 155.154 105.185C155.14 104.183 155.586 103.468 156.156 103.588L193.691 111.377C194.3 111.506 194.812 112.448 194.826 113.487Z" fill="#464056"/>
<path d="M151.788 288.04L154.429 446.725L207.001 475.326L204.621 308.622L151.788 288.04ZM204.669 469.911L156.423 443.849L153.925 292.902L202.399 311.974L204.669 469.911Z" fill="#908AB0"/>
<path d="M197.825 319.186C197.841 320.201 197.358 320.829 196.751 320.585L159.447 305.525C158.884 305.299 158.413 304.315 158.394 303.332C158.38 302.353 158.823 301.739 159.389 301.966L196.695 316.897C197.305 317.14 197.808 318.165 197.825 319.186Z" fill="#464056"/>
<path d="M197.919 325.686C197.933 326.706 197.452 327.329 196.846 327.08L159.549 311.798C158.986 311.567 158.515 310.583 158.496 309.6C158.482 308.617 158.925 308.007 159.491 308.238L196.793 323.395C197.4 323.64 197.905 324.67 197.919 325.686Z" fill="#464056"/>
<path d="M198.014 332.187C198.03 333.207 197.548 333.826 196.94 333.576L159.652 318.068C159.087 317.833 158.616 316.849 158.602 315.866C158.584 314.883 159.029 314.278 159.594 314.509L196.886 329.887C197.494 330.141 197.998 331.171 198.014 332.187Z" fill="#464056"/>
<path d="M198.108 338.682C198.122 339.702 197.642 340.321 197.035 340.062L159.756 324.332C159.188 324.092 158.72 323.104 158.704 322.125C158.686 321.142 159.131 320.542 159.696 320.777L196.981 336.377C197.589 336.637 198.095 337.666 198.108 338.682Z" fill="#464056"/>
<path d="M198.203 345.178C198.22 346.194 197.739 346.808 197.13 346.549L159.858 330.593C159.29 330.353 158.819 329.361 158.805 328.382C158.789 327.403 159.235 326.803 159.798 327.043L197.077 342.869C197.684 343.128 198.189 344.158 198.203 345.178Z" fill="#464056"/>
<path d="M198.298 351.665C198.312 352.685 197.831 353.295 197.227 353.027L159.96 336.854C159.392 336.609 158.923 335.616 158.907 334.638C158.893 333.655 159.336 333.059 159.902 333.304L197.172 349.352C197.781 349.61 198.284 350.649 198.298 351.665Z" fill="#464056"/>
<path d="M160.855 257.703C160.952 263.548 158.313 267.283 154.985 266.064C151.677 264.85 148.93 259.194 148.836 253.414C148.739 247.639 151.327 243.876 154.637 245.021C157.97 246.175 160.763 251.858 160.855 257.703Z" fill="#353340"/>
<path d="M159.779 257.32C159.858 262.121 157.692 265.196 154.952 264.199C152.23 263.206 149.968 258.548 149.89 253.793C149.811 249.033 151.944 245.94 154.668 246.891C157.406 247.841 159.701 252.514 159.779 257.32Z" fill="#5E5575"/>
<path d="M157.873 263.538C158.274 263.15 158.628 262.652 158.916 262.038C156.548 257.172 154.191 252.329 151.838 247.513C151.43 247.892 151.076 248.399 150.786 249.009C153.145 253.825 155.504 258.673 157.873 263.538Z" fill="#4B445D"/>
<path d="M158.851 252.269C158.597 251.549 158.313 250.856 157.978 250.238C155.716 253.484 153.475 256.729 151.238 259.947C151.531 260.612 151.875 261.198 152.238 261.747L158.851 252.269Z" fill="#4B445D"/>
<path d="M159.743 258.239C159.754 257.934 159.785 257.639 159.78 257.32C159.77 256.822 159.725 256.332 159.674 255.838L149.949 252.385C149.915 252.842 149.882 253.303 149.891 253.793C149.896 254.112 149.935 254.426 149.96 254.74L159.743 258.239Z" fill="#4B445D"/>
<path d="M155.25 247.195C155.056 247.084 154.867 246.96 154.668 246.891C154.403 246.794 154.147 246.776 153.895 246.757L154.176 263.779C154.43 263.941 154.686 264.102 154.952 264.199C155.153 264.273 155.34 264.278 155.532 264.31L155.25 247.195Z" fill="#4B445D"/>
<path d="M157.827 256.623C157.873 259.536 156.562 261.406 154.9 260.805C153.243 260.205 151.862 257.375 151.813 254.476C151.765 251.581 153.067 249.702 154.724 250.283C156.386 250.87 157.778 253.709 157.827 256.623Z" fill="#6C6185"/>
<path d="M319.931 570.771L223.203 515.373L216.788 42.198L315.214 55.901L319.931 570.771Z" fill="#8271A6"/>
<path d="M311.018 55.3201L315.815 568.412L319.931 570.771L315.214 55.9011L311.018 55.3201Z" fill="#776A94"/>
<path d="M312.144 552.663L229.572 506.329L223.607 56.46L307.546 69.174L312.144 552.663Z" fill="#695F81"/>
<path d="M307.528 544.778L233.485 503.563L227.711 62.277L302.952 74.027L307.528 544.778Z" fill="#8271A6"/>
<path d="M230.897 305.723L233.484 503.564L307.527 544.778L307.444 536.182C263.346 470.585 238.107 384.984 230.897 305.723Z" fill="#816EA2"/>
<path d="M233.649 73.256L235.898 248.696L298.356 268.945L296.502 83.648L233.649 73.256ZM295.602 263.423L238.275 245.071L236.156 78.149L293.822 87.913L295.602 263.423Z" fill="#908AB0"/>
<path d="M288.303 97.032C288.317 98.168 287.738 98.98 287.011 98.846L242.639 90.868C241.969 90.748 241.415 89.769 241.403 88.679C241.389 87.594 241.923 86.804 242.592 86.925L286.969 94.7459C287.693 94.8769 288.294 95.901 288.303 97.032Z" fill="#464056"/>
<path d="M288.377 104.262C288.391 105.393 287.811 106.201 287.084 106.067L242.726 97.812C242.057 97.687 241.502 96.704 241.489 95.619C241.475 94.529 242.009 93.749 242.68 93.869L287.043 101.971C287.768 102.102 288.368 103.131 288.377 104.262Z" fill="#464056"/>
<path d="M288.455 111.483C288.464 112.619 287.887 113.422 287.162 113.283L242.813 104.751C242.141 104.622 241.589 103.639 241.576 102.554C241.562 101.464 242.093 100.689 242.762 100.813L287.118 109.188C287.844 109.327 288.441 110.352 288.455 111.483Z" fill="#464056"/>
<path d="M288.529 118.704C288.54 119.835 287.961 120.634 287.237 120.49L242.899 111.686C242.23 111.552 241.676 110.569 241.662 109.479C241.651 108.394 242.182 107.619 242.851 107.752L287.196 116.399C287.92 116.543 288.515 117.573 288.529 118.704Z" fill="#464056"/>
<path d="M288.603 125.92C288.615 127.051 288.035 127.845 287.311 127.698L242.985 118.621C242.316 118.482 241.761 117.49 241.748 116.405C241.736 115.32 242.268 114.549 242.937 114.688L287.27 123.608C287.994 123.755 288.594 124.789 288.603 125.92Z" fill="#464056"/>
<path d="M288.679 133.127C288.691 134.258 288.111 135.052 287.389 134.9L243.072 125.546C242.403 125.403 241.848 124.41 241.834 123.325C241.82 122.241 242.351 121.474 243.021 121.612L287.343 130.809C288.067 130.962 288.668 132 288.679 133.127Z" fill="#464056"/>
<path d="M236.825 321.171L239.022 492.751L300.934 526.431L299.122 345.437L236.825 321.171ZM298.206 520.438L241.386 489.745L239.311 326.503L296.469 348.991L298.206 520.438Z" fill="#908AB0"/>
<path d="M290.999 356.637C291.01 357.745 290.436 358.406 289.718 358.114L245.74 340.362C245.075 340.094 244.526 339.014 244.512 337.952C244.498 336.885 245.027 336.239 245.692 336.507L289.674 354.111C290.394 354.398 290.987 355.529 290.999 356.637Z" fill="#464056"/>
<path d="M291.073 363.701C291.084 364.804 290.509 365.464 289.789 365.169L245.823 347.154C245.158 346.877 244.611 345.797 244.597 344.735C244.586 343.673 245.112 343.031 245.776 343.299L289.747 361.166C290.468 361.457 291.061 362.593 291.073 363.701Z" fill="#464056"/>
<path d="M291.147 370.755C291.158 371.863 290.584 372.514 289.863 372.218L245.909 353.935C245.246 353.663 244.697 352.574 244.683 351.511C244.669 350.449 245.195 349.812 245.86 350.085L289.821 368.215C290.542 368.512 291.133 369.652 291.147 370.755Z" fill="#464056"/>
<path d="M291.218 377.81C291.23 378.914 290.657 379.564 289.937 379.26L245.994 360.719C245.329 360.442 244.78 359.353 244.766 358.29C244.754 357.228 245.28 356.591 245.943 356.868L289.895 375.261C290.616 375.566 291.207 376.702 291.218 377.81Z" fill="#464056"/>
<path d="M291.292 384.855C291.303 385.963 290.731 386.605 290.011 386.3L246.077 367.496C245.412 367.21 244.865 366.12 244.853 365.063C244.839 364.001 245.366 363.369 246.03 363.65L289.969 382.307C290.69 382.612 291.281 383.752 291.292 384.855Z" fill="#464056"/>
<path d="M291.366 391.9C291.377 393.003 290.803 393.645 290.085 393.332L246.161 374.269C245.498 373.983 244.949 372.889 244.937 371.827C244.923 370.77 245.449 370.142 246.114 370.428L290.043 389.343C290.764 389.652 291.355 390.797 291.366 391.9Z" fill="#464056"/>
<path d="M247.677 288.663C247.753 294.993 244.625 298.945 240.712 297.509C236.825 296.087 233.63 289.873 233.547 283.626C233.468 277.37 236.534 273.386 240.424 274.734C244.341 276.087 247.601 282.329 247.677 288.663Z" fill="#353340"/>
<path d="M246.407 288.211C246.472 293.41 243.902 296.664 240.685 295.492C237.488 294.324 234.854 289.213 234.789 284.065C234.72 278.918 237.25 275.639 240.449 276.757C243.667 277.874 246.345 283.008 246.407 288.211Z" fill="#5E5575"/>
<path d="M244.129 294.878C244.6 294.476 245.02 293.945 245.361 293.289C242.602 287.947 239.858 282.624 237.116 277.338C236.633 277.73 236.216 278.275 235.867 278.926C238.617 284.208 241.366 289.531 244.129 294.878Z" fill="#4B445D"/>
<path d="M245.343 282.717C245.047 281.928 244.72 281.166 244.327 280.487C241.647 283.922 238.99 287.361 236.34 290.769C236.682 291.494 237.079 292.145 237.503 292.745L245.343 282.717Z" fill="#4B445D"/>
<path d="M246.357 289.204C246.378 288.871 246.415 288.557 246.408 288.211C246.404 287.671 246.35 287.14 246.29 286.604L234.866 282.546C234.818 283.035 234.783 283.534 234.79 284.064C234.795 284.411 234.836 284.752 234.864 285.094L246.357 289.204Z" fill="#4B445D"/>
<path d="M241.135 277.103C240.907 276.983 240.685 276.835 240.449 276.757C240.138 276.646 239.84 276.614 239.54 276.586L239.775 295.012C240.073 295.196 240.373 295.381 240.685 295.492C240.92 295.58 241.142 295.594 241.368 295.631L241.135 277.103Z" fill="#4B445D"/>
<path d="M244.111 287.394C244.15 290.547 242.594 292.528 240.639 291.822C238.693 291.116 237.089 288.008 237.047 284.873C237.008 281.739 238.547 279.749 240.496 280.432C242.451 281.12 244.069 284.236 244.111 287.394Z" fill="#6C6185"/>
<path d="M435.509 636.962L319.931 570.771L315.214 55.901L433.318 72.342L435.509 636.962Z" fill="#8271A6"/>
<path d="M428.244 71.636L430.552 634.123L435.509 636.962L433.318 72.342L428.244 71.636Z" fill="#776A94"/>
<path d="M426.229 616.675L327.564 561.315L323.252 71.552L423.948 86.797L426.229 616.675Z" fill="#695F81"/>
<path d="M420.714 607.774L332.241 558.531L328.112 77.9561L418.364 92.0461L420.714 607.774Z" fill="#8271A6"/>
<path d="M330.39 343.29L332.241 558.531L420.713 607.774L420.667 598.379C368.114 524.297 338.493 429.851 330.39 343.29Z" fill="#816EA2"/>
<path d="M335.122 90.0339L336.707 281.374L411.502 305.622L410.51 102.495L335.122 90.0339ZM408.221 299.481L339.573 277.5L338.089 95.4169L407.247 107.125L408.221 299.481Z" fill="#908AB0"/>
<path d="M400.534 117.019C400.539 118.261 399.836 119.138 398.964 118.981L345.76 109.415C344.958 109.272 344.303 108.191 344.294 107.005C344.285 105.814 344.924 104.969 345.725 105.107L398.936 114.489C399.811 114.646 400.526 115.777 400.534 117.019Z" fill="#464056"/>
<path d="M400.575 124.941C400.582 126.183 399.878 127.06 399.005 126.894L345.817 116.996C345.015 116.848 344.36 115.768 344.351 114.581C344.342 113.395 344.984 112.55 345.782 112.693L398.982 122.407C399.855 122.563 400.568 123.699 400.575 124.941Z" fill="#464056"/>
<path d="M400.617 132.859C400.624 134.101 399.92 134.969 399.047 134.803L345.878 124.577C345.076 124.42 344.421 123.335 344.412 122.149C344.403 120.967 345.045 120.127 345.843 120.274L399.025 130.316C399.896 130.481 400.612 131.622 400.617 132.859Z" fill="#464056"/>
<path d="M400.658 140.773C400.667 142.015 399.963 142.878 399.093 142.703L345.935 132.149C345.136 131.992 344.481 130.902 344.471 129.716C344.462 128.529 345.103 127.699 345.902 127.851L399.067 138.22C399.938 138.39 400.653 139.535 400.658 140.773Z" fill="#464056"/>
<path d="M400.704 148.681C400.709 149.918 400.007 150.777 399.134 150.602L345.994 139.715C345.195 139.554 344.54 138.459 344.53 137.277C344.521 136.09 345.16 135.26 345.961 135.421L399.11 146.118C399.984 146.294 400.695 147.444 400.704 148.681Z" fill="#464056"/>
<path d="M400.746 156.58C400.751 157.822 400.049 158.676 399.176 158.491L346.055 147.277C345.256 147.111 344.6 146.012 344.591 144.83C344.581 143.648 345.221 142.822 346.02 142.988L399.153 154.013C400.026 154.193 400.737 155.343 400.746 156.58Z" fill="#464056"/>
<path d="M337.362 360.335L338.908 547.09L412.888 587.335L411.916 389.379L337.362 360.335ZM409.643 580.627L341.745 543.956L340.298 366.24L408.694 393.156L409.643 580.627Z" fill="#908AB0"/>
<path d="M402.057 401.282C402.061 402.492 401.367 403.193 400.505 402.843L347.883 381.601C347.093 381.282 346.445 380.082 346.435 378.923C346.424 377.764 347.059 377.081 347.85 377.399L400.478 398.461C401.344 398.807 402.048 400.072 402.057 401.282Z" fill="#464056"/>
<path d="M402.099 409.006C402.103 410.215 401.409 410.908 400.547 410.552L347.943 389.001C347.151 388.673 346.502 387.473 346.493 386.314C346.484 385.155 347.117 384.476 347.91 384.8L400.519 406.176C401.385 406.527 402.089 407.796 402.099 409.006Z" fill="#464056"/>
<path d="M402.14 416.721C402.145 417.931 401.45 418.623 400.589 418.263L348.001 396.393C347.209 396.065 346.561 394.86 346.551 393.701C346.542 392.547 347.177 391.868 347.967 392.196L400.564 413.886C401.427 414.246 402.131 415.511 402.14 416.721Z" fill="#464056"/>
<path d="M402.179 424.435C402.186 425.644 401.491 426.328 400.63 425.963L348.058 403.784C347.269 403.447 346.618 402.242 346.609 401.083C346.6 399.929 347.232 399.26 348.026 399.587L400.604 421.591C401.469 421.956 402.173 423.226 402.179 424.435Z" fill="#464056"/>
<path d="M402.221 432.141C402.228 433.351 401.533 434.029 400.672 433.66L348.116 411.167C347.324 410.83 346.678 409.621 346.668 408.461C346.659 407.307 347.292 406.642 348.081 406.975L400.648 429.293C401.51 429.657 402.214 430.936 402.221 432.141Z" fill="#464056"/>
<path d="M402.262 439.841C402.269 441.051 401.574 441.725 400.713 441.351L348.173 418.548C347.381 418.202 346.733 416.988 346.724 415.833C346.717 414.679 347.349 414.019 348.141 414.356L400.69 436.988C401.551 437.358 402.256 438.637 402.262 439.841Z" fill="#464056"/>
<path d="M350.526 325.34C350.579 332.242 346.814 336.434 342.149 334.721C337.521 333.027 333.748 326.143 333.691 319.333C333.634 312.523 337.315 308.29 341.951 309.896C346.618 311.512 350.473 318.433 350.526 325.34Z" fill="#353340"/>
<path d="M349.014 324.8C349.058 330.469 345.967 333.922 342.133 332.524C338.322 331.135 335.212 325.47 335.164 319.86C335.118 314.251 338.156 310.774 341.969 312.104C345.805 313.437 348.968 319.125 349.014 324.8Z" fill="#5E5575"/>
<path d="M346.247 331.983C346.812 331.558 347.32 331 347.731 330.298C344.469 324.37 341.223 318.475 337.985 312.616C337.408 313.032 336.907 313.604 336.485 314.301C339.735 320.155 342.983 326.055 346.247 331.983Z" fill="#4B445D"/>
<path d="M347.777 318.77C347.429 317.902 347.041 317.061 346.577 316.304C343.355 319.956 340.157 323.599 336.974 327.218C337.378 328.021 337.851 328.741 338.35 329.411L347.777 318.77Z" fill="#4B445D"/>
<path d="M348.945 325.88C348.973 325.52 349.016 325.178 349.014 324.8C349.01 324.213 348.952 323.627 348.885 323.046L335.265 318.212C335.207 318.743 335.159 319.283 335.164 319.86C335.168 320.239 335.219 320.608 335.249 320.982L348.945 325.88Z" fill="#4B445D"/>
<path d="M342.784 312.505C342.513 312.362 342.246 312.195 341.969 312.103C341.595 311.969 341.24 311.923 340.884 311.881L341.046 331.964C341.402 332.176 341.762 332.384 342.133 332.522C342.412 332.624 342.675 332.647 342.948 332.698L342.784 312.505Z" fill="#4B445D"/>
<path d="M346.272 323.82C346.3 327.26 344.43 329.36 342.099 328.52C339.781 327.679 337.883 324.235 337.856 320.819C337.828 317.402 339.679 315.292 342.002 316.105C344.328 316.928 346.247 320.381 346.272 323.82Z" fill="#6C6185"/>
<path d="M498.036 635.517L435.428 637.216L433.318 72.342L498.036 60.832V635.517Z" fill="#58506D"/>
<path d="M498.036 52.646L67.7341 0L0 12.055L433.082 72.342L498.036 61.026V52.646Z" fill="#776A94"/>
</svg>
