<svg width="482" height="529" viewBox="0 0 482 529" fill="none" xmlns="http://www.w3.org/2000/svg">
<path d="M468.096 528.669L481.439 263.39H0L13.343 528.669H468.096Z" fill="#D1906C"/>
<path d="M243.464 484.887H230.652V528.669H243.464V484.887Z" fill="#B67E5E"/>
<path d="M450.321 241.423H31.12L0 263.39H481.439L450.321 241.423Z" fill="#B07A5B"/>
<path d="M434.735 508.687L444.828 300.002H36.6121L46.7061 508.687H434.735Z" fill="#8D6147"/>
<path d="M434.735 508.687L444.828 300.002H36.6121L46.7061 508.687H434.735Z" fill="#8D6147"/>
<path d="M36.6121 300.002L46.707 508.687H50.093C67.004 491.614 83.9301 474.55 100.726 457.367V456.9H101.183C102.25 455.811 103.321 454.73 104.385 453.641C105.427 452.574 107.056 454.209 106.017 455.275C105.486 455.815 104.951 456.355 104.42 456.9H281.351V453.645H377.824C374.186 450.077 370.516 446.54 366.781 443.068C365.687 442.052 367.323 440.427 368.41 441.438C372.716 445.436 376.931 449.522 381.109 453.645H381.425V453.959C399.2 471.521 415.955 490.072 432.644 508.687H434.736L444.829 300.002H36.6121Z" fill="#765039"/>
<path d="M380.016 458.853L387.454 327.458H86.6631L94.1011 458.853H380.016Z" fill="#7D553E"/>
<path d="M425.275 490.188C425.275 490.188 425.81 497.783 417.077 499.814L351.165 499.98L312.979 452.778L378.575 452.016L425.275 490.188Z" fill="#537BAE"/>
<path d="M421.189 489.13C421.189 489.13 422.371 495.538 415.785 497.99L352.786 497.787L317.158 453.479C317.158 453.479 318.502 452.828 319.162 452.039C320.427 450.53 320.642 449.241 320.642 449.241L376.923 453.327L421.189 489.13Z" fill="white"/>
<path d="M318.234 452.842C317.68 453.225 317.158 453.479 317.158 453.479L352.786 497.787L353.543 497.773C338.871 479.338 333.296 470.095 318.234 452.842Z" fill="#E3E3ED"/>
<path d="M376.923 453.327L320.642 449.241C320.642 449.241 320.474 450.243 319.569 451.513C334.098 468.374 340.693 476.61 360.211 495.169L415.786 497.99C422.372 495.539 421.19 489.13 421.19 489.13L376.923 453.327Z" fill="#E3E3ED"/>
<path d="M394.215 483.987C387.048 484.172 380.242 484.643 373.564 485.164C373.553 485.381 373.304 485.556 372.729 485.552C370.774 485.543 368.878 485.594 367.016 485.676C363.329 485.967 359.661 486.249 355.977 486.475C355.702 486.489 355.448 486.457 355.229 486.397C354.749 486.42 354.269 486.448 353.787 486.466C353.374 486.489 353.016 486.397 352.744 486.258C358.674 496.221 352.787 497.786 352.787 497.786L415.786 497.989C422.372 495.538 421.19 489.129 421.19 489.129L415.352 484.184C408.184 484.103 400.986 483.812 394.215 483.987Z" fill="#D4D7E5"/>
<path d="M418.909 487.201L415.351 484.186C408.183 484.103 400.986 483.812 394.215 483.987C387.048 484.172 380.242 484.643 373.564 485.164C373.553 485.381 373.304 485.556 372.729 485.552C370.774 485.543 368.878 485.594 367.016 485.676C363.329 485.967 359.661 486.249 355.977 486.475C355.702 486.489 355.448 486.457 355.229 486.397C354.749 486.42 354.269 486.448 353.787 486.466C353.374 486.489 353.016 486.397 352.744 486.258C355.119 490.247 355.553 493.096 355.221 495.062C376.429 493.157 397.542 490.391 418.909 487.201Z" fill="#BCC1D5"/>
<path d="M319.229 447.792L354.421 490.52L425.275 490.188L375.635 447.893L319.229 447.792Z" fill="#4E90CC"/>
<path d="M331.519 451.928L359.804 485.239L408.715 484.735L372.152 452.473L331.519 451.928Z" fill="#7EA3D0"/>
<path d="M425.275 476.153C425.275 476.153 425.81 483.747 417.077 485.779L351.165 485.945L312.979 438.742L378.575 437.98L425.275 476.153Z" fill="#696BA7"/>
<path d="M421.189 475.096C421.189 475.096 422.371 481.504 415.785 483.956L352.786 483.753L317.158 439.445C317.158 439.445 318.502 438.794 319.162 438.005C320.427 436.495 320.642 435.207 320.642 435.207L376.923 439.293L421.189 475.096Z" fill="white"/>
<path d="M318.234 438.807C317.68 439.19 317.158 439.444 317.158 439.444L352.786 483.752L353.543 483.738C338.871 465.303 333.296 456.06 318.234 438.807Z" fill="#E6E2E8"/>
<path d="M376.923 439.292L320.642 435.206C320.642 435.206 320.474 436.208 319.569 437.477C334.098 454.338 340.693 462.574 360.211 481.134L415.786 483.955C422.372 481.503 421.19 475.095 421.19 475.095L376.923 439.292Z" fill="#E6E2E8"/>
<path d="M394.215 469.952C387.048 470.136 380.242 470.612 373.564 471.129C373.553 471.346 373.304 471.521 372.729 471.517C370.774 471.508 368.878 471.563 367.016 471.642C363.329 471.933 359.661 472.215 355.977 472.441C355.702 472.455 355.448 472.423 355.229 472.363C354.749 472.386 354.269 472.409 353.787 472.433C353.374 472.451 353.016 472.363 352.744 472.225C358.674 482.189 352.787 483.753 352.787 483.753L415.786 483.956C422.372 481.504 421.19 475.096 421.19 475.096L415.352 470.156C408.184 470.068 400.986 469.777 394.215 469.952Z" fill="#DAD7E0"/>
<path d="M418.909 473.166L415.351 470.155C408.183 470.067 400.986 469.777 394.215 469.952C387.048 470.136 380.242 470.612 373.564 471.129C373.553 471.346 373.304 471.521 372.729 471.517C370.774 471.508 368.878 471.563 367.016 471.642C363.329 471.933 359.661 472.215 355.977 472.441C355.702 472.455 355.448 472.423 355.229 472.363C354.749 472.386 354.269 472.409 353.787 472.433C353.374 472.451 353.016 472.363 352.744 472.225C355.119 476.214 355.553 479.063 355.221 481.029C376.429 479.121 397.542 476.356 418.909 473.166Z" fill="#C4C1D1"/>
<path d="M319.229 433.756L354.421 476.485L425.275 476.153L375.635 433.858L319.229 433.756Z" fill="#6B71B3"/>
<path d="M331.519 437.893L359.804 471.203L408.715 470.7L372.152 438.437L331.519 437.893Z" fill="#8E91C2"/>
<path d="M425.275 461.508C425.275 461.508 425.81 469.103 417.077 471.134L351.165 471.3L312.979 424.097L378.575 423.335L425.275 461.508Z" fill="#9D6B9F"/>
<path d="M421.189 460.451C421.189 460.451 422.371 466.859 415.785 469.311L352.786 469.103L317.158 424.8C317.158 424.8 318.502 424.144 319.162 423.359C320.427 421.85 320.642 420.561 320.642 420.561L376.923 424.647L421.189 460.451Z" fill="white"/>
<path d="M318.234 424.162C317.68 424.545 317.158 424.799 317.158 424.799L352.786 469.102L353.543 469.093C338.871 450.658 333.296 441.415 318.234 424.162Z" fill="#E5E3E5"/>
<path d="M376.923 424.647L320.642 420.561C320.642 420.561 320.474 421.563 319.569 422.833C334.098 439.694 340.693 447.93 360.211 466.489L415.786 469.31C422.372 466.859 421.19 460.45 421.19 460.45L376.923 424.647Z" fill="#E5E3E5"/>
<path d="M394.215 455.308C387.048 455.493 380.242 455.964 373.564 456.485C373.553 456.702 373.304 456.877 372.729 456.873C370.774 456.863 368.878 456.915 367.016 456.997C363.329 457.288 359.661 457.57 355.977 457.796C355.702 457.81 355.448 457.778 355.229 457.713C354.749 457.741 354.269 457.764 353.787 457.787C353.374 457.805 353.016 457.718 352.744 457.58C358.674 467.543 352.787 469.104 352.787 469.104L415.786 469.312C422.372 466.861 421.19 460.452 421.19 460.452L415.352 455.507C408.184 455.423 400.986 455.132 394.215 455.308Z" fill="#D9D7DB"/>
<path d="M418.909 458.521L415.351 455.506C408.183 455.423 400.986 455.132 394.215 455.308C387.048 455.493 380.242 455.964 373.564 456.485C373.553 456.702 373.304 456.877 372.729 456.873C370.774 456.863 368.878 456.915 367.016 456.997C363.329 457.288 359.661 457.57 355.977 457.796C355.702 457.81 355.448 457.778 355.229 457.713C354.749 457.741 354.269 457.764 353.787 457.787C353.374 457.805 353.016 457.718 352.744 457.58C355.119 461.569 355.553 464.418 355.221 466.384C376.429 464.477 397.542 461.711 418.909 458.521Z" fill="#C9C1C8"/>
<path d="M319.229 419.112L354.421 461.84L425.275 461.508L375.635 419.213L319.229 419.112Z" fill="#A371A8"/>
<path d="M331.519 423.244L359.804 456.559L408.715 456.055L372.152 423.793L331.519 423.244Z" fill="#B792BC"/>
<path d="M425.275 448.082C425.275 448.082 425.81 455.677 417.077 457.708L351.165 457.874L312.979 410.676L378.575 409.91L425.275 448.082Z" fill="#9F4A4C"/>
<path d="M421.189 447.025C421.189 447.025 422.371 453.433 415.785 455.885L352.786 455.682L317.158 411.374C317.158 411.374 318.502 410.723 319.162 409.934C320.427 408.424 320.642 407.136 320.642 407.136L376.923 411.222L421.189 447.025Z" fill="white"/>
<path d="M318.234 410.737C317.68 411.12 317.158 411.374 317.158 411.374L352.786 455.682L353.543 455.668C338.871 437.233 333.296 427.99 318.234 410.737Z" fill="#C9C1C8"/>
<path d="M376.923 411.221L320.642 407.135C320.642 407.135 320.474 408.137 319.569 409.406C334.098 426.267 340.693 434.503 360.211 453.063L415.786 455.884C422.372 453.432 421.19 447.024 421.19 447.024L376.923 411.221Z" fill="#C9C1C8"/>
<path d="M394.215 441.882C387.048 442.066 380.242 442.542 373.564 443.059C373.553 443.276 373.304 443.451 372.729 443.447C370.774 443.442 368.878 443.493 367.016 443.577C363.329 443.863 359.661 444.145 355.977 444.371C355.702 444.385 355.448 444.353 355.229 444.293C354.749 444.316 354.269 444.344 353.787 444.363C353.374 444.386 353.016 444.293 352.744 444.155C358.674 454.119 352.787 455.683 352.787 455.683L415.786 455.886C422.372 453.434 421.19 447.026 421.19 447.026L415.352 442.086C408.184 441.997 400.986 441.707 394.215 441.882Z" fill="#D9D7DB"/>
<path d="M418.909 445.095L415.351 442.084C408.183 441.997 400.986 441.706 394.215 441.881C387.048 442.065 380.242 442.541 373.564 443.058C373.553 443.275 373.304 443.45 372.729 443.446C370.774 443.441 368.878 443.492 367.016 443.576C363.329 443.862 359.661 444.144 355.977 444.37C355.702 444.384 355.448 444.352 355.229 444.292C354.749 444.315 354.269 444.343 353.787 444.362C353.374 444.385 353.016 444.292 352.744 444.154C355.119 448.143 355.553 450.992 355.221 452.958C376.429 451.051 397.542 448.286 418.909 445.095Z" fill="#C9C1C8"/>
<path d="M319.229 405.686L354.421 448.415L425.275 448.082L375.635 405.787L319.229 405.686Z" fill="#A54F56"/>
<path d="M331.519 409.822L359.804 443.133L408.715 442.63L372.152 410.367L331.519 409.822Z" fill="#B96F74"/>
<path d="M336.923 488.775C336.923 488.775 337.46 496.37 328.728 498.401L262.814 498.568L224.63 451.365L290.228 450.603L336.923 488.775Z" fill="#A49666"/>
<path d="M332.842 487.713C332.842 487.713 334.019 494.125 327.436 496.573L264.435 496.37L228.811 452.062C228.811 452.062 230.152 451.411 230.812 450.621C232.079 449.111 232.292 447.828 232.292 447.828L288.573 451.909L332.842 487.713Z" fill="white"/>
<path d="M229.884 451.429C229.332 451.808 228.811 452.062 228.811 452.062L264.435 496.37L265.192 496.356C250.521 477.921 244.946 468.682 229.884 451.429Z" fill="#E5E7E1"/>
<path d="M288.573 451.91L232.292 447.829C232.292 447.829 232.126 448.826 231.221 450.1C245.75 466.956 252.343 475.193 271.863 493.752L327.436 496.573C334.02 494.126 332.842 487.713 332.842 487.713L288.573 451.91Z" fill="#E5E7E1"/>
<path d="M305.865 482.57C298.7 482.755 291.894 483.23 285.214 483.747C285.204 483.969 284.955 484.139 284.378 484.135C282.425 484.13 280.527 484.181 278.662 484.264C274.978 484.555 271.312 484.832 267.625 485.058C267.35 485.076 267.097 485.044 266.877 484.98C266.397 485.003 265.917 485.031 265.435 485.054C265.022 485.072 264.664 484.985 264.392 484.846C270.322 494.809 264.434 496.37 264.434 496.37L327.435 496.573C334.019 494.126 332.841 487.713 332.841 487.713L327.001 482.773C319.831 482.69 312.634 482.399 305.865 482.57Z" fill="#DFDFD7"/>
<path d="M330.559 485.783L327.001 482.773C319.831 482.69 312.634 482.399 305.865 482.57C298.7 482.755 291.894 483.23 285.214 483.747C285.204 483.969 284.955 484.139 284.378 484.135C282.425 484.13 280.527 484.181 278.662 484.264C274.978 484.555 271.312 484.832 267.625 485.058C267.35 485.076 267.097 485.044 266.877 484.98C266.397 485.003 265.917 485.031 265.435 485.054C265.022 485.072 264.664 484.985 264.392 484.846C266.765 488.835 267.201 491.679 266.871 493.646C288.077 491.739 309.194 488.978 330.559 485.783Z" fill="#CCCDC3"/>
<path d="M230.879 446.374L266.073 489.103L336.923 488.775L287.283 446.48L230.879 446.374Z" fill="#BDA66E"/>
<path d="M243.169 450.511L271.451 483.826L320.364 483.322L283.801 451.055L243.169 450.511Z" fill="#C4B692"/>
<path d="M336.923 474.735C336.923 474.735 337.46 482.334 328.728 484.366L262.814 484.532L224.63 437.33L290.228 436.568L336.923 474.735Z" fill="#9BA068"/>
<path d="M332.842 473.682C332.842 473.682 334.019 480.09 327.436 482.537L264.435 482.334L228.811 438.031C228.811 438.031 230.152 437.375 230.812 436.586C232.079 435.077 232.292 433.793 232.292 433.793L288.573 437.874L332.842 473.682Z" fill="white"/>
<path d="M229.884 437.394C229.332 437.773 228.811 438.031 228.811 438.031L264.435 482.334L265.192 482.32C250.521 463.886 244.946 454.648 229.884 437.394Z" fill="#DAE4E4"/>
<path d="M288.573 437.874L232.292 433.793C232.292 433.793 232.126 434.791 231.221 436.065C245.75 452.921 252.343 461.157 271.863 479.717L327.436 482.538C334.02 480.091 332.842 473.683 332.842 473.683L288.573 437.874Z" fill="#DAE4E4"/>
<path d="M305.865 468.539C298.7 468.719 291.894 469.195 285.214 469.712C285.204 469.934 284.955 470.104 284.378 470.104C282.425 470.095 280.527 470.146 278.662 470.229C274.978 470.52 271.312 470.797 267.625 471.023C267.35 471.041 267.097 471.009 266.877 470.945C266.397 470.973 265.917 470.996 265.435 471.019C265.022 471.038 264.664 470.95 264.392 470.811C270.322 480.774 264.434 482.335 264.434 482.335L327.435 482.538C334.019 480.091 332.841 473.683 332.841 473.683L327.001 468.738C319.831 468.655 312.634 468.364 305.865 468.539Z" fill="#CEDAD8"/>
<path d="M330.559 471.748L327.001 468.738C319.831 468.655 312.634 468.364 305.865 468.54C298.7 468.72 291.894 469.196 285.214 469.713C285.204 469.935 284.955 470.105 284.378 470.105C282.425 470.096 280.527 470.147 278.662 470.23C274.978 470.521 271.312 470.798 267.625 471.024C267.35 471.042 267.097 471.01 266.877 470.946C266.397 470.974 265.917 470.997 265.435 471.02C265.022 471.039 264.664 470.951 264.392 470.812C266.765 474.801 267.201 477.645 266.871 479.612C288.077 477.704 309.194 474.943 330.559 471.748Z" fill="#BCCBC5"/>
<path d="M230.879 432.339L266.073 475.072L336.923 474.735L287.283 432.445L230.879 432.339Z" fill="#ABAA6E"/>
<path d="M243.169 436.475L271.451 469.791L320.364 469.287L283.801 437.02L243.169 436.475Z" fill="#B6B992"/>
<path d="M336.923 460.09C336.923 460.09 337.46 467.689 328.728 469.721L262.814 469.887L224.63 422.684L290.228 421.918L336.923 460.09Z" fill="#49A469"/>
<path d="M332.842 459.033C332.842 459.033 334.019 465.446 327.436 467.893L264.435 467.69L228.811 423.383C228.811 423.383 230.152 422.732 230.812 421.942C232.079 420.433 232.292 419.144 232.292 419.144L288.573 423.23L332.842 459.033Z" fill="white"/>
<path d="M229.884 422.745C229.332 423.128 228.811 423.382 228.811 423.382L264.435 467.689L265.192 467.675C250.521 449.241 244.946 439.998 229.884 422.745Z" fill="#DAE1E7"/>
<path d="M288.573 423.23L232.292 419.144C232.292 419.144 232.126 420.146 231.221 421.416C245.75 438.277 252.343 446.513 271.863 465.072L327.436 467.893C334.02 465.446 332.842 459.033 332.842 459.033L288.573 423.23Z" fill="#DAE1E7"/>
<path d="M305.865 453.89C298.7 454.075 291.894 454.551 285.214 455.067C285.204 455.289 284.955 455.459 284.378 455.455C282.425 455.45 280.527 455.501 278.662 455.584C274.978 455.875 271.312 456.152 267.625 456.378C267.35 456.396 267.097 456.364 266.877 456.3C266.397 456.323 265.917 456.351 265.435 456.374C265.022 456.392 264.664 456.305 264.392 456.166C270.322 466.125 264.434 467.69 264.434 467.69L327.435 467.893C334.019 465.446 332.841 459.033 332.841 459.033L327.001 454.093C319.831 454.01 312.634 453.72 305.865 453.89Z" fill="#CDDAE0"/>
<path d="M330.559 457.103L327.001 454.093C319.831 454.01 312.634 453.719 305.865 453.89C298.7 454.075 291.894 454.551 285.214 455.067C285.204 455.289 284.955 455.459 284.378 455.455C282.425 455.45 280.527 455.501 278.662 455.584C274.978 455.875 271.312 456.152 267.625 456.378C267.35 456.396 267.097 456.364 266.877 456.3C266.397 456.323 265.917 456.351 265.435 456.374C265.022 456.392 264.664 456.305 264.392 456.166C266.765 460.155 267.201 462.999 266.871 464.966C288.077 463.059 309.194 460.294 330.559 457.103Z" fill="#B5CBD0"/>
<path d="M230.879 417.694L266.073 460.423L336.923 460.09L287.283 417.8L230.879 417.694Z" fill="#53A86E"/>
<path d="M243.169 421.831L271.451 455.142L320.364 454.643L283.801 422.376L243.169 421.831Z" fill="#7DB995"/>
<path d="M336.923 446.67C336.923 446.67 337.46 454.265 328.728 456.296L262.814 456.462L224.63 409.26L290.228 408.498L336.923 446.67Z" fill="#00A3A8"/>
<path d="M332.842 445.612C332.842 445.612 334.019 452.02 327.436 454.467L264.435 454.264L228.811 409.961C228.811 409.961 230.152 409.305 230.812 408.516C232.079 407.006 232.292 405.723 232.292 405.723L288.573 409.804L332.842 445.612Z" fill="white"/>
<path d="M229.884 409.324C229.332 409.703 228.811 409.961 228.811 409.961L264.435 454.264L265.192 454.25C250.521 435.815 244.946 426.577 229.884 409.324Z" fill="#B5CBD0"/>
<path d="M288.573 409.804L232.292 405.723C232.292 405.723 232.126 406.72 231.221 407.995C245.75 424.856 252.343 433.087 271.863 451.647L327.436 454.468C334.02 452.021 332.842 445.613 332.842 445.613L288.573 409.804Z" fill="#B5CBD0"/>
<path d="M305.865 440.469C298.7 440.649 291.894 441.125 285.214 441.642C285.204 441.864 284.955 442.034 284.378 442.034C282.425 442.024 280.527 442.076 278.662 442.159C274.978 442.45 271.312 442.727 267.625 442.953C267.35 442.971 267.097 442.939 266.877 442.875C266.397 442.903 265.917 442.926 265.435 442.949C265.022 442.968 264.664 442.88 264.392 442.742C270.322 452.705 264.434 454.266 264.434 454.266L327.435 454.469C334.019 452.022 332.841 445.614 332.841 445.614L327.001 440.669C319.831 440.584 312.634 440.293 305.865 440.469Z" fill="#CDDAE0"/>
<path d="M330.559 443.678L327.001 440.668C319.831 440.585 312.634 440.294 305.865 440.469C298.7 440.649 291.894 441.125 285.214 441.642C285.204 441.864 284.955 442.034 284.378 442.034C282.425 442.024 280.527 442.076 278.662 442.159C274.978 442.45 271.312 442.727 267.625 442.953C267.35 442.971 267.097 442.939 266.877 442.875C266.397 442.903 265.917 442.926 265.435 442.949C265.022 442.968 264.664 442.88 264.392 442.742C266.765 446.731 267.201 449.575 266.871 451.546C288.077 449.633 309.194 446.872 330.559 443.678Z" fill="#B5CBD0"/>
<path d="M230.879 404.268L266.073 447.002L336.923 446.67L287.283 404.375L230.879 404.268Z" fill="#00A6A8"/>
<path d="M243.169 408.405L271.451 441.72L320.364 441.217L283.801 408.95L243.169 408.405Z" fill="#25B8C3"/>
<path d="M387.49 0.719971H384.605V193.302H387.49V0.719971Z" fill="#00668B"/>
<path d="M396.866 222.877H375.949L382.44 186.811H390.376L396.866 222.877Z" fill="#4EC2ED"/>
<path d="M390.376 186.811H382.44L381.318 193.039C381.53 193.09 381.747 193.182 381.964 193.334C387.786 197.411 390.773 204.183 387.814 211.021C385.667 215.989 381.365 219.41 376.346 220.675L375.949 222.877H396.866L390.376 186.811Z" fill="#00B7EB"/>
<path d="M464.453 101.1C464.453 141.931 431.351 175.029 390.519 175.029C349.688 175.029 316.59 141.931 316.59 101.1C316.59 60.264 349.688 27.166 390.519 27.166C431.351 27.166 464.453 60.264 464.453 101.1Z" fill="#00A5DD"/>
<path d="M448.329 95.5681C448.329 130.296 420.178 158.445 385.455 158.445C350.727 158.445 322.578 130.296 322.578 95.5681C322.578 60.8451 350.727 32.691 385.455 32.691C420.178 32.692 448.329 60.8451 448.329 95.5681Z" fill="#00B1EF"/>
<path d="M427.602 89.8111C427.602 117.286 405.328 139.562 377.853 139.562C350.376 139.562 328.104 117.286 328.104 89.8111C328.104 62.3361 350.376 40.0641 377.853 40.0641C405.328 40.0651 427.602 62.3361 427.602 89.8111Z" fill="#00B7F0"/>
<path d="M427.602 89.8111C427.602 117.286 405.328 139.562 377.853 139.562C350.376 139.562 328.104 117.286 328.104 89.8111C328.104 62.3361 350.376 40.0641 377.853 40.0641C405.328 40.0651 427.602 62.3361 427.602 89.8111Z" fill="#00B7F0"/>
<path d="M377.117 68.26C375.374 70.028 372.542 71.4551 370.598 73.3571C366.42 77.4381 362.837 82.4611 356.203 81.5331C350.27 80.6971 348.1 74.072 349.192 68.855C350.796 61.177 357.354 57.346 364.799 57.359C369.333 57.364 384.119 61.159 377.117 68.26Z" fill="#75CEF4"/>
<path d="M341.032 52.858C340.653 55.526 339.899 59.524 341.221 62.05C344.832 68.961 351.752 54.834 353.347 52.817C356.645 48.643 364.055 47.184 369.099 48.796C372.506 49.881 374.803 51.751 378.351 52.494C383.275 53.533 388.848 51.885 393.143 53.759C394.699 54.437 395.717 56.575 397.457 56.912C398.343 57.087 402.788 55.545 402.302 55.231C402.596 55.42 402.521 55.568 402.083 55.679C405.73 53.615 411.681 51.879 414.664 49.036C417.605 46.233 417.092 45.707 413.295 42.877C411.696 45.379 409.369 47.895 406.52 48.939C402.85 50.287 394.027 48.851 391.52 45.67C389.447 43.043 386.993 37.023 392.231 36.284C396.566 35.675 400.915 38.126 405.052 39.031C408.094 39.701 411.437 36.376 413.035 34.004C413.639 33.103 414.194 32.171 414.669 31.206C407.102 28.593 398.976 27.166 390.518 27.166C372.152 27.166 355.356 33.865 342.427 44.95C342.025 47.595 341.406 50.208 341.032 52.858Z" fill="#D6B282"/>
<path d="M455.012 65.369C449.361 68.716 449.176 72.9461 448.567 78.8231C448.17 82.6641 446.84 85.66 443.267 87.48C442.325 87.96 441.347 87.683 440.757 86.824C439.705 85.287 438.299 84.507 436.766 83.86C437.033 86.431 438.858 94.1461 435.506 95.3741C433.345 96.1631 424.641 89.737 422.376 88.652C421.25 91.755 420.607 101.316 414.703 100.891C411.18 100.637 411.34 96.708 407.311 99.949C404.703 102.04 405.436 106.676 400.931 104.607C404.698 112.723 415.823 103.582 421.051 102.608C423.528 102.142 429.232 101.103 430.825 102.248C433.415 104.118 431.314 109.552 437.274 107.788C439.342 107.174 439.003 105.415 440.617 104.667C442.385 103.85 444.093 105.124 445.566 104.57C447.884 103.702 449.315 98.181 452.6 102.123C454.828 104.796 452.367 109.943 450.982 111.347C449.957 112.386 448.076 111.933 447.04 113.282C445.775 114.926 446.587 117.41 445.23 118.933C441.726 122.866 440.697 118.794 437.61 117.058C432.534 120.285 426.537 121.389 422.179 116.412C420.558 114.565 420.053 111.255 417.031 110.978C413.767 110.673 412.957 113.725 409.27 113.213C406.86 112.876 403.61 110.157 400.895 109.621C391.528 107.77 383.79 117.396 377.834 123.236C377.543 123.619 377.044 125.452 377.003 126.592C377.054 125.133 384.57 128.416 385.205 129.044C387.276 131.099 386.961 134.34 389.831 135.872C393.287 137.719 396.431 134.727 399.595 134.593C403.799 134.418 410.939 135.346 414.016 138.591C419.75 144.639 409.879 142.15 406.412 141.961C398.632 141.541 401.816 143.161 400.068 149.403C399.856 149.288 399.846 149.094 400.045 148.822C397.926 153.485 390.123 163.85 396.564 167.16C399.523 168.684 402.856 167.479 405.569 165.95C408.632 164.223 411.149 161.744 414.066 159.815C417.367 157.627 420.659 157.562 423.965 156.006C426.105 154.995 427.024 152.46 429.032 151.615C432.111 150.322 435.332 153.06 438.475 151.929C438.87 151.786 441.342 147.764 442.441 147.044C444.219 145.876 445.179 147.39 446.43 145.493C442.764 143.642 444.874 140.479 442.801 138.868C439.581 136.361 444.191 133.813 444.186 133.799C442.515 131.398 435.204 136.357 435.793 132.65C435.982 131.445 436.213 130.522 436.906 129.543C437.171 129.164 437.868 128.998 438.219 128.638C444.967 121.676 452.532 117.035 461.583 121.043C464.025 115.046 464.455 107.543 464.455 101.098C464.455 88.0831 461.08 75.867 455.18 65.248C455.123 65.291 455.077 65.333 455.012 65.369Z" fill="#D6B282"/>
<path d="M341.877 106.824C341.831 104.668 342.742 102.42 343.691 100.577C344.423 99.155 344.653 98.435 344.13 96.777C343.793 95.715 342.758 93.79 342.177 93.573C340.619 93.328 337.667 93.397 336.337 92.562C335.39 91.966 335 90.41 334.592 89.395C334.38 88.873 331.157 81.583 330.423 82.405C327.667 85.475 329.412 89.976 328.35 93.642C327.404 96.911 325.04 99.302 321.993 100.766C320.252 101.607 318.433 101.828 316.596 101.676C316.725 118.278 322.321 133.574 331.677 145.855C332.49 143.076 333.902 140.615 336.347 138.943C338.761 137.3 341.652 136.533 344.477 135.942C345.814 135.665 350.897 135.383 351.624 134.026C355.396 127.027 342.086 126.63 341.456 121.505C341.084 118.49 345.129 118.305 345.219 115.295C345.299 112.696 342.548 110.558 342.012 108.028C341.928 107.632 341.886 107.23 341.877 106.824Z" fill="#D6B282"/>
<path d="M350.215 86.5891C350.215 89.1331 348.359 91.1961 346.069 91.1961C343.779 91.1961 341.923 89.1321 341.923 86.5891C341.923 84.0451 343.779 81.9811 346.069 81.9811C348.359 81.9811 350.215 84.0451 350.215 86.5891Z" fill="#75CEF4"/>
<path d="M390.843 4.32599C390.783 1.92499 388.821 0 386.408 0C383.993 0 382.034 1.92499 381.971 4.32599H390.843Z" fill="#003C56"/>
<path d="M390.857 3.60596H381.96V7.69196H390.857V3.60596Z" fill="#005879"/>
<path d="M389.439 188.852C381.844 188.852 374.305 187.892 367.022 185.999L368.294 181.114C375.159 182.901 382.274 183.806 389.439 183.806C435.637 183.806 473.225 146.216 473.225 100.015C473.225 53.814 435.637 16.229 389.439 16.229C381.29 16.229 366.387 22.965 366.387 22.965L363.499 20.319L361.939 15.518C370.791 12.637 380.044 11.178 389.439 11.178C438.424 11.178 478.276 51.03 478.276 100.015C478.277 148.999 438.424 188.852 389.439 188.852Z" fill="#914F1D"/>
<path d="M392.325 191.497C384.73 191.497 377.191 190.537 369.906 188.644L371.178 183.759C378.045 185.541 385.16 186.446 392.325 186.446C438.526 186.446 476.111 148.86 476.111 102.66C476.111 56.46 438.525 18.874 392.325 18.874C383.46 18.874 374.732 20.25 366.387 22.964L364.822 18.163C373.677 15.282 382.929 13.823 392.325 13.823C441.307 13.823 481.159 53.675 481.159 102.66C481.159 151.645 441.307 191.497 392.325 191.497Z" fill="#C97032"/>
<path d="M440.271 244.757H440.386L395.857 220.473H376.72L334.093 243.718C331.891 244.651 330.691 245.657 330.691 246.71C330.691 251.488 355.543 255.366 386.199 255.366C416.855 255.366 441.707 251.488 441.707 246.71C441.706 246.036 441.199 245.385 440.271 244.757Z" fill="#4680C0"/>
<path d="M440.271 244.757H440.386L396.448 220.795C399.047 227.489 395.866 233.995 389.347 238.011C382.547 242.203 374.455 243.731 366.54 243.74C358.89 243.745 350.187 242.401 342.976 238.874L334.093 243.717C331.891 244.65 330.691 245.656 330.691 246.709C330.691 251.487 355.543 255.365 386.199 255.365C416.855 255.365 441.707 251.487 441.707 246.709C441.706 246.036 441.199 245.385 440.271 244.757Z" fill="#4178B2"/>
<path d="M440.271 244.757H440.386L439.089 244.051C431.949 247.546 410.972 250.076 386.199 250.076C361.455 250.076 340.502 247.55 333.336 244.065C331.618 244.896 330.69 245.787 330.69 246.711C330.69 251.489 355.542 255.367 386.198 255.367C416.854 255.367 441.706 251.489 441.706 246.711C441.706 246.036 441.199 245.385 440.271 244.757Z" fill="#37679A"/>
<path d="M381 222.877L358.638 240.911L348.539 237.781L376.429 222.157L381 222.877Z" fill="#5991C9"/>
<path d="M361.939 15.517L364.822 18.163L366.387 22.964L363.499 20.318L361.939 15.517Z" fill="#6F3A0B"/>
<path d="M368.294 181.114L371.178 183.759L369.905 188.644L367.022 185.999L368.294 181.114Z" fill="#6F3A0B"/>
<path d="M94.285 372.865C94.121 372.787 93.923 372.801 93.775 372.916L67.7941 392.575C67.6721 392.667 67.6001 392.81 67.6001 392.963V491.999C67.6001 492.193 67.715 492.369 67.895 492.447C67.955 492.475 68.02 492.484 68.084 492.484C68.206 492.484 68.3291 492.442 68.4191 492.354L94.161 468.079C94.258 467.986 94.313 467.862 94.313 467.728L94.5531 373.304C94.5531 373.118 94.451 372.948 94.285 372.865Z" fill="#008486"/>
<path d="M113.625 375.183C113.533 375.068 113.394 375.003 113.247 375.003H113.242L94.7051 375.091C94.5941 375.091 94.486 375.133 94.4 375.206L72.399 392.926C72.286 393.013 72.2211 393.152 72.2211 393.295V484.731C72.2211 484.921 72.3321 485.091 72.5071 485.175C72.5711 485.202 72.638 485.217 72.708 485.217C72.821 485.217 72.936 485.175 73.026 485.097L92.202 468.499C92.278 468.435 92.333 468.342 92.354 468.245L113.716 375.595C113.75 375.45 113.717 375.298 113.625 375.183Z" fill="white"/>
<path d="M89.4561 392.477H68.0961C67.8281 392.477 67.609 392.694 67.609 392.961V491.997C67.609 492.265 67.8281 492.482 68.0961 492.482H89.4551C89.7231 492.482 89.9401 492.265 89.9401 491.997V392.962C89.9411 392.694 89.7241 392.477 89.4561 392.477Z" fill="#009FA1"/>
<path d="M89.941 408.742H67.609V414.079H89.941V408.742Z" fill="#84BAB8"/>
<path d="M89.941 422.574H67.609V436.171H89.941V422.574Z" fill="#84BAB8"/>
<path d="M115.672 373.663C115.67 373.478 115.568 373.312 115.402 373.229C115.24 373.151 115.042 373.169 114.894 373.275L89.134 392.541C89.011 392.634 88.9401 392.776 88.9401 392.933V491.969C88.9401 492.163 89.056 492.338 89.234 492.412C89.294 492.44 89.361 492.454 89.425 492.454C89.548 492.454 89.6681 492.408 89.7571 492.325L115.65 468.049C115.747 467.957 115.803 467.827 115.803 467.694L115.672 373.663Z" fill="#009698"/>
<path d="M115.728 413.442L115.693 388.977C106.778 395.722 97.553 402.052 88.941 409.213V436.217C97.826 428.576 106.753 420.982 115.728 413.442Z" fill="#4EA5AD"/>
<path d="M119.207 372.865C119.041 372.787 118.844 372.801 118.699 372.916L92.7151 392.575C92.5931 392.667 92.521 392.81 92.521 392.963V491.999C92.521 492.193 92.6361 492.369 92.8141 492.447C92.8771 492.475 92.9411 492.484 93.0061 492.484C93.1281 492.484 93.246 492.442 93.338 492.354L119.079 468.079C119.176 467.986 119.232 467.862 119.232 467.728L119.474 373.304C119.477 373.118 119.373 372.948 119.207 372.865Z" fill="#1F5E8B"/>
<path d="M138.544 375.183C138.454 375.068 138.313 375.003 138.166 375.003H138.164L119.627 375.091C119.516 375.091 119.405 375.133 119.32 375.206L97.3191 392.926C97.2081 393.013 97.144 393.152 97.144 393.295V484.731C97.144 484.921 97.2551 485.091 97.4281 485.175C97.4921 485.202 97.5621 485.217 97.6281 485.217C97.7441 485.217 97.859 485.175 97.947 485.097L117.123 468.499C117.204 468.435 117.254 468.342 117.278 468.245L138.64 375.595C138.671 375.45 138.639 375.298 138.544 375.183Z" fill="white"/>
<path d="M114.378 392.477H93.016C92.748 392.477 92.531 392.694 92.531 392.961V491.997C92.531 492.265 92.748 492.482 93.016 492.482H114.378C114.646 492.482 114.863 492.265 114.863 491.997V392.962C114.863 392.694 114.645 392.477 114.378 392.477Z" fill="#1D6BA6"/>
<path d="M114.863 408.742H92.531V414.079H114.863V408.742Z" fill="#82ACC7"/>
<path d="M114.863 422.574H92.531V436.171H114.863V422.574Z" fill="#82ACC7"/>
<path d="M140.594 373.663C140.592 373.478 140.49 373.312 140.324 373.229C140.16 373.151 139.964 373.169 139.816 373.275L114.056 392.541C113.934 392.634 113.86 392.776 113.86 392.933V491.969C113.86 492.163 113.978 492.338 114.155 492.412C114.215 492.44 114.28 492.454 114.347 492.454C114.469 492.454 114.587 492.408 114.679 492.325L140.57 468.049C140.669 467.957 140.725 467.827 140.725 467.694L140.594 373.663Z" fill="#1F689E"/>
<path d="M140.648 413.442L140.615 388.977C131.7 395.722 122.473 402.052 113.86 409.213V436.217C122.748 428.576 131.677 420.982 140.648 413.442Z" fill="#5B83AF"/>
<path d="M143.805 372.865C143.639 372.787 143.44 372.801 143.292 372.916L117.311 392.575C117.189 392.667 117.12 392.81 117.12 392.963V491.999C117.12 492.193 117.233 492.369 117.411 492.447C117.476 492.475 117.541 492.484 117.605 492.484C117.725 492.484 117.845 492.442 117.937 492.354L143.679 468.079C143.774 467.986 143.829 467.862 143.829 467.728L144.074 373.304C144.073 373.118 143.969 372.948 143.805 372.865Z" fill="#4D578F"/>
<path d="M163.143 375.183C163.05 375.068 162.909 375.003 162.762 375.003L144.225 375.091C144.114 375.091 144.003 375.133 143.918 375.206L121.916 392.926C121.805 393.013 121.741 393.152 121.741 393.295V484.731C121.741 484.921 121.852 485.091 122.023 485.175C122.088 485.202 122.157 485.217 122.226 485.217C122.341 485.217 122.454 485.175 122.545 485.097L141.718 468.499C141.796 468.435 141.852 468.342 141.875 468.245L163.237 375.595C163.27 375.45 163.235 375.298 163.143 375.183Z" fill="white"/>
<path d="M138.976 392.477H117.614C117.346 392.477 117.129 392.694 117.129 392.961V491.997C117.129 492.265 117.346 492.482 117.614 492.482H138.976C139.244 492.482 139.461 492.265 139.461 491.997V392.962C139.461 392.694 139.244 392.477 138.976 392.477Z" fill="#5962A5"/>
<path d="M139.461 408.742H117.129V414.079H139.461V408.742Z" fill="#A3AEC9"/>
<path d="M139.461 422.574H117.129V436.171H139.461V422.574Z" fill="#A3AEC9"/>
<path d="M165.191 373.663C165.191 373.478 165.087 373.312 164.923 373.229C164.76 373.151 164.563 373.169 164.415 373.275L138.653 392.541C138.533 392.634 138.459 392.776 138.459 392.933V491.969C138.459 492.163 138.574 492.338 138.752 492.412C138.815 492.44 138.879 492.454 138.944 492.454C139.066 492.454 139.184 492.408 139.276 492.325L165.167 468.049C165.266 467.957 165.322 467.827 165.322 467.694L165.191 373.663Z" fill="#565FA0"/>
<path d="M165.246 413.442L165.211 388.977C156.298 395.722 147.071 402.052 138.459 409.213V436.217C147.347 428.576 156.273 420.982 165.246 413.442Z" fill="#7E85B1"/>
<path d="M167.49 372.846C167.315 372.795 167.125 372.851 167.001 372.989L145.302 397.297C145.2 397.412 145.159 397.565 145.187 397.713L164.31 494.888C164.347 495.077 164.495 495.229 164.684 495.271C164.749 495.285 164.816 495.285 164.878 495.271C164.998 495.248 165.109 495.179 165.18 495.077L185.75 466.291C185.828 466.18 185.856 466.047 185.833 465.917L167.839 373.22C167.804 373.04 167.67 372.892 167.49 372.846Z" fill="#783961"/>
<path d="M186.913 371.383C186.8 371.29 186.65 371.249 186.507 371.277H186.502L168.335 374.948C168.224 374.971 168.125 375.031 168.053 375.114L149.888 396.749C149.796 396.864 149.761 397.008 149.789 397.15L167.439 486.865C167.476 487.05 167.619 487.197 167.804 487.244C167.873 487.262 167.943 487.262 168.012 487.249C168.123 487.226 168.227 487.166 168.298 487.069L183.91 467.082C183.972 466.999 184.009 466.902 184.014 466.801L187.084 371.773C187.088 371.623 187.026 371.48 186.913 371.383Z" fill="white"/>
<path d="M166.538 393.017L145.58 397.145C145.317 397.195 145.144 397.449 145.197 397.713L164.318 494.888C164.369 495.151 164.625 495.322 164.888 495.271L185.846 491.144C186.109 491.093 186.28 490.839 186.229 490.576L167.108 393.401C167.056 393.137 166.802 392.967 166.538 393.017Z" fill="#8E446F"/>
<path d="M170.203 408.829L148.293 413.153L149.327 418.393L171.237 414.069L170.203 408.829Z" fill="#AD8CAE"/>
<path d="M172.872 422.449L150.959 426.761L153.584 440.1L175.497 435.787L172.872 422.449Z" fill="#AD8CAE"/>
<path d="M188.63 369.499C188.593 369.319 188.459 369.176 188.283 369.125C188.105 369.079 187.916 369.134 187.791 369.268L166.235 393.146C166.133 393.257 166.089 393.414 166.119 393.562L185.24 490.737C185.277 490.927 185.424 491.079 185.614 491.12C185.678 491.134 185.745 491.134 185.808 491.12C185.928 491.097 186.036 491.032 186.111 490.926L206.829 462.112C206.907 462.001 206.937 461.867 206.912 461.733L188.63 369.499Z" fill="#89426C"/>
<path d="M196.363 408.52L191.608 384.517C184.165 392.859 176.331 400.847 169.262 409.54L174.477 436.032C181.723 426.822 189.013 417.648 196.363 408.52Z" fill="#986A87"/>
<path d="M245.68 504.26H243.718L249.023 495.959H250.939L245.68 504.26Z" fill="#D29421"/>
<path d="M244.277 504.26L118.657 504.191L126.829 495.945L249.57 495.959L244.277 504.26Z" fill="#FCBE1F"/>
<path d="M169.798 495.95H159.281L134.987 504.2L145.878 504.205C153.976 501.416 161.949 498.664 169.798 495.95Z" fill="#F7D819"/>
<path d="M200.172 495.954H193.274C185.566 498.669 177.734 501.425 169.774 504.218L176.755 504.223C184.678 501.425 192.483 498.669 200.172 495.954Z" fill="#F7D819"/>
<path d="M248.889 497.025L125.779 497.007L126.829 495.945L249.57 495.959L248.889 497.025Z" fill="#F7D819"/>
<path d="M129.327 496.975L126.171 500.188" stroke="black" stroke-width="4.7276" stroke-miterlimit="10"/>
<path d="M129.327 496.975L126.171 500.188" stroke="black" stroke-width="4.7276" stroke-miterlimit="10"/>
<path d="M131.965 496.975L130.209 498.775" stroke="black" stroke-width="4.7276" stroke-miterlimit="10"/>
<path d="M134.47 496.975L132.725 498.775" stroke="black" stroke-width="4.7276" stroke-miterlimit="10"/>
<path d="M136.972 496.975L135.243 498.775" stroke="black" stroke-width="4.7276" stroke-miterlimit="10"/>
<path d="M139.477 496.975L137.759 498.78" stroke="black" stroke-width="4.7276" stroke-miterlimit="10"/>
<path d="M142.388 496.975L139.35 500.192" stroke="black" stroke-width="4.7276" stroke-miterlimit="10"/>
<path d="M142.388 496.975L139.35 500.192" stroke="black" stroke-width="4.7276" stroke-miterlimit="10"/>
<path d="M145.031 496.975L143.344 498.78" stroke="black" stroke-width="4.7276" stroke-miterlimit="10"/>
<path d="M147.538 496.975L145.862 498.78" stroke="black" stroke-width="4.7276" stroke-miterlimit="10"/>
<path d="M150.045 496.975L148.383 498.78" stroke="black" stroke-width="4.7276" stroke-miterlimit="10"/>
<path d="M152.554 496.975L150.904 498.78" stroke="black" stroke-width="4.7276" stroke-miterlimit="10"/>
<path d="M155.472 496.979L152.549 500.197" stroke="black" stroke-width="4.7276" stroke-miterlimit="10"/>
<path d="M155.472 496.979L152.549 500.197" stroke="black" stroke-width="4.7276" stroke-miterlimit="10"/>
<path d="M158.118 496.979L156.495 498.78" stroke="black" stroke-width="4.7276" stroke-miterlimit="10"/>
<path d="M160.629 496.979L159.018 498.784" stroke="black" stroke-width="4.7276" stroke-miterlimit="10"/>
<path d="M163.141 496.979L161.543 498.784" stroke="black" stroke-width="4.7276" stroke-miterlimit="10"/>
<path d="M165.652 496.979L164.069 498.784" stroke="black" stroke-width="4.7276" stroke-miterlimit="10"/>
<path d="M168.572 496.979L165.772 500.202" stroke="black" stroke-width="4.7276" stroke-miterlimit="10"/>
<path d="M168.572 496.979L165.772 500.202" stroke="black" stroke-width="4.7276" stroke-miterlimit="10"/>
<path d="M171.224 496.979L169.669 498.784" stroke="black" stroke-width="4.7276" stroke-miterlimit="10"/>
<path d="M173.736 496.979L172.194 498.784" stroke="black" stroke-width="4.7276" stroke-miterlimit="10"/>
<path d="M176.252 496.979L174.724 498.789" stroke="black" stroke-width="4.7276" stroke-miterlimit="10"/>
<path d="M178.771 496.979L177.254 498.789" stroke="black" stroke-width="4.7276" stroke-miterlimit="10"/>
<path d="M181.696 496.979L179.013 500.206" stroke="black" stroke-width="4.7276" stroke-miterlimit="10"/>
<path d="M181.696 496.979L179.013 500.206" stroke="black" stroke-width="4.7276" stroke-miterlimit="10"/>
<path d="M184.35 496.979L182.862 498.789" stroke="black" stroke-width="4.7276" stroke-miterlimit="10"/>
<path d="M186.866 496.979L185.394 498.789" stroke="black" stroke-width="4.7276" stroke-miterlimit="10"/>
<path d="M189.387 496.979L187.924 498.789" stroke="black" stroke-width="4.7276" stroke-miterlimit="10"/>
<path d="M191.908 496.984L190.458 498.789" stroke="black" stroke-width="4.7276" stroke-miterlimit="10"/>
<path d="M194.835 496.984L192.278 500.211" stroke="black" stroke-width="4.7276" stroke-miterlimit="10"/>
<path d="M194.835 496.984L192.278 500.211" stroke="black" stroke-width="4.7276" stroke-miterlimit="10"/>
<path d="M197.494 496.984L196.072 498.793" stroke="black" stroke-width="4.7276" stroke-miterlimit="10"/>
<path d="M200.018 496.984L198.609 498.793" stroke="black" stroke-width="4.7276" stroke-miterlimit="10"/>
<path d="M202.541 496.984L201.146 498.793" stroke="black" stroke-width="4.7276" stroke-miterlimit="10"/>
<path d="M205.066 496.984L203.684 498.793" stroke="black" stroke-width="4.7276" stroke-miterlimit="10"/>
<path d="M208 496.984L205.56 500.215" stroke="black" stroke-width="4.7276" stroke-miterlimit="10"/>
<path d="M208 496.984L205.56 500.215" stroke="black" stroke-width="4.7276" stroke-miterlimit="10"/>
<path d="M210.661 496.984L209.309 498.798" stroke="black" stroke-width="4.7276" stroke-miterlimit="10"/>
<path d="M213.187 496.984L211.848 498.798" stroke="black" stroke-width="4.7276" stroke-miterlimit="10"/>
<path d="M215.715 496.988L214.387 498.798" stroke="black" stroke-width="4.7276" stroke-miterlimit="10"/>
<path d="M218.242 496.988L216.927 498.798" stroke="black" stroke-width="4.7276" stroke-miterlimit="10"/>
<path d="M221.181 496.988L218.861 500.22" stroke="black" stroke-width="4.7276" stroke-miterlimit="10"/>
<path d="M221.181 496.988L218.861 500.22" stroke="black" stroke-width="4.7276" stroke-miterlimit="10"/>
<path d="M223.847 496.988L222.564 498.798" stroke="black" stroke-width="4.7276" stroke-miterlimit="10"/>
<path d="M226.377 496.988L225.108 498.798" stroke="black" stroke-width="4.7276" stroke-miterlimit="10"/>
<path d="M228.91 496.988L227.652 498.798" stroke="black" stroke-width="4.7276" stroke-miterlimit="10"/>
<path d="M231.442 496.988L230.196 498.803" stroke="black" stroke-width="4.7276" stroke-miterlimit="10"/>
<path d="M234.383 496.988L232.188 500.225" stroke="black" stroke-width="4.7276" stroke-miterlimit="10"/>
<path d="M234.383 496.988L232.188 500.225" stroke="black" stroke-width="4.7276" stroke-miterlimit="10"/>
<path d="M237.056 496.988L235.837 498.803" stroke="black" stroke-width="4.7276" stroke-miterlimit="10"/>
<path d="M239.588 496.988L238.386 498.803" stroke="black" stroke-width="4.7276" stroke-miterlimit="10"/>
<path d="M242.125 496.988L240.934 498.803" stroke="black" stroke-width="4.7276" stroke-miterlimit="10"/>
<path d="M244.66 496.988L243.483 498.803" stroke="black" stroke-width="4.7276" stroke-miterlimit="10"/>
<path d="M324.864 139.779C325.03 139.696 325.226 139.714 325.376 139.825L351.355 159.488C351.477 159.581 351.549 159.723 351.549 159.876V258.912C351.549 259.106 351.434 259.281 351.256 259.36C351.193 259.383 351.129 259.397 351.065 259.397C350.942 259.397 350.825 259.351 350.73 259.263L324.991 234.992C324.894 234.9 324.836 234.771 324.836 234.641L324.596 140.213C324.596 140.028 324.697 139.862 324.864 139.779Z" fill="#9D3E8E"/>
<path d="M305.524 142.093C305.616 141.982 305.757 141.913 305.905 141.913H305.907L324.444 142.005C324.555 142.005 324.666 142.042 324.751 142.116L346.752 159.836C346.863 159.928 346.928 160.067 346.928 160.21V251.642C346.928 251.836 346.817 252.007 346.644 252.085C346.579 252.117 346.508 252.131 346.441 252.131C346.328 252.131 346.215 252.09 346.125 252.011L326.949 235.413C326.87 235.344 326.817 235.256 326.794 235.154L305.432 142.508C305.399 142.36 305.434 142.212 305.524 142.093Z" fill="white"/>
<path d="M329.693 159.387H351.052C351.323 159.387 351.54 159.608 351.54 159.876V258.912C351.54 259.18 351.323 259.397 351.052 259.397H329.693C329.425 259.397 329.208 259.18 329.208 258.912V159.876C329.208 159.608 329.425 159.387 329.693 159.387Z" fill="#B74698"/>
<path d="M351.54 175.652H329.208V180.994H351.54V175.652Z" fill="#CE9FC8"/>
<path d="M351.54 189.489H329.208V203.081H351.54V189.489Z" fill="#CE9FC8"/>
<path d="M303.478 140.578C303.478 140.394 303.58 140.227 303.746 140.144C303.908 140.061 304.106 140.08 304.254 140.19L330.014 159.456C330.136 159.548 330.208 159.691 330.208 159.844V258.88C330.208 259.074 330.093 259.249 329.915 259.328C329.855 259.356 329.791 259.37 329.721 259.37C329.601 259.37 329.481 259.324 329.393 259.236L303.499 234.961C303.4 234.874 303.344 234.744 303.344 234.605L303.478 140.578Z" fill="#AF4496"/>
<path d="M303.421 180.356L303.456 155.887C312.371 162.637 321.595 168.962 330.208 176.128V203.127C321.323 195.486 312.394 187.892 303.421 180.356Z" fill="#BE78AD"/>
<path d="M299.942 139.779C300.108 139.696 300.305 139.714 300.452 139.825L326.436 159.488C326.558 159.581 326.627 159.723 326.627 159.876V258.912C326.627 259.106 326.514 259.281 326.336 259.36C326.271 259.383 326.207 259.397 326.142 259.397C326.022 259.397 325.902 259.351 325.81 259.263L300.068 234.992C299.971 234.9 299.916 234.771 299.916 234.641L299.674 140.213C299.674 140.028 299.776 139.862 299.942 139.779Z" fill="#007DAB"/>
<path d="M280.602 142.093C280.696 141.982 280.837 141.913 280.982 141.913H280.984L299.521 142.005C299.632 142.005 299.743 142.042 299.826 142.116L321.83 159.836C321.941 159.928 322.005 160.067 322.005 160.21V251.642C322.005 251.836 321.894 252.007 321.721 252.085C321.657 252.117 321.59 252.131 321.52 252.131C321.405 252.131 321.289 252.09 321.202 252.011L302.023 235.413C301.947 235.344 301.894 235.256 301.871 235.154L280.509 142.508C280.477 142.36 280.509 142.212 280.602 142.093Z" fill="white"/>
<path d="M304.771 159.387H326.133C326.401 159.387 326.618 159.608 326.618 159.876V258.912C326.618 259.18 326.401 259.397 326.133 259.397H304.771C304.503 259.397 304.286 259.18 304.286 258.912V159.876C304.286 159.608 304.503 159.387 304.771 159.387Z" fill="#008FC8"/>
<path d="M326.618 175.652H304.286V180.994H326.618V175.652Z" fill="#82CBE5"/>
<path d="M326.618 189.489H304.286V203.081H326.618V189.489Z" fill="#82CBE5"/>
<path d="M278.557 140.578C278.557 140.394 278.661 140.227 278.825 140.144C278.987 140.061 279.185 140.08 279.333 140.19L305.095 159.456C305.215 159.548 305.289 159.691 305.289 159.844V258.88C305.289 259.074 305.173 259.249 304.995 259.328C304.933 259.356 304.868 259.37 304.801 259.37C304.681 259.37 304.561 259.324 304.469 259.236L278.578 234.961C278.481 234.874 278.423 234.744 278.423 234.605L278.557 140.578Z" fill="#008BC1"/>
<path d="M278.501 180.356L278.534 155.887C287.449 162.637 296.674 168.962 305.289 176.128V203.127C296.401 195.486 287.474 187.892 278.501 180.356Z" fill="#4BA0CB"/>
<path d="M275.348 139.779C275.51 139.696 275.708 139.714 275.856 139.825L301.84 159.488C301.96 159.581 302.029 159.723 302.029 159.876V258.912C302.029 259.106 301.916 259.281 301.738 259.36C301.676 259.383 301.608 259.397 301.544 259.397C301.424 259.397 301.304 259.351 301.211 259.263L275.472 234.992C275.375 234.9 275.32 234.771 275.32 234.641L275.075 140.213C275.076 140.028 275.182 139.862 275.348 139.779Z" fill="#4B70A3"/>
<path d="M256.008 142.093C256.101 141.982 256.239 141.913 256.387 141.913H256.389L274.926 142.005C275.037 142.005 275.145 142.042 275.233 142.116L297.233 159.836C297.344 159.928 297.408 160.067 297.408 160.21V251.642C297.408 251.836 297.297 252.007 297.126 252.085C297.061 252.117 296.992 252.131 296.923 252.131C296.808 252.131 296.697 252.09 296.604 252.011L277.431 235.413C277.353 235.344 277.297 235.256 277.274 235.154L255.912 142.508C255.879 142.36 255.916 142.212 256.008 142.093Z" fill="white"/>
<path d="M280.175 159.387H301.535C301.803 159.387 302.019 159.608 302.019 159.876V258.912C302.019 259.18 301.802 259.397 301.535 259.397H280.175C279.905 259.397 279.688 259.18 279.688 258.912V159.876C279.688 159.608 279.905 159.387 280.175 159.387Z" fill="#547BB6"/>
<path d="M302.019 175.652H279.688V180.994H302.019V175.652Z" fill="#BDCAD7"/>
<path d="M302.019 189.489H279.688V203.081H302.019V189.489Z" fill="#BDCAD7"/>
<path d="M253.958 140.578C253.958 140.394 254.064 140.227 254.226 140.144C254.39 140.061 254.586 140.08 254.734 140.19L280.496 159.456C280.618 159.548 280.69 159.691 280.69 159.844V258.88C280.69 259.074 280.575 259.249 280.399 259.328C280.334 259.356 280.27 259.37 280.205 259.37C280.085 259.37 279.965 259.324 279.873 259.236L253.979 234.961C253.884 234.874 253.827 234.744 253.827 234.605L253.958 140.578Z" fill="#5179B3"/>
<path d="M253.903 180.356L253.938 155.887C262.851 162.637 272.078 168.962 280.69 176.128V203.127C271.802 195.486 262.878 187.892 253.903 180.356Z" fill="#8A9FC5"/>
<path d="M251.659 139.756C251.834 139.71 252.026 139.765 252.148 139.904L273.847 164.212C273.948 164.323 273.99 164.479 273.962 164.627L254.839 261.802C254.804 261.992 254.654 262.139 254.465 262.181C254.4 262.195 254.333 262.195 254.271 262.186C254.151 262.158 254.043 262.094 253.969 261.988L233.398 233.202C233.32 233.096 233.292 232.962 233.317 232.828L251.311 140.136C251.345 139.95 251.479 139.807 251.659 139.756Z" fill="#7F4D8F"/>
<path d="M232.236 138.297C232.349 138.2 232.499 138.163 232.642 138.191H232.647L250.814 141.861C250.925 141.879 251.024 141.939 251.096 142.027L269.263 163.662C269.353 163.773 269.39 163.92 269.36 164.063L251.71 253.777C251.673 253.961 251.53 254.109 251.345 254.156C251.276 254.17 251.207 254.17 251.139 254.16C251.026 254.137 250.924 254.073 250.851 253.98L235.239 233.994C235.177 233.911 235.14 233.814 235.135 233.708L232.065 138.68C232.061 138.533 232.123 138.39 232.236 138.297Z" fill="white"/>
<path d="M252.61 159.932L273.57 164.055C273.83 164.106 274.004 164.364 273.95 164.623L254.83 261.798C254.779 262.061 254.523 262.232 254.262 262.181L233.301 258.059C233.038 258.008 232.867 257.754 232.918 257.486L252.037 160.315C252.093 160.052 252.347 159.881 252.61 159.932Z" fill="#97559E"/>
<path d="M249.023 175.76L247.989 181L269.899 185.323L270.933 180.083L249.023 175.76Z" fill="#B2A1C8"/>
<path d="M246.349 189.336L243.724 202.673L265.637 206.986L268.262 193.648L246.349 189.336Z" fill="#B2A1C8"/>
<path d="M230.519 136.409C230.556 136.229 230.69 136.086 230.868 136.035C231.043 135.989 231.233 136.045 231.355 136.178L252.913 160.061C253.017 160.172 253.059 160.329 253.029 160.477L233.908 257.652C233.871 257.842 233.726 257.994 233.536 258.031C233.469 258.045 233.4 258.049 233.34 258.036C233.22 258.013 233.112 257.943 233.04 257.842L212.32 229.028C212.242 228.917 212.209 228.779 212.237 228.649L230.519 136.409Z" fill="#91539C"/>
<path d="M222.785 175.43L227.542 151.432C234.987 159.775 242.817 167.762 249.885 176.455L244.671 202.946C237.427 193.736 230.136 184.558 222.785 175.43Z" fill="#A27CAC"/>
<path d="M218.316 223.51C216.698 237.319 208.692 255.353 190.578 255.353C173.283 255.353 164.456 237.319 162.84 223.51C161.009 207.882 173.694 197.864 190.947 197.864C208.2 197.864 220.147 207.882 218.316 223.51Z" fill="#E1635C"/>
<path d="M204.318 200.255C207.499 206.82 208.33 214.401 207.285 221.635C206.221 229.018 203.603 236.875 197.204 241.308C187.724 247.887 175.062 245.311 166.92 237.928C171.299 247.351 179.06 255.352 190.579 255.352C208.693 255.352 216.699 237.318 218.317 223.509C219.618 212.379 213.93 204.101 204.318 200.255Z" fill="#E05458"/>
<path d="M210.417 203.718C217.629 217.892 211.712 235.14 206.783 240.071C195.241 251.613 184.355 250.177 171.905 245.999C176.406 251.502 182.586 255.353 190.578 255.353C208.692 255.353 216.698 237.319 218.316 223.51C219.462 213.713 216.087 208.833 210.417 203.718Z" fill="#CB454F"/>
<path d="M180.689 211.359C191.405 212.915 195.897 208.958 198.648 208.511C201.226 208.091 203.459 208.276 201.529 211.129C200.098 213.239 196.885 214.855 194.521 215.616C189.105 217.366 182.52 218.663 177.201 216.733C168.766 213.672 167.194 209.974 168.579 208.307C171.723 204.798 174.96 210.527 180.689 211.359Z" fill="#E97C6E"/>
<path d="M178.007 241.447C176.673 238.76 175.962 235.935 175.368 232.98C174.493 228.598 176.746 219.623 170.975 218.206C168.284 217.55 167.042 217.329 166.728 220.459C166.104 226.655 168.621 233.862 171.497 239.314C172.305 240.847 176.594 249.356 179.45 247.006C180.874 245.832 178.542 242.522 178.007 241.447Z" fill="#E97C6E"/>
<path d="M192.979 203.039C192.979 203.856 190.788 204.521 188.081 204.521C185.375 204.521 183.185 203.856 183.185 203.039C183.185 202.222 185.376 201.562 188.081 201.562C190.788 201.562 192.979 202.222 192.979 203.039Z" fill="#CD5A54"/>
<path d="M184.26 192.6C181.153 186.441 175.714 181.612 168.666 180.744C166.542 180.485 163.703 180.403 161.639 181.049C162.851 184.622 165.295 190.583 168.116 193.15C174.217 198.695 179.095 201.04 186.41 198.372C186.931 198.182 185.544 195.149 184.26 192.6Z" fill="#609A33"/>
<path d="M175.241 189.202C170.576 187.106 165.368 184.474 161.64 181.049C162.725 185.079 165.513 190.781 168.117 193.15C173.99 198.491 178.733 200.86 185.61 198.648C183.63 194.359 179.807 191.252 175.241 189.202Z" fill="#4D8129"/>
<path d="M189.284 204.152C189.284 204.152 185.219 198.51 192.379 186.714L188.404 185.62C188.404 185.62 181.89 194.909 187.25 204.891L189.284 204.152Z" fill="#95525A"/>
<path d="M182.813 203.039C182.813 203.039 182.857 203.057 182.938 203.094C183.014 203.131 183.136 203.172 183.279 203.237C183.432 203.288 183.602 203.362 183.808 203.427C184.008 203.501 184.244 203.561 184.489 203.63C184.609 203.671 184.743 203.69 184.874 203.722C185.01 203.754 185.14 203.796 185.287 203.814C185.428 203.837 185.573 203.865 185.721 203.892C185.869 203.91 186.019 203.929 186.173 203.947C186.476 204.003 186.797 203.989 187.117 204.021C187.276 204.035 187.44 204.012 187.604 204.021C187.766 204.016 187.929 204.03 188.093 204.012L188.587 203.975C188.749 203.961 188.915 203.961 189.076 203.929C189.395 203.869 189.722 203.86 190.031 203.79C190.341 203.721 190.647 203.67 190.941 203.624C191.227 203.546 191.5 203.486 191.759 203.43C191.893 203.402 192.018 203.379 192.138 203.356C192.253 203.324 192.366 203.292 192.47 203.264C192.68 203.209 192.871 203.167 193.028 203.135C193.342 203.065 193.532 203.038 193.532 203.038C193.532 203.038 193.407 203.176 193.165 203.394C193.043 203.5 192.895 203.638 192.717 203.777C192.627 203.847 192.535 203.925 192.433 204.004C192.327 204.073 192.211 204.142 192.096 204.221C191.856 204.364 191.592 204.517 191.309 204.673C191.014 204.802 190.697 204.931 190.365 205.056C190.201 205.13 190.023 205.171 189.845 205.218C189.665 205.26 189.482 205.305 189.3 205.343C188.933 205.44 188.545 205.444 188.162 205.49C187.774 205.499 187.384 205.485 187.008 205.453C186.629 205.388 186.253 205.347 185.905 205.226C185.734 205.171 185.559 205.129 185.397 205.065C185.235 204.995 185.078 204.931 184.926 204.862C184.626 204.724 184.358 204.557 184.121 204.4C183.886 204.234 183.68 204.068 183.513 203.906C183.338 203.759 183.213 203.592 183.102 203.468C182.896 203.21 182.813 203.039 182.813 203.039Z" fill="#8E3B36"/>
<path d="M192.37 186.742C192.282 187.065 191.317 187.074 190.218 186.769C189.115 186.465 188.293 185.957 188.383 185.638C188.473 185.315 189.436 185.306 190.537 185.61C191.64 185.915 192.46 186.423 192.37 186.742Z" fill="#93676E"/>
</svg>
