<svg width="583" height="634" viewBox="0 0 583 634" fill="none" xmlns="http://www.w3.org/2000/svg">
<path d="M225.286 450.067H203.974V601.356H225.286V450.067Z" fill="#46230F"/>
<path d="M349.406 446.872H328.097V598.161H349.406V446.872Z" fill="#46230F"/>
<path d="M70.616 325.878H49.3101V530.441H70.616V325.878Z" fill="#8A533A"/>
<path d="M136.675 251.299H115.368V455.862H136.675V251.299Z" fill="#6C3F2A"/>
<path d="M515.97 325.878H494.661V530.441H515.97V325.878Z" fill="#8A533A"/>
<path d="M449.912 251.299H428.606V455.862H449.912V251.299Z" fill="#6C3F2A"/>
<path d="M567.111 274.738H8.82507V357.841H567.111V274.738Z" fill="#A16245"/>
<path d="M582.028 270.477H0.296997L79.144 138.362H503.186L582.028 270.477Z" fill="#8A533A"/>
<path d="M581.996 270.408H0V279.401H581.996V270.408Z" fill="#73442D"/>
<path d="M403.754 266.303C398.514 269.789 401.642 264.475 391.62 264.433C383.225 264.4 377.449 264.493 377.449 264.498C378.278 243.528 376.325 214.022 368.317 201.45C359.344 187.364 382.064 195.582 382.064 195.582C394.114 213.177 407.212 244.286 403.754 266.303Z" fill="#EFA797"/>
<path d="M373.439 210.702C373.439 210.702 355.521 212.743 353.758 194.899C353.758 194.899 357.71 193.2 363.423 198.634C367.497 202.507 370.766 205.906 372.371 208.311C373.015 209.281 373.391 210.089 373.439 210.702Z" fill="#EFA797"/>
<path d="M384.732 200.522C384.127 196.325 382.447 192.138 380.051 188.546C376.934 183.883 372.216 177.396 364.436 177.77C361.745 177.904 359.138 178.407 356.652 179.437C354.002 180.526 351.319 182.369 351.714 184.612C352.335 188.148 354.967 190.983 357.354 193.753C359.667 196.435 360.618 199.824 362.853 202.613C365.173 205.508 372.661 207.664 373.915 207.272C375.169 206.88 384.732 200.522 384.732 200.522Z" fill="#EFA797"/>
<path d="M107.69 248.902C112.928 252.388 108.456 242.734 118.478 242.697C126.873 242.66 132.649 242.752 132.649 242.757C131.82 221.788 133.776 192.281 141.781 179.71C150.754 165.624 128.034 173.842 128.034 173.842C115.984 191.432 98.4421 234.659 107.69 248.902Z" fill="#EFA797"/>
<path d="M136.656 188.962C136.656 188.962 154.574 191.003 156.342 173.158C156.342 173.158 152.39 171.46 146.675 176.893C142.598 180.766 139.33 184.165 137.727 186.57C137.08 187.54 136.706 188.348 136.656 188.962Z" fill="#EFA797"/>
<path d="M125.363 178.782C125.968 174.585 127.648 170.398 130.049 166.806C133.165 162.143 137.879 155.656 145.664 156.03C148.355 156.164 150.959 156.667 153.446 157.692C156.098 158.786 158.778 160.628 158.384 162.872C157.763 166.408 155.134 169.243 152.747 172.013C150.432 174.7 149.481 178.079 147.243 180.873C144.926 183.768 137.437 185.923 136.184 185.531C134.929 185.139 125.363 178.782 125.363 178.782Z" fill="#EFA797"/>
<path d="M257.513 626.13C257.913 619.26 263.536 586.873 247.659 589.699C241.941 590.715 238.924 595.627 238.601 601.148C238.218 607.685 239.146 612.192 244.723 616.347C248.878 619.44 254.88 623.582 258.045 618.138" fill="#885239"/>
<path d="M260.354 485.893C260.354 485.893 265.022 491.267 254.999 598.959C253.626 613.71 237.91 603.798 237.91 603.798C237.91 603.798 222.577 507.713 223.235 492.361C223.893 477.011 260.354 485.893 260.354 485.893Z" fill="#EFA797"/>
<path d="M224.893 512.643C229.515 550.501 237.91 603.798 237.91 603.798C237.91 603.798 253.388 613.687 254.999 598.959C257.238 578.507 261.04 534.24 260.925 510.907C249.022 514.527 237.778 514.786 224.893 512.643Z" fill="white"/>
<path d="M260.562 527.556C260.737 525.086 260.77 522.491 260.913 520.137C250.41 525.137 237.506 525.262 226.007 522.533C226.45 526.25 226.584 527.372 227.058 529.814C237.827 531.891 250.544 531.739 260.562 527.556Z" fill="#061340"/>
<path d="M260.95 517.2C261.015 516.078 261.091 511.142 261.144 510.044C249.242 513.659 237.695 513.96 224.81 511.817C225.179 515.912 225.35 516.799 225.581 519.273C237.379 522.658 248.545 521.697 260.95 517.2Z" fill="#061340"/>
<path d="M237.603 602.556C237.603 602.556 234.805 613.078 236.204 623.465C237.603 633.853 253.849 630.312 256.581 626.859C257.846 625.261 259.575 616.342 254.783 601.157C254.783 601.157 247.1 605.793 237.603 602.556Z" fill="#6C3F2A"/>
<path d="M324.635 622.667C325.034 615.802 330.658 583.41 314.78 586.235C309.062 587.251 306.048 592.163 305.724 597.685C305.341 604.222 306.264 608.729 311.846 612.884C316.001 615.977 322.003 620.118 325.166 614.675" fill="#885239"/>
<path d="M327.479 482.431C327.479 482.431 332.142 487.805 322.121 595.497C320.747 610.248 305.032 600.336 305.032 600.336C305.032 600.336 289.7 504.25 290.357 488.895C291.015 473.548 327.479 482.431 327.479 482.431Z" fill="#EFA797"/>
<path d="M292.017 509.181C296.638 547.039 305.032 600.336 305.032 600.336C305.032 600.336 320.51 610.225 322.121 595.497C324.358 575.045 328.162 530.774 328.047 507.445C316.144 511.064 304.898 511.323 292.017 509.181Z" fill="white"/>
<path d="M327.684 524.093C327.859 521.623 327.89 519.028 328.037 516.674C317.529 521.674 304.63 521.799 293.129 519.07C293.572 522.786 293.706 523.908 294.182 526.351C304.948 528.429 317.668 528.276 327.684 524.093Z" fill="#061340"/>
<path d="M328.074 513.738C328.136 512.616 328.213 507.681 328.268 506.582C316.366 510.197 304.817 510.497 291.931 508.355C292.303 512.45 292.474 513.336 292.702 515.811C304.501 519.195 315.666 518.234 328.074 513.738Z" fill="#061340"/>
<path d="M224.939 498.645C224.939 498.645 218.623 439.462 220.07 407.015L270.719 415.764C270.719 415.764 263.593 472.196 264.722 500.977C264.722 500.977 240.738 521.222 224.939 498.645Z" fill="#EFA797"/>
<path d="M328.864 488.516C328.864 488.516 327.761 414.167 324.003 381.904L274.82 392.218C274.82 392.218 290.42 471.77 291.353 500.561C291.353 500.561 314.718 512.164 328.864 488.516Z" fill="#EFA797"/>
<path d="M320.553 346.207C327.442 291.945 340.669 227.139 329.611 219.119C317.446 210.292 299.403 206.326 281.181 205.998C263.676 205.684 242.206 207.628 224.752 213.653C214.108 217.323 222.653 288.386 225.567 346.207H320.553Z" fill="#EFA797"/>
<path d="M268.57 153.528C278.397 147.106 296.615 157.48 296.615 157.48L297.012 210.02C297.012 210.02 262.058 217.079 262.432 209.475C263.28 192.263 261.788 157.96 268.57 153.528Z" fill="#EFA797"/>
<path d="M282.321 193.943C288.406 197.101 293.457 202.267 296.922 208.149C296.948 208.195 296.97 208.251 296.998 208.297L296.615 157.479C296.615 157.479 278.397 147.105 268.57 153.527C265.23 155.711 262.937 174.93 262.82 193.001C269.136 192.319 276.158 190.748 282.321 193.943Z" fill="#E09A8B"/>
<path d="M345.196 38.4388C339.894 24.2378 327.901 9.7128 312.345 4.4078C302.183 0.940799 291.278 -0.343194 280.457 0.0768058C269.635 -0.343194 258.726 0.939799 248.564 4.4078C233.008 9.7128 221.015 24.2368 215.715 38.4388C207.26 61.0898 203.086 75.6688 203.942 99.5798C205.131 132.766 215.696 170.878 251.389 181.575C259.939 184.137 269.926 185.518 278.868 185.195C279.397 185.177 279.926 185.135 280.457 185.103C280.983 185.135 281.514 185.177 282.043 185.195C290.984 185.518 300.97 184.138 309.52 181.575C345.213 170.878 355.781 132.766 356.97 99.5798C357.825 75.6688 353.652 61.0898 345.196 38.4388Z" fill="#420025"/>
<path d="M118.022 238.15C115.822 235.616 120.268 234.277 119.4 225.588C118.723 218.806 130.882 222.158 134.592 220.523C184.477 211.206 246.095 208.468 254.018 220.066C266.987 239.046 240.087 236.17 240.087 236.17C240.087 236.17 172.631 248.861 139.68 251.452C133.605 251.932 116.578 255.723 107.94 249.651C107.935 249.65 109.313 237.226 118.022 238.15Z" fill="#EFA797"/>
<path d="M254.565 218.496C247.764 208.542 202.12 201.704 156.587 211.284C151.467 221.566 154.066 243.316 160.784 253.75C194.069 251.156 235.18 250.985 235.18 250.985C235.18 250.985 267.534 237.476 254.565 218.496Z" fill="white"/>
<path d="M331.632 356.16C334.397 329.678 345.13 287.596 343.555 276.062C340.981 257.193 343.619 227.516 328.896 213.596C325.623 210.503 298.457 205.835 298.651 207.507C298.722 208.107 298.789 208.518 298.854 208.8C298.713 209.035 298.522 209.493 298.268 210.319C294.501 222.567 280.491 224.428 270.899 220.758C264.636 218.366 260.137 214.211 261.778 206.284C256.005 207.701 250.497 206.575 244.73 206.875C239.095 207.166 233.086 207.807 227.689 209.506C215.789 213.25 219.822 232.766 216.872 241.967C210.344 262.323 221.131 320.767 223.345 355.721C223.345 355.721 246.988 364.018 276.884 363.764C306.781 363.511 331.632 356.16 331.632 356.16Z" fill="white"/>
<path d="M381.145 321.955C384.22 321.812 385.116 322.255 391.141 316.978C395.85 312.855 399.98 311.337 398.498 307.564C371.801 258.792 336.704 221.1 324.086 223.298C303.435 226.89 316.468 247.846 316.468 247.846C316.468 247.846 340.231 281.586 361.457 306.507C367.604 313.723 373.583 322.167 379.719 328.94C379.719 328.94 384.513 324.743 381.145 321.955Z" fill="#EFA797"/>
<path d="M321.546 211.026C333.552 209.922 367.91 240.74 389.55 281.932C384.889 292.426 366.477 304.287 354.15 305.759C334.939 278.455 312.915 248.7 312.915 248.7C312.915 248.7 298.656 213.131 321.546 211.026Z" fill="white"/>
<path d="M311.892 206.252C311.892 206.252 309.916 195.532 296.938 195.246C296.938 195.246 296.269 209.013 279.353 208.612C262.441 208.21 262.751 194.65 262.751 194.65C249.771 194.932 247.797 205.652 247.797 205.652C242.229 217.799 257.912 233.118 280.687 232.051C303.46 230.984 317.737 219.004 311.892 206.252Z" fill="#E6E7E8"/>
<path d="M304.725 599.094C304.725 599.094 301.929 609.616 303.326 620.003C304.725 630.391 320.971 626.845 323.702 623.401C324.967 621.799 326.698 612.879 321.906 597.694C321.906 597.694 314.222 602.33 304.725 599.094Z" fill="#6C3F2A"/>
<path d="M251.246 183.449C254.856 184.506 258.545 185.365 262.252 186.062C286.43 190.6 307.395 185.665 329.056 174.442C337.202 170.218 345.212 166.362 350.692 158.532C358.605 147.23 361.985 133.67 364.796 120.198C368.393 102.954 369.722 82.5888 363.914 65.6498C355.636 41.5178 340.908 20.3308 317.21 10.4878C290.063 -0.7862 255.825 0.639751 230.859 17.0758C177.316 52.3308 189.505 165.393 251.246 183.449Z" fill="#420025"/>
<path d="M321.594 83.3887C335.341 81.6017 351.218 78.3057 365.826 72.4747C365.3 70.1567 364.676 67.8717 363.915 65.6507C362.535 61.6247 360.953 57.6907 359.201 53.8637C344.289 58.5547 328.591 60.8907 315.131 61.7627C277.081 64.2237 242.534 56.5877 213.651 33.8777C208.85 40.6277 205.14 48.3197 202.432 56.5647C238.902 78.2267 278.226 89.0257 321.594 83.3887Z" fill="#561337"/>
<path d="M274.291 40.8676C277.938 38.7486 281.565 36.7256 285.189 34.8196C285.761 34.2886 286.361 33.7896 287.036 33.3696L274.291 40.8676Z" fill="#420025"/>
<path d="M492.831 115.319C476.178 117.156 461.076 129.28 443.867 120.176C419.779 107.434 419.317 73.7347 406.097 52.9547C395.111 35.6917 373.606 26.5327 354.374 22.1837C328.603 16.3527 306.911 23.3747 285.189 34.8197C275.295 43.9567 279.838 68.5827 284.563 79.1547C291.44 94.5477 312.543 111.445 329.035 115.287C335.93 116.894 343.527 115.006 349.84 119.041C357.068 123.658 358.767 133.311 360.669 141.303C365.041 159.692 366.957 173.362 380.761 187.093C389.807 196.096 397.372 197.384 408.481 190.819C419.616 184.235 426.186 174.965 438.71 184.933C447.485 191.918 457.055 199.485 468.242 192.13C483.11 182.352 497.679 162.846 504.241 146.234C509.119 133.888 513.429 113.047 492.831 115.319Z" fill="#420025"/>
<path d="M274.291 40.8676C277.938 38.7486 281.565 36.7256 285.189 34.8196C285.761 34.2886 286.361 33.7896 287.036 33.3696L274.291 40.8676Z" fill="#561337"/>
<path d="M406.097 52.9547C404.772 50.8717 403.285 48.9107 401.676 47.0587C400.208 46.6567 398.867 47.0037 397.84 48.6237C395.744 51.9297 394.234 55.4986 392.512 59.0026C388.893 66.3756 384.721 73.0146 377.228 76.8696C365.859 82.7146 343.906 63.9517 337.89 76.2977C332.719 86.9167 336.154 99.9177 336.426 111.21C336.452 112.35 335.895 113.089 335.152 113.519C336.514 113.145 338.019 113.667 338.321 115.458C338.365 115.702 338.411 115.947 338.453 116.192C342.416 116.391 346.327 116.797 349.84 119.041C351.528 120.121 352.892 121.492 354.049 123.034C355.173 107.305 360 89.0216 379.137 95.6426C381.898 96.5936 384.275 98.3986 386.898 99.6356C395.675 103.773 400.756 95.6236 402.48 89.3076C403.948 83.9286 404.368 78.1947 406.146 72.9177C407.448 69.0577 409.179 65.9047 411.363 63.2587C409.811 59.6117 408.112 56.1217 406.097 52.9547Z" fill="#561337"/>
<path d="M225.013 354.48C197.857 387.61 176.878 469.675 174.018 480.196C173.983 476.71 177.908 506.369 278.92 511.364C372.087 507.01 389.71 464.942 389.562 467.823C389.17 468.04 352.401 396.257 330.642 354.904C295.673 362.633 259.902 362.486 225.013 354.48Z" fill="#288FC9"/>
<path d="M225.013 354.48C197.857 387.61 176.878 469.675 174.018 480.196C173.983 476.71 177.908 506.369 278.92 511.364C372.087 507.01 389.71 464.942 389.562 467.823C389.17 468.04 352.401 396.257 330.642 354.904C295.673 362.633 259.902 362.486 225.013 354.48Z" fill="#288FC9"/>
<path d="M389.478 467.712C389.511 467.758 389.554 467.827 389.561 467.823C389.571 467.708 389.533 467.689 389.478 467.712Z" fill="#2B6E91"/>
<path d="M174.017 480.197C174.035 480.123 174.066 480.012 174.089 479.929C174.031 479.892 174.013 479.97 174.017 480.197Z" fill="#2B6E91"/>
<path d="M367.271 488.137C383.526 477.823 388.82 467.994 389.478 467.712C389.282 467.435 388.628 466.262 387.583 464.305C319.227 485.51 246.624 485.736 178.175 464.974C176.125 472.245 174.728 477.564 174.089 479.928C174.232 480.03 174.666 480.93 175.774 482.366C238.189 501.776 304.155 503.728 367.271 488.137Z" fill="#2B6E91"/>
<path d="M379.811 449.494C377.376 444.817 374.585 439.439 371.566 433.608C311.289 449.287 248.271 448.931 188.118 432.56C186.177 438.391 184.395 444.005 182.807 449.213C247.293 467.832 315.286 467.929 379.811 449.494Z" fill="#2B6E91"/>
<path d="M363.698 418.432C360.96 413.141 358.13 407.679 355.275 402.171C303.993 412.984 251.112 412.356 200.013 400.306C197.755 405.786 195.613 411.35 193.591 416.871C249.468 431.138 307.656 431.664 363.698 418.432Z" fill="#2B6E91"/>
<path d="M347.216 386.646C344.257 380.953 341.348 375.362 338.552 370.011C297.758 376.6 256.193 376.022 215.527 368.321C212.538 373.381 209.654 378.912 206.891 384.729C253.166 394.679 300.771 395.325 347.216 386.646Z" fill="#2B6E91"/>
<path d="M202.626 394.138C197.252 423.487 188.021 453.215 178.967 485.815C182.466 489.052 188.434 493.225 198.529 497.293C209.399 445.593 220.115 402.523 221.865 358.598C214.929 368.164 208.447 380.708 202.626 394.138Z" fill="#2B6E91"/>
<path d="M244.588 358.04C243.674 403.728 237.593 449.13 230.963 506.19C237.496 507.386 244.758 508.457 252.875 509.343C256.097 451.139 258.974 405.372 259.459 359.725C254.491 359.319 249.535 358.756 244.588 358.04Z" fill="#2B6E91"/>
<path d="M282.153 360.491C282.494 406.239 284.422 452.223 286.585 510.898C294.519 510.33 301.846 509.467 308.647 508.396C303.037 450.903 297.931 405.358 297.061 359.799C292.095 360.182 287.125 360.417 282.153 360.491Z" fill="#2B6E91"/>
<path d="M330.641 354.905C326.996 355.713 323.337 356.382 319.676 357.015C321.089 402.135 331.121 446.42 341.416 500.386C349.424 497.597 356.162 494.504 361.827 491.365C349.888 444.624 337.663 404.259 334.915 363.054C333.439 360.233 332.012 357.509 330.641 354.905Z" fill="#2B6E91"/>
<path d="M389.478 467.712C389.511 467.758 389.554 467.827 389.561 467.823C389.571 467.708 389.533 467.689 389.478 467.712Z" fill="#2B6E91"/>
<path d="M389.478 467.712C389.208 467.333 388.061 465.224 386.228 461.757C387.078 464.014 387.927 466.281 388.772 468.553C389.146 468.049 389.372 467.759 389.478 467.712Z" fill="#2B6E91"/>
<path d="M192.94 329.549H169.223V449.508H192.94V329.549Z" fill="#57301C"/>
<path d="M386.316 328.482H362.599V448.442H386.316V328.482Z" fill="#57301C"/>
<path d="M394.686 443.673H159.225V483.096H394.686V443.673Z" fill="#6C3F2A"/>
<path d="M407.08 251.765H141.254V359.914H407.08V251.765Z" fill="#6C3F2A"/>
<path d="M189.057 480.963H167.75V632.256H189.057V480.963Z" fill="#57301C"/>
<path d="M385.099 482.029H363.79V633.318H385.099V482.029Z" fill="#57301C"/>
</svg>
