<svg width="639" height="663" viewBox="0 0 639 663" fill="none" xmlns="http://www.w3.org/2000/svg">
<path d="M592.529 254.919H571.903V452.93H592.529V254.919Z" fill="#6C3F2A"/>
<path d="M625.779 186.206L547.995 292.8L548.95 385.192L625.779 250.634V186.206Z" fill="#824E35"/>
<path d="M207.905 254.919H187.277V452.93H207.905V254.919Z" fill="#6C3F2A"/>
<path d="M499.445 354.255H478.819V552.262H499.445V354.255Z" fill="#8A533A"/>
<path d="M79.4449 354.255H58.819V552.262H79.4449V354.255Z" fill="#8A533A"/>
<path d="M8.54102 304.748H548.95V385.192H8.54102" fill="#A16245"/>
<path d="M0.289917 300.626L152.798 170.671L638.866 169.217L563.388 300.626H0.289917Z" fill="#8A533A"/>
<path d="M0 300.561H563.355V309.259H0" fill="#73442D"/>
<path d="M563.263 300.981V308.885L563.355 309.263L638.866 177.938V169.217L563.263 300.981Z" fill="#5F3621"/>
<path d="M231.727 472.242H209.657V628.938H231.727V472.242Z" fill="#46230F"/>
<path d="M360.283 468.932H338.215V625.628H360.283V468.932Z" fill="#46230F"/>
<path d="M416.572 281.913C411.142 285.523 414.386 280.021 404.009 279.979C395.309 279.946 389.33 280.038 389.33 280.038C390.186 258.325 388.164 227.767 379.87 214.743C370.576 200.154 394.106 208.668 394.106 208.668C406.588 226.885 420.155 259.111 416.572 281.913Z" fill="#EFA797"/>
<path d="M385.177 224.328C385.177 224.328 366.62 226.443 364.789 207.961C364.789 207.961 368.885 206.202 374.803 211.83C379.023 215.842 382.407 219.356 384.069 221.849C384.739 222.855 385.127 223.69 385.177 224.328Z" fill="#EFA797"/>
<path d="M396.872 213.783C396.247 209.439 394.506 205.099 392.024 201.382C388.795 196.548 383.91 189.831 375.851 190.218C373.062 190.356 370.364 190.878 367.79 191.945C365.043 193.076 362.266 194.983 362.675 197.3C363.317 200.971 366.043 203.902 368.515 206.774C370.911 209.553 371.9 213.057 374.212 215.952C376.613 218.948 384.369 221.178 385.668 220.772C386.967 220.366 396.872 213.783 396.872 213.783Z" fill="#EFA797"/>
<path d="M158.846 282.526C164.276 286.132 159.643 276.137 170.024 276.095C178.72 276.062 184.699 276.155 184.699 276.16C183.842 254.442 185.865 223.883 194.159 210.864C203.453 196.275 179.923 204.784 179.923 204.784C167.441 223.006 149.271 267.771 158.846 282.526Z" fill="#EFA797"/>
<path d="M188.851 220.444C188.851 220.444 207.408 222.559 209.239 204.077C209.239 204.077 205.144 202.318 199.225 207.946C195.006 211.958 191.621 215.472 189.959 217.965C189.292 218.971 188.902 219.807 188.851 220.444Z" fill="#EFA797"/>
<path d="M177.157 209.9C177.785 205.556 179.523 201.216 182.007 197.499C185.235 192.665 190.119 185.946 198.178 186.339C200.966 186.473 203.665 186.996 206.239 188.062C208.986 189.193 211.761 191.1 211.355 193.422C210.713 197.088 207.987 200.019 205.514 202.886C203.118 205.67 202.13 209.173 199.817 212.068C197.416 215.064 189.66 217.295 188.363 216.894C187.062 216.488 177.157 209.9 177.157 209.9Z" fill="#EFA797"/>
<path d="M265.108 636.754C265.521 630.304 271.345 599.879 254.9 602.534C248.981 603.485 245.856 608.102 245.521 613.291C245.124 619.431 246.082 623.665 251.862 627.566C256.165 630.47 262.379 634.362 265.66 629.247" fill="#885239"/>
<path d="M244.487 614.612C244.487 614.612 241.59 624.497 243.039 634.252C244.487 644.012 261.315 640.683 264.143 637.442C265.454 635.941 267.245 627.562 262.28 613.296C262.28 613.296 254.322 617.654 244.487 614.612Z" fill="#6C3F2A"/>
<path d="M334.628 633.504C335.041 627.054 340.865 596.629 324.42 599.279C318.501 600.235 315.376 604.847 315.041 610.036C314.646 616.177 315.602 620.41 321.382 624.312C325.685 627.221 331.899 631.107 335.18 625.996" fill="#885239"/>
<path d="M314.007 611.357C314.007 611.357 311.11 621.242 312.56 631.002C314.007 640.757 330.833 637.433 333.664 634.192C334.975 632.687 336.766 624.307 331.801 610.046C331.801 610.046 323.843 614.399 314.007 611.357Z" fill="#6C3F2A"/>
<path d="M314.007 611.357C314.007 611.357 311.11 621.242 312.56 631.002C314.007 640.757 330.833 637.433 333.664 634.192C334.975 632.687 336.766 624.307 331.801 610.046C331.801 610.046 323.843 614.399 314.007 611.357Z" fill="#6C3F2A"/>
<path d="M275.126 470.589C275.126 470.589 282.656 510.34 261.924 613.374C259.246 626.675 244.424 616.666 244.424 616.666C244.424 616.666 233.754 490.183 235.518 476.254C237.282 462.321 275.126 470.589 275.126 470.589Z" fill="#EFA797"/>
<path d="M236.157 507.654C236.157 507.654 232.517 423.65 233.971 391.005L290.939 395.733C290.939 395.733 290.906 417.903 287.723 441.832C284.539 465.766 278.205 491.459 276.192 509.995C276.192 509.995 252.058 530.364 236.157 507.654Z" fill="#EFA797"/>
<path d="M262.864 608.595C282.402 509.139 276.465 473.932 276.465 473.932C276.465 473.932 236.419 466.32 234.655 480.253C233.161 492.049 241.444 580.516 243.755 608.595H262.864Z" fill="#0088C8"/>
<path d="M235.191 501.601C235.191 501.601 232.518 423.65 233.972 391.004L290.94 395.732C290.94 395.732 295.524 424.92 292.338 448.854C289.157 472.783 278.206 491.458 276.193 509.995C276.193 509.995 251.091 524.311 235.191 501.601Z" fill="#0088C8"/>
<path d="M300.987 465.308C300.987 465.308 293.275 508.323 314.006 611.357C316.682 624.663 331.691 611.385 331.691 611.385C331.691 611.385 342.358 484.902 340.595 470.973C338.829 457.044 300.987 465.308 300.987 465.308Z" fill="#EFA797"/>
<path d="M339.956 501.827C339.956 501.827 343.596 417.827 342.14 385.177L285.178 389.91C285.178 389.91 285.21 412.076 288.391 436.009C291.576 459.938 297.911 485.635 299.924 504.172C299.924 504.172 324.055 524.542 339.956 501.827Z" fill="#EFA797"/>
<path d="M312.656 605.432C293.118 505.981 299.648 468.65 299.648 468.65C299.648 468.65 339.692 461.036 341.461 474.969C342.952 486.765 334.508 577.237 332.195 605.317L312.656 605.432Z" fill="#0088C8"/>
<path d="M340.923 495.774C340.923 495.774 343.596 417.828 342.139 385.177L285.177 389.908C285.99 459.387 287.88 459.313 289.233 468.777C290.786 479.65 300.87 512.896 299.923 504.171C299.923 504.171 325.025 518.489 340.923 495.774Z" fill="#0088C8"/>
<path d="M314.007 611.357C314.007 611.357 311.11 621.242 312.56 631.002C314.007 640.757 330.833 637.433 333.664 634.192C334.975 632.687 336.766 624.307 331.801 610.046C331.801 610.046 323.843 614.399 314.007 611.357Z" fill="#6C3F2A"/>
<path d="M330.399 364.67C337.537 308.469 351.235 241.35 339.785 233.044C327.181 223.903 308.494 219.794 289.623 219.452C271.493 219.129 249.256 221.142 231.179 227.379C220.154 231.188 229.005 304.78 232.024 364.67H330.399Z" fill="#EFA797"/>
<path d="M276.562 165.111C286.738 158.454 305.607 169.202 305.607 169.202L306.018 223.615C306.018 223.615 269.817 230.928 270.205 223.052C271.082 205.227 269.538 169.7 276.562 165.111Z" fill="#EFA797"/>
<path d="M290.805 206.968C297.107 210.241 302.338 215.592 305.925 221.682C305.952 221.733 305.976 221.788 306.003 221.834L305.606 169.202C305.606 169.202 286.737 158.454 276.561 165.112C273.098 167.374 270.726 187.278 270.606 205.994C277.148 205.287 284.422 203.663 290.805 206.968Z" fill="#E09A8B"/>
<path d="M361.701 56.3486C356.212 43.0156 338.012 33.1676 321.899 28.1856C311.375 24.9306 300.078 23.7306 288.87 24.1226C277.662 23.7306 266.363 24.9306 255.836 28.1856C239.726 33.1676 221.219 47.2346 215.725 60.5686C206.969 81.8336 209.146 88.6436 210.032 111.096C211.264 142.246 218.831 174.245 258.763 194.518C266.948 198.669 277.964 198.221 287.226 197.916C287.775 197.898 288.32 197.861 288.87 197.828C289.417 197.861 289.964 197.898 290.513 197.916C299.774 198.22 310.839 198.765 318.973 194.518C350.832 177.87 366.884 148.692 368.115 117.542C369.005 95.0886 370.459 77.6136 361.701 56.3486Z" fill="#A98657"/>
<path d="M157.448 336.788C153.976 336.627 156.151 332.333 149.022 326.774C143.449 322.434 154.659 315.717 156.083 311.769C184.765 267.724 226.769 219.589 241.123 221.944C264.618 225.794 243.233 243.897 243.233 243.897C243.233 243.897 204.517 303.523 182.903 330.071C178.916 334.965 169.586 350.436 158.859 352.569C158.854 352.573 150.527 342.656 157.448 336.788Z" fill="#EFA797"/>
<path d="M240.338 220.412C228.016 218.39 190.261 247.712 164.885 288.687C168.929 299.869 187.087 313.473 199.712 315.897C221.561 289.096 250.825 258.165 250.825 258.165C250.825 258.165 263.834 224.262 240.338 220.412Z" fill="white"/>
<path d="M343.585 416.499C346.448 389.071 355.857 303.968 354.225 292.025C351.559 272.482 354.292 241.743 339.043 227.325C335.654 224.121 307.514 219.287 307.718 221.018C307.792 221.641 307.863 222.066 307.93 222.357C307.782 222.602 307.584 223.077 307.321 223.931C303.42 236.613 288.909 238.543 278.974 234.744C272.487 232.265 267.829 227.962 269.528 219.753C263.549 221.217 257.845 220.053 251.871 220.362C246.035 220.667 239.812 221.332 234.223 223.091C221.898 226.969 226.074 247.182 223.018 256.706C216.259 277.791 228.45 377.704 230.742 413.909C230.742 413.909 251.024 422.976 281.989 422.713C312.952 422.445 343.585 416.499 343.585 416.499Z" fill="white"/>
<path d="M393.155 339.553C396.341 339.401 397.269 339.867 403.511 334.396C408.386 330.125 412.664 328.551 411.129 324.646C383.479 274.132 347.13 235.098 334.06 237.37C312.67 241.096 326.17 262.795 326.17 262.795C326.17 262.795 350.782 297.739 372.767 323.552C379.131 331.031 385.325 339.772 391.678 346.785C391.683 346.789 396.646 342.439 393.155 339.553Z" fill="#EFA797"/>
<path d="M331.433 224.66C343.866 223.52 379.45 255.436 401.863 298.1C397.038 308.973 377.967 321.253 365.199 322.782C345.3 294.504 322.491 263.682 322.491 263.682C322.491 263.682 307.721 226.839 331.433 224.66Z" fill="white"/>
<path d="M321.428 219.719C321.428 219.719 319.383 208.612 305.943 208.321C305.943 208.321 305.246 222.572 287.729 222.162C270.213 221.746 270.531 207.698 270.531 207.698C257.087 207.993 255.042 219.097 255.042 219.097C249.278 231.678 265.522 247.541 289.109 246.438C312.698 245.333 327.486 232.928 321.428 219.719Z" fill="#E6E7E8"/>
<path d="M198.228 347.422H173.662V471.666H198.228V347.422Z" fill="#57301C"/>
<path d="M398.513 346.312H373.949V470.561H398.513V346.312Z" fill="#57301C"/>
<path d="M407.183 465.621H163.311V506.448H407.183V465.621Z" fill="#6C3F2A"/>
<path d="M420.018 266.853H144.696V378.866H420.018V266.853Z" fill="#6C3F2A"/>
<path d="M194.207 504.242H172.138V660.942H194.207V504.242Z" fill="#57301C"/>
<path d="M397.251 505.345H375.182V662.04H397.251V505.345Z" fill="#57301C"/>
<path d="M358.871 57.7797C363.585 54.8477 367.401 51.2198 365.986 46.8328C363.837 40.1708 351.867 28.2828 346.171 24.2378C329.04 12.0778 313.904 30.3547 315.487 47.5897C317.177 65.9737 328.992 66.0898 342.934 64.9078C352.77 63.6148 355.02 60.1757 358.871 57.7797Z" fill="#A98657"/>
<path d="M344.023 46.5467C344.131 44.3677 345.117 41.8427 345.484 39.9267C346.546 34.3957 347.495 28.7027 343.691 23.8417C339.545 18.5367 331.867 18.7587 326.304 15.7067C321.424 13.0327 322.846 9.22869 318.998 5.81269C308.668 -3.36131 295.27 8.98468 284.43 7.73268C276.445 6.81368 270.095 1.7407 262.258 0.442698C246.15 -2.2253 238.043 7.84371 224.289 12.5387C212.444 16.5827 197.458 7.97267 186.969 16.4127C183.282 19.3817 180.501 26.2187 180.796 30.6277C181.509 41.2327 187.43 38.2967 192.458 44.0307C198.402 50.8127 197.643 47.3827 199.725 56.7967C201.004 62.5587 197.668 70.2687 200.016 75.7297C205.395 88.2377 222.856 90.2317 234.622 90.2357C243.934 90.2357 243.288 88.3427 250.539 91.6527C258.452 95.2677 262.247 103.929 272.083 103.514C275.968 103.348 279.191 101.404 283.073 101.076C288.465 100.623 293.262 101.427 298.242 98.5917C301.575 96.6937 303.554 93.7027 306.243 91.2047C309.274 88.3787 310.1 88.2817 314.472 88.2957C318.673 88.3097 324.758 89.2197 328.179 86.3657C330.843 84.1497 331.18 79.7127 333.017 76.8917C337.186 70.4927 349.615 62.6717 347.556 53.9827C346.993 51.6007 344.666 50.5757 344.13 48.0967C344.023 47.6137 343.995 47.0917 344.023 46.5467Z" fill="#A98657"/>
<path d="M521.254 219.702C521.254 219.702 521.13 228.922 510.414 232.172L438.622 237.92L396.891 188.764L466.99 177.411L521.254 219.702Z" fill="#517EAA"/>
<path d="M516.323 218.857C516.323 218.857 517.154 226.558 509.024 230.136L440.141 235.431L401.078 188.995C401.078 188.995 402.332 188.016 402.897 186.968C403.987 184.951 404.056 183.353 404.056 183.353L465.063 179.433L516.323 218.857Z" fill="white"/>
<path d="M402.068 188.076C401.565 188.616 401.078 188.995 401.078 188.995L440.141 235.431L440.903 235.353C425.09 216.35 418.788 206.419 402.068 188.076Z" fill="#E2E2E8"/>
<path d="M465.063 179.433L404.056 183.353C404.056 183.353 404.003 184.595 403.241 186.276C419.449 204.319 426.729 213.053 447.598 231.955L509.025 230.136C517.155 226.558 516.324 218.857 516.324 218.857L465.063 179.433Z" fill="#E2E2E8"/>
<path d="M484.585 215.657C476.416 216.691 468.812 218.007 461.494 219.332C461.485 219.591 461.217 219.817 460.594 219.877C458.486 220.071 456.448 220.33 454.458 220.62C450.561 221.331 446.72 222.024 442.9 222.647C442.616 222.694 442.353 222.684 442.127 222.633C441.633 222.711 441.137 222.785 440.643 222.859C440.22 222.919 439.849 222.855 439.56 222.725C446.051 233.242 440.142 235.43 440.142 235.43L509.025 230.135C517.155 226.557 516.324 218.856 516.324 218.856L509.616 213.408C500.961 214.166 492.455 214.66 484.585 215.657Z" fill="#D4D6DE"/>
<path d="M513.706 216.728L509.615 213.408C500.961 214.165 492.455 214.659 484.585 215.656C476.416 216.69 468.812 218.006 461.494 219.331C461.485 219.59 461.217 219.816 460.594 219.876C458.486 220.07 456.448 220.329 454.458 220.619C450.561 221.33 446.72 222.023 442.9 222.646C442.616 222.693 442.353 222.683 442.127 222.632C441.633 222.71 441.137 222.784 440.643 222.858C440.22 222.918 439.849 222.854 439.56 222.724C442.175 226.962 442.741 230.074 442.485 232.267C464.645 228.243 488.175 222.952 513.706 216.728Z" fill="#BBC0D1"/>
<path d="M402.477 181.793L441.475 227.329L521.254 219.702L463.535 172.43L402.477 181.793Z" fill="#508BB7"/>
<path d="M415.374 184.978L446.831 220.86L501.556 214.881L459.543 179.12L415.374 184.978Z" fill="#7F9FC3"/>
</svg>
