<svg width="639" height="664" viewBox="0 0 639 664" fill="none" xmlns="http://www.w3.org/2000/svg">
<path d="M66.963 292.643H46.337V490.659H66.963V292.643Z" fill="#6C3F2A"/>
<path d="M13.084 223.93L90.873 330.524L89.9191 422.915L13.084 288.363V223.93Z" fill="#824E35"/>
<path d="M591.135 391.978H570.509V589.989H591.135V391.978Z" fill="#8A533A"/>
<path d="M451.589 292.643H430.963V490.659H451.589V292.643Z" fill="#6C3F2A"/>
<path d="M160.047 391.978H139.421V589.989H160.047V391.978Z" fill="#8A533A"/>
<path d="M630.326 342.477H89.9191V422.916H630.326V342.477Z" fill="#A16245"/>
<path d="M75.48 338.349H638.577L486.067 208.395L0 206.94L75.48 338.349Z" fill="#8A533A"/>
<path d="M638.866 338.285H75.5131V346.988H638.866V338.285Z" fill="#73442D"/>
<path d="M75.605 338.704V346.609L75.5131 346.987L0 215.662V206.94L75.605 338.704Z" fill="#5F3621"/>
<path d="M286.197 475.109H264.244V630.964H286.197V475.109Z" fill="#46230F"/>
<path d="M414.068 471.813H392.117V627.673H414.068V471.813Z" fill="#46230F"/>
<path d="M470.054 285.796C464.657 289.388 467.879 283.917 457.556 283.876C448.906 283.839 442.958 283.936 442.958 283.936C443.81 262.334 441.799 231.941 433.549 218.991C424.306 204.48 447.711 212.943 447.711 212.943C460.123 231.063 473.62 263.118 470.054 285.796Z" fill="#EFA797"/>
<path d="M438.825 228.519C438.825 228.519 420.369 230.619 418.548 212.236C418.548 212.236 422.62 210.491 428.509 216.086C432.708 220.075 436.074 223.575 437.727 226.054C438.389 227.051 438.777 227.887 438.825 228.519Z" fill="#EFA797"/>
<path d="M450.46 218.03C449.836 213.708 448.105 209.392 445.637 205.694C442.426 200.888 437.569 194.207 429.55 194.595C426.78 194.729 424.093 195.251 421.533 196.308C418.802 197.435 416.041 199.332 416.445 201.641C417.085 205.288 419.797 208.206 422.255 211.059C424.637 213.825 425.619 217.31 427.922 220.187C430.311 223.17 438.026 225.39 439.314 224.988C440.608 224.581 450.46 218.03 450.46 218.03Z" fill="#EFA797"/>
<path d="M165.051 267.873C170.451 271.46 165.845 261.516 176.169 261.479C184.816 261.442 190.768 261.534 190.768 261.544C189.914 239.937 191.927 209.544 200.177 196.59C209.42 182.079 186.017 190.547 186.017 190.547C173.602 208.667 155.527 253.196 165.051 267.873Z" fill="#EFA797"/>
<path d="M194.897 206.123C194.897 206.123 213.355 208.224 215.177 189.844C215.177 189.844 211.104 188.094 205.216 193.69C201.019 197.679 197.651 201.179 195.998 203.658C195.333 204.655 194.948 205.491 194.897 206.123Z" fill="#EFA797"/>
<path d="M183.265 195.633C183.886 191.312 185.617 186.995 188.09 183.297C191.299 178.491 196.155 171.81 204.173 172.198C206.948 172.332 209.632 172.854 212.192 173.911C214.923 175.038 217.684 176.935 217.28 179.244C216.64 182.891 213.93 185.804 211.47 188.662C209.088 191.428 208.107 194.913 205.803 197.79C203.414 200.773 195.701 202.993 194.411 202.587C193.118 202.185 183.265 195.633 183.265 195.633Z" fill="#EFA797"/>
<path d="M319.402 656.486C319.813 649.413 325.602 616.043 309.247 618.951C303.358 619.999 300.251 625.059 299.919 630.752C299.522 637.488 300.477 642.128 306.226 646.408C310.506 649.598 316.688 653.86 319.949 648.255" fill="#885239"/>
<path d="M322.329 512.016C322.329 512.016 327.135 517.556 316.812 628.494C315.397 643.693 299.208 633.48 299.208 633.48C299.208 633.48 283.409 534.49 284.088 518.678C284.766 502.861 322.329 512.016 322.329 512.016Z" fill="#EFA797"/>
<path d="M285.796 539.574C290.556 578.572 299.208 633.48 299.208 633.48C299.208 633.48 315.15 643.67 316.812 628.494C319.116 607.428 323.035 561.823 322.915 537.787C310.653 541.513 299.069 541.781 285.796 539.574Z" fill="white"/>
<path d="M322.541 554.934C322.723 552.391 322.756 549.722 322.906 547.293C312.082 552.446 298.79 552.575 286.945 549.763C287.402 553.591 287.538 554.744 288.028 557.261C299.12 559.403 312.223 559.246 322.541 554.934Z" fill="#061340"/>
<path d="M322.943 544.269C323.008 543.11 323.086 538.027 323.142 536.896C310.882 540.622 298.984 540.931 285.711 538.72C286.092 542.939 286.267 543.854 286.503 546.407C298.658 549.888 310.161 548.9 322.943 544.269Z" fill="#061340"/>
<path d="M298.889 632.201C298.889 632.201 296.008 643.037 297.449 653.743C298.889 664.44 315.625 660.793 318.442 657.238C319.744 655.59 321.526 646.402 316.589 630.76C316.589 630.76 308.672 635.535 298.889 632.201Z" fill="#6C3F2A"/>
<path d="M388.548 652.917C388.959 645.844 394.753 612.478 378.396 615.387C372.507 616.435 369.4 621.495 369.066 627.183C368.673 633.919 369.624 638.559 375.372 642.839C379.654 646.029 385.836 650.291 389.098 644.686" fill="#885239"/>
<path d="M391.477 508.452C391.477 508.452 396.286 513.988 385.96 624.925C384.545 640.124 368.354 629.911 368.354 629.911C368.354 629.911 352.56 530.926 353.239 515.109C353.913 499.297 391.477 508.452 391.477 508.452Z" fill="#EFA797"/>
<path d="M354.944 536.005C359.707 575.008 368.354 629.911 368.354 629.911C368.354 629.911 384.3 640.1 385.96 624.925C388.264 603.859 392.183 558.253 392.066 534.218C379.804 537.944 368.218 538.212 354.944 536.005Z" fill="white"/>
<path d="M391.69 551.37C391.873 548.827 391.905 546.153 392.053 543.729C381.231 548.877 367.939 549.006 356.095 546.194C356.55 550.022 356.688 551.18 357.178 553.696C368.271 555.835 381.369 555.682 391.69 551.37Z" fill="#061340"/>
<path d="M392.092 540.7C392.154 539.541 392.235 534.458 392.292 533.327C380.03 537.053 368.132 537.363 354.859 535.156C355.24 539.371 355.415 540.29 355.653 542.838C367.809 546.324 379.309 545.331 392.092 540.7Z" fill="#061340"/>
<path d="M285.842 525.155C285.842 525.155 279.339 464.181 280.828 430.754L333.005 439.766C333.005 439.766 325.667 497.901 326.83 527.551C326.83 527.551 302.121 548.411 285.842 525.155Z" fill="#EFA797"/>
<path d="M392.906 514.717C392.906 514.717 391.771 438.124 387.897 404.887L337.232 415.515C337.232 415.515 353.303 497.469 354.261 527.127C354.261 527.127 378.331 539.075 392.906 514.717Z" fill="#EFA797"/>
<path d="M384.342 368.114C391.443 312.213 405.067 245.45 393.677 237.19C381.142 228.095 362.555 224.009 343.783 223.672C325.749 223.349 303.633 225.348 285.652 231.558C274.685 235.344 283.489 308.544 286.49 368.114H384.342Z" fill="#EFA797"/>
<path d="M330.792 169.618C340.917 163.002 359.684 173.69 359.684 173.69L360.09 227.814C360.09 227.814 324.083 235.09 324.471 227.255C325.344 209.521 323.806 174.184 330.792 169.618Z" fill="#EFA797"/>
<path d="M344.958 211.257C351.228 214.507 356.431 219.83 360.002 225.888C360.029 225.939 360.048 225.994 360.078 226.04L359.683 173.689C359.683 173.689 340.916 163.001 330.791 169.617C327.349 171.87 324.987 191.667 324.867 210.282C331.373 209.581 338.61 207.965 344.958 211.257Z" fill="#E09A8B"/>
<path d="M175.701 256.793C173.434 254.184 178.016 252.804 177.121 243.856C176.424 236.866 188.949 240.32 192.772 238.635C244.162 229.037 307.639 226.22 315.802 238.164C329.163 257.721 301.453 254.752 301.453 254.752C301.453 254.752 231.958 267.831 198.013 270.5C191.753 270.989 174.213 274.9 165.312 268.644C165.305 268.639 166.728 255.842 175.701 256.793Z" fill="#EFA797"/>
<path d="M316.364 236.548C309.358 226.29 262.338 219.253 215.426 229.12C210.154 239.711 212.831 262.116 219.752 272.869C254.042 270.191 296.394 270.015 296.394 270.015C296.394 270.015 329.725 256.1 316.364 236.548Z" fill="white"/>
<path d="M395.757 378.368C398.606 351.087 409.661 307.731 408.04 295.851C405.39 276.414 408.109 245.837 392.938 231.502C389.568 228.312 361.58 223.506 361.783 225.228C361.852 225.847 361.924 226.271 361.991 226.558C361.843 226.802 361.647 227.273 361.386 228.128C357.503 240.741 343.071 242.662 333.189 238.881C326.739 236.416 322.104 232.136 323.796 223.969C317.845 225.428 312.175 224.265 306.233 224.578C300.425 224.878 294.236 225.538 288.677 227.288C276.417 231.148 280.573 251.249 277.534 260.728C270.808 281.697 281.92 341.906 284.201 377.917C284.201 377.917 308.554 386.463 339.356 386.199C370.159 385.935 395.757 378.368 395.757 378.368Z" fill="white"/>
<path d="M446.764 343.128C449.931 342.98 450.852 343.442 457.062 338.003C461.915 333.751 466.166 332.19 464.641 328.303C437.138 278.058 400.981 239.23 387.985 241.493C366.711 245.196 380.137 266.785 380.137 266.785C380.137 266.785 404.615 301.54 426.481 327.215C432.815 334.653 438.974 343.346 445.297 350.322C445.298 350.325 450.233 345.999 446.764 343.128Z" fill="#EFA797"/>
<path d="M385.369 228.852C397.735 227.712 433.13 259.462 455.423 301.9C450.626 312.713 431.653 324.929 418.954 326.448C399.162 298.318 376.474 267.662 376.474 267.662C376.474 267.662 361.786 231.017 385.369 228.852Z" fill="white"/>
<path d="M375.422 223.935C375.422 223.935 373.386 212.887 360.016 212.596C360.016 212.596 359.323 226.775 341.9 226.363C324.476 225.952 324.795 211.977 324.795 211.977C311.425 212.272 309.389 223.316 309.389 223.316C303.657 235.828 319.814 251.608 343.274 250.509C366.733 249.415 381.442 237.074 375.422 223.935Z" fill="#E6E7E8"/>
<path d="M368.038 628.633C368.038 628.633 365.157 639.473 366.598 650.175C368.038 660.876 384.777 657.225 387.588 653.67C388.89 652.027 390.677 642.834 385.737 627.192C385.737 627.192 377.821 631.971 368.038 628.633Z" fill="#6C3F2A"/>
<path d="M336.685 53.5551C340.441 51.3711 344.176 49.2941 347.913 47.3231C348.502 46.7781 349.121 46.2651 349.813 45.8311L336.685 53.5551Z" fill="#420025"/>
<path d="M336.685 53.5551C340.441 51.3711 344.176 49.2941 347.913 47.3231C348.502 46.7781 349.121 46.2651 349.813 45.8311L336.685 53.5551Z" fill="#561337"/>
<path d="M285.918 376.632C257.942 410.769 236.331 495.308 233.385 506.148C233.348 502.556 237.393 533.11 341.451 538.258C437.435 533.77 455.588 490.432 455.436 493.401C455.029 493.623 417.153 419.675 394.736 377.076C358.714 385.039 321.863 384.882 285.918 376.632Z" fill="#288FC9"/>
<path d="M285.918 376.632C257.942 410.769 236.331 495.308 233.385 506.148C233.348 502.556 237.393 533.11 341.451 538.258C437.435 533.77 455.588 490.432 455.436 493.401C455.029 493.623 417.153 419.675 394.736 377.076C358.714 385.039 321.863 384.882 285.918 376.632Z" fill="#288FC9"/>
<path d="M455.349 493.285C455.381 493.331 455.427 493.405 455.437 493.4C455.442 493.281 455.404 493.262 455.349 493.285Z" fill="#2B6E91"/>
<path d="M233.385 506.148C233.403 506.074 233.436 505.959 233.459 505.876C233.4 505.834 233.381 505.917 233.385 506.148Z" fill="#2B6E91"/>
<path d="M432.47 514.329C449.218 503.705 454.67 493.576 455.349 493.285C455.146 493.003 454.477 491.794 453.396 489.776C382.975 511.623 308.183 511.849 237.67 490.464C235.555 497.953 234.117 503.438 233.459 505.875C233.607 505.972 234.054 506.905 235.195 508.382C299.494 528.378 367.449 530.391 432.47 514.329Z" fill="#2B6E91"/>
<path d="M445.391 474.518C442.881 469.698 440.007 464.158 436.893 458.151C374.799 474.305 309.879 473.94 247.91 457.075C245.911 463.077 244.073 468.862 242.437 474.227C308.873 493.41 378.917 493.507 445.391 474.518Z" fill="#2B6E91"/>
<path d="M428.793 442.514C425.97 437.066 423.054 431.438 420.114 425.769C367.283 436.909 312.807 436.258 260.166 423.848C257.841 429.494 255.63 435.224 253.552 440.912C311.112 455.608 371.057 456.152 428.793 442.514Z" fill="#2B6E91"/>
<path d="M411.812 409.772C408.765 403.908 405.766 398.152 402.888 392.634C360.861 399.425 318.044 398.83 276.148 390.898C273.066 396.106 270.098 401.808 267.254 407.796C314.923 418.049 363.965 418.715 411.812 409.772Z" fill="#2B6E91"/>
<path d="M262.855 417.491C257.322 447.731 247.811 478.35 238.485 511.933C242.089 515.271 248.238 519.569 258.636 523.761C269.836 470.501 280.875 426.129 282.676 380.879C275.533 390.732 268.857 403.654 262.855 417.491Z" fill="#2B6E91"/>
<path d="M306.082 380.303C305.143 427.371 298.88 474.14 292.051 532.926C298.782 534.159 306.262 535.262 314.623 536.176C317.943 476.208 320.904 429.065 321.405 382.038C316.29 381.623 311.184 381.041 306.082 380.303Z" fill="#2B6E91"/>
<path d="M344.785 382.828C345.136 429.956 347.121 477.33 349.351 537.778C357.523 537.187 365.074 536.305 372.075 535.197C366.299 475.968 361.041 429.052 360.142 382.117C355.025 382.509 349.907 382.754 344.785 382.828Z" fill="#2B6E91"/>
<path d="M394.737 377.075C390.981 377.906 387.211 378.594 383.442 379.249C384.896 425.727 395.231 471.346 405.838 526.946C414.088 524.07 421.027 520.884 426.868 517.652C414.567 469.499 401.969 427.915 399.142 385.467C397.62 382.565 396.148 379.757 394.737 377.075Z" fill="#2B6E91"/>
<path d="M455.349 493.285C455.381 493.331 455.427 493.405 455.437 493.4C455.442 493.281 455.404 493.262 455.349 493.285Z" fill="#2B6E91"/>
<path d="M455.349 493.285C455.072 492.897 453.89 490.723 452.002 487.15C452.877 489.476 453.752 491.813 454.622 494.153C455.007 493.632 455.241 493.336 455.349 493.285Z" fill="#2B6E91"/>
<path d="M309.75 209.396C313.995 207.655 318.614 206.7 324.674 208.039C335.923 210.527 344.074 221.7 355.713 222.9C365.755 223.934 370.669 214.119 379.455 212.281C387.371 210.628 399.014 217.24 406.909 219.382C413.641 221.889 415.725 222.318 413.163 220.661C423.055 227.055 438.362 208.976 448.226 208.458C455.488 208.075 481.061 218.555 473.425 201.764C469.434 192.992 465.671 189.779 466.74 179.613C467.975 167.849 461.172 161.441 455.927 151.099C449.694 138.814 444.274 126.076 438.457 113.633C432.658 101.228 435.431 87.2392 430.864 74.3582C422.337 50.3042 407.163 29.1871 382.747 19.3761C346.489 4.80512 323.095 8.26817 291.636 29.3532C277.67 38.7112 267.121 52.9261 260.288 68.1441C254.044 82.0451 255.837 97.7141 248.349 110.896C245.856 115.278 242.61 119.428 240.435 124.003C237.277 130.647 232.942 139.261 231.167 146.459C228.921 155.563 233.381 163.444 232.73 172.701C232.065 182.073 224.207 182.452 221.862 189.677C219.992 195.43 229.427 211.607 235.048 212.895C240.242 214.082 247.763 209.488 253.755 210.351C265.113 211.99 278.215 219.183 289.877 217.494C297.984 216.317 303.453 211.986 309.75 209.396Z" fill="#E9635B"/>
<path d="M286.366 141.298C305.773 151.967 319.946 154.544 339.046 142.088C349.397 135.338 358.368 127.453 371.274 127.803C381.789 128.094 391.337 136.953 398.59 143.579C406.002 150.347 417.694 163.505 429.574 158.893C438.948 155.246 443.563 149.161 447.677 140.536C448.18 139.492 448.729 138.43 449.316 137.373C446.513 131.33 443.785 125.254 441.019 119.21C438.212 120.429 435.303 122.737 432.323 126.477C428.591 131.163 424.627 137.673 419.089 140.512C409.451 145.457 399.82 142.825 392.634 134.708C387.761 129.205 383.853 122.446 378.467 117.478C367.565 107.418 352.292 107.312 339.707 114.699C329.97 120.415 319.603 135.276 306.826 134.699C300.693 134.422 296.039 133 290.93 129.482C283.949 124.671 279.67 115.359 269.739 116.037C258.414 116.813 254.235 126.208 248.441 134.394C243.295 141.666 237.762 144.186 231.964 143.651C231.661 144.607 231.393 145.544 231.167 146.458C230.103 150.775 230.558 154.819 231.248 158.863C247.845 148.487 266.502 130.379 286.366 141.298Z" fill="#EB7760"/>
<path d="M439.975 89.197C439.975 41.427 397.098 2.70093 344.208 2.70093C299.619 2.70093 262.151 30.226 251.488 67.489C251.027 69.1 250.627 70.73 250.267 72.374C250.172 72.817 250.094 73.2599 250.007 73.7029C249.767 74.9079 249.547 76.113 249.363 77.332C249.28 77.877 249.204 78.4259 249.132 78.9709C248.977 80.1619 248.853 81.362 248.751 82.572C248.709 83.076 248.654 83.5789 248.622 84.0859C248.516 85.7799 248.442 87.479 248.442 89.197C248.442 93.869 248.862 98.454 249.656 102.923C249.919 104.409 250.226 105.887 250.573 107.35C269.648 91.9299 302.429 99.6539 348.424 99.6539C394.417 99.6539 412.783 96.5649 435.95 109.954C436.271 108.597 436.679 107.059 437.109 105.43C437.344 106.072 437.64 106.699 437.846 107.35C439.23 101.496 439.975 95.43 439.975 89.197Z" fill="#2B759B"/>
<path d="M361.932 84.474C323.238 82.761 284.918 80.66 248.676 94.432C248.867 97.295 249.161 100.138 249.655 102.922C249.918 104.408 250.225 105.886 250.572 107.349C269.647 91.929 302.428 99.6531 348.423 99.6531C394.416 99.6531 412.782 96.564 435.949 109.953C436.27 108.596 436.678 107.058 437.108 105.429C437.343 106.071 437.639 106.698 437.845 107.349C438.03 106.569 438.173 105.77 438.337 104.98C419.015 87.613 386.877 85.578 361.932 84.474Z" fill="#25698C"/>
<path d="M388.359 7.97803C388.359 12.387 384.209 15.961 379.091 15.961C373.973 15.961 369.822 12.387 369.822 7.97803C369.822 3.57303 373.972 0 379.091 0C384.208 0 388.359 3.57303 388.359 7.97803Z" fill="#2B759B"/>
<path d="M252.877 350.953H228.445V474.532H252.877V350.953Z" fill="#57301C"/>
<path d="M452.092 349.854H427.657V473.438H452.092V349.854Z" fill="#57301C"/>
<path d="M460.714 468.521H218.148V509.131H460.714V468.521Z" fill="#6C3F2A"/>
<path d="M473.484 270.819H199.632V382.232H473.484V270.819Z" fill="#6C3F2A"/>
<path d="M248.879 506.937H226.926V662.797H248.879V506.937Z" fill="#57301C"/>
<path d="M450.838 508.036H428.885V663.891H450.838V508.036Z" fill="#57301C"/>
</svg>
