<svg width="343" height="774" viewBox="0 0 343 774" fill="none" xmlns="http://www.w3.org/2000/svg">
<path d="M56.4825 221.127C65.1855 201.76 71.8956 186.538 94.6136 182.576C120.172 178.125 153.186 190.49 169.138 211.731C182.407 229.4 190.665 256.085 194.37 277.562C200.201 311.367 201.175 345.55 208.257 378.999C214.801 409.904 218.132 439.817 229.741 469.032C237.68 489.019 243.718 508.252 242.786 529.813C232.74 531.272 219.867 529.384 209.451 529C194.222 528.446 178.44 528.829 163.352 526.396C140.852 522.763 118.37 523.451 95.6795 522.329C82.0545 521.655 70.9706 521.322 58.1816 525.92C45.2726 530.56 35.5965 540.519 20.3185 538.464C12.9545 492.286 4.33555 446.926 5.81255 399.908C7.18355 356.39 17.0615 314.081 32.5575 273.499C39.4075 255.555 48.6245 238.611 56.4825 221.127Z" fill="#EC916C"/>
<path d="M90.3335 179.377C97.0045 180.397 102.353 186.773 109.121 188.643C122.514 192.346 132.189 185.578 144.643 180.938C151.605 178.343 158.695 176.478 165.943 178.768C173.05 181.012 177.078 183.994 185.144 183.625C193.713 183.233 200.306 181.492 206.114 175.038C211.945 168.561 208.883 164.318 211.261 157.272C213.509 150.619 221.783 147.835 225.476 142.59C229.793 136.464 227.544 128.684 223.842 122.839C219.161 115.438 214.614 109.316 215.385 99.6947C215.703 95.6827 218.671 92.2017 217.584 87.5437C216.614 83.3787 211.539 77.0267 208.771 73.5227C202.28 65.3097 201.482 60.5127 199.627 50.2537C196.446 32.6957 169.911 21.0617 155.943 13.2547C137.162 2.76067 117.221 -2.77932 95.7114 1.39868C68.8924 6.61568 49.4295 30.8677 35.2975 52.4197C25.9365 56.9857 19.3995 65.2267 18.1785 76.8377C16.7725 90.2407 24.7784 97.8817 28.1074 109.59C32.9924 126.75 9.24346 139.373 16.1895 157.651C19.7445 167.005 30.9245 167.365 38.3115 170.735C42.8865 172.822 40.8435 170.199 42.6145 175.181C43.9265 178.884 41.7794 182.988 44.9144 186.492C57.4724 200.532 76.1605 177.683 89.9375 179.326C90.0705 179.34 90.2045 179.358 90.3335 179.377Z" fill="#E9635B"/>
<path d="M31.1455 287.595C37.5305 285.961 35.4844 290.799 43.6594 297.23C50.5114 302.618 54.6774 308.615 54.6804 308.606C44.5304 343.764 28.8194 374.285 27.7994 397.305C26.6614 423.094 10.0244 401.469 10.0244 401.469C15.3694 354.757 17.9995 335.398 31.1455 287.595Z" fill="#EAA797"/>
<path d="M155.647 306.049C161.829 257.36 173.699 199.206 163.778 192.009C152.859 184.086 136.668 180.527 120.315 180.231C104.608 179.95 91.9815 181.566 76.3195 186.972C66.7655 190.269 79.8466 264.946 82.4626 316.834L155.647 306.049Z" fill="#EAA797"/>
<path d="M108.308 133.149C117.74 127.387 135.221 136.695 135.221 136.695L135.597 183.842C135.597 183.842 102.061 190.177 102.42 183.353C103.23 167.908 101.802 137.128 108.308 133.149Z" fill="#EAA797"/>
<path d="M121.505 169.418C127.343 172.253 132.189 176.888 135.513 182.165C135.541 182.207 135.56 182.253 135.588 182.299L135.22 136.694C135.22 136.694 117.74 127.386 108.307 133.148C105.103 135.11 102.903 152.354 102.792 168.573C108.852 167.959 115.593 166.551 121.505 169.418Z" fill="#E09A8B"/>
<path d="M170.945 38.3646C166.676 26.9336 157.023 15.2387 144.497 10.9687C136.316 8.17565 127.535 7.14166 118.823 7.47866C110.111 7.14166 101.327 8.17565 93.1465 10.9687C80.6215 15.2397 70.9675 26.9336 66.6995 38.3646C59.8915 56.6016 64.4045 61.8276 64.9545 81.0886C65.4975 99.9166 65.6475 124.829 80.7075 140.84C96.5805 157.719 109.807 160.083 123.789 160.438C139.565 160.438 156.718 147.169 161.492 141.796C178.703 122.437 175.379 103.979 176.335 77.2617C177.028 58.0087 177.753 56.6016 170.945 38.3646Z" fill="#EAA797"/>
<path d="M50.4394 101.846C53.4684 110.909 68.4965 121.638 70.8855 113.259C72.3495 108.13 71.4925 102.493 68.4635 93.4297C65.4345 84.3667 68.1795 77.6727 59.9175 80.4337C51.6535 83.1987 47.4104 92.7827 50.4394 101.846Z" fill="#EAA797"/>
<path d="M62.3925 88.8217C62.5385 88.7757 62.6875 88.7707 62.8355 88.7297C62.8885 88.7987 62.9215 88.8777 62.9945 88.9377C66.2565 91.7677 65.5215 98.7258 66.1155 102.59C66.3675 104.238 66.7135 105.84 67.1265 107.419C63.0245 107.992 58.8205 105.235 57.3045 100.697C55.6145 95.6407 57.8935 90.3267 62.3925 88.8217Z" fill="#F3777A"/>
<path d="M59.0735 114.783C58.8265 117.373 60.7215 119.668 63.3075 119.917C65.8935 120.162 68.1875 118.264 68.4375 115.679C68.6815 113.093 66.7865 110.799 64.2015 110.549C61.6165 110.304 59.3175 112.197 59.0735 114.783Z" fill="white"/>
<path d="M38.7935 306.954C32.4685 304.881 30.8595 293.325 30.8645 289.369C38.4825 235.518 64.0275 187.549 77.5155 185.061C99.5905 180.984 86.5485 201.354 86.5485 201.354C86.5485 201.354 72.2225 256.511 61.5095 286.959C59.5355 292.573 58.8705 296.202 54.8085 309.106C54.8065 309.105 46.8935 309.613 38.7935 306.954Z" fill="#EAA797"/>
<path d="M287.686 233.006C292.631 231.044 297.409 228.029 301.368 224.497C306.506 219.913 313.603 213.158 312.021 205.623C311.474 203.015 310.486 200.618 308.898 198.504C307.202 196.251 304.604 194.21 301.973 195.328C297.82 197.092 294.806 200.6 291.83 203.85C288.944 207.003 285.024 209.044 282.001 212.151C278.866 215.373 277.37 223.448 278.021 224.552C278.672 225.66 287.686 233.006 287.686 233.006Z" fill="#EAA797"/>
<path d="M211.112 289.793C214.115 289.682 214.985 290.125 220.92 285.028C225.555 281.044 226.441 276.45 225.029 272.752C199.419 224.875 170.089 188.924 157.746 190.951C137.545 194.266 148.656 216.814 148.656 216.814C148.656 216.814 171.54 249.982 192.033 274.52C197.966 281.63 201.627 284.866 207.555 291.538C207.559 291.543 211.11 289.788 211.112 289.793Z" fill="#EAA797"/>
<path d="M280.833 219.534C285.593 221.852 289.323 226.298 293.458 229.908C281.965 245.208 267.089 257.992 251.711 269.234C240.086 277.734 228.227 285.633 215.487 292.346C214.286 292.974 213.003 293.615 211.655 293.51C210.708 293.436 209.832 292.997 209.019 292.508C206.974 291.28 205.076 289.65 203.64 287.734C201.992 285.541 202.052 282.757 202.072 280.07C202.093 277.291 196.883 271.732 199.863 270.31C226.687 257.503 263.501 235.711 280.833 219.534Z" fill="#EAA797"/>
<path d="M112.18 111.985C112.261 116.625 106.94 120.48 100.291 120.595C93.6485 120.706 88.1954 117.036 88.1164 112.395C88.0384 107.755 93.3585 103.9 100.005 103.785C106.649 103.675 112.101 107.34 112.18 111.985Z" fill="#E9928D"/>
<path d="M171.007 110.974C171.085 115.614 165.763 119.469 159.119 119.584C152.473 119.699 147.023 116.029 146.94 111.389C146.862 106.745 152.185 102.89 158.829 102.779C165.474 102.663 170.929 106.334 171.007 110.974Z" fill="#E9928D"/>
<path d="M115.241 80.2947C115.241 80.2947 114.78 80.1606 114.237 80.0866C113.699 79.9476 112.707 79.9206 111.571 79.8236C110.417 79.9156 109.036 79.7867 107.578 80.1097C106.844 80.2247 106.086 80.3457 105.314 80.4647C104.559 80.6867 103.79 80.9086 103.021 81.1296C102.259 81.3796 101.456 81.5316 100.731 81.8586C100.002 82.1866 99.2864 82.5047 98.5914 82.8147C97.8914 83.1287 97.2174 83.4287 96.5754 83.7147C95.9634 84.0517 95.4074 84.4257 94.8814 84.7397C92.7764 86.0367 91.3724 86.9047 91.3724 86.9047L91.2944 86.9507C90.9644 87.1537 90.5284 87.0527 90.3244 86.7197C90.1324 86.4097 90.2114 86.0087 90.4904 85.7917C90.4904 85.7917 91.8384 84.7437 93.8564 83.1787C94.3684 82.7907 94.9045 82.3436 95.5095 81.9186C96.1465 81.5446 96.8204 81.1527 97.5174 80.7457C98.2194 80.3387 98.9444 79.9197 99.6804 79.4897C100.417 79.0557 101.255 78.7967 102.051 78.4367C102.864 78.1087 103.674 77.7766 104.47 77.4486C105.311 77.2226 106.137 76.9967 106.935 76.7797C108.519 76.2627 110.112 76.2067 111.441 75.9717C112.813 75.9297 113.916 75.8426 114.83 75.9486C115.744 76.0036 116.1 76.0787 116.1 76.0787L116.264 76.1107C117.429 76.3457 118.184 77.4817 117.949 78.6497C117.716 79.8137 116.578 80.5707 115.412 80.3347C115.354 80.3217 115.296 80.3087 115.241 80.2947Z" fill="#6C2112"/>
<path d="M142.162 75.1416C142.162 75.1416 142.52 75.0996 143.438 75.1236C144.357 75.0966 145.449 75.2806 146.815 75.4376C148.117 75.7846 149.701 75.9736 151.234 76.6246C152.015 76.9106 152.818 77.2066 153.63 77.5066C154.399 77.8986 155.175 78.2966 155.956 78.6976C156.72 79.1226 157.531 79.4546 158.23 79.9446C158.927 80.4336 159.612 80.9186 160.279 81.3846C160.937 81.8466 161.574 82.2986 162.179 82.7236C162.742 83.1996 163.241 83.6886 163.716 84.1186C165.595 85.8546 166.846 87.0086 166.846 87.0086C167.132 87.2766 167.151 87.7196 166.886 88.0106C166.639 88.2736 166.236 88.3106 165.95 88.0986L165.872 88.0426C165.872 88.0426 164.548 87.0596 162.563 85.5866C162.064 85.2266 161.545 84.8116 160.963 84.4186C160.349 84.0816 159.7 83.7216 159.031 83.3526C158.366 82.9876 157.68 82.6046 156.981 82.2166C156.288 81.8286 155.5 81.6116 154.761 81.2936C154.018 81.0076 153.27 80.7206 152.536 80.4396C151.779 80.2506 151.031 80.0656 150.308 79.8906C148.884 79.4476 147.498 79.4566 146.355 79.2626C145.215 79.2626 144.224 79.2076 143.675 79.2996C143.126 79.3276 142.657 79.4196 142.657 79.4196C141.491 79.6506 140.356 78.8886 140.125 77.7206C139.894 76.5566 140.656 75.4216 141.824 75.1906C141.879 75.1816 141.935 75.1726 141.99 75.1626L142.162 75.1416Z" fill="#6C2112"/>
<path d="M112.028 125.171C112.028 125.171 127.564 128.915 146.786 124.571C146.786 124.571 145.9 139.682 129.475 139.964C113.048 140.244 112.028 125.171 112.028 125.171Z" fill="#6F1C20"/>
<path d="M123.196 139.15C124.996 139.681 127.049 140.004 129.475 139.963C134.117 139.88 137.485 138.601 139.976 136.823C134.802 133.61 128.265 134.081 123.196 139.15Z" fill="#BC4047"/>
<path d="M144.959 130.909C146.6 127.562 146.786 124.57 146.786 124.57C127.518 126.241 112.027 125.17 112.027 125.17C112.027 125.17 112.235 128.152 113.906 131.439C113.906 131.439 119.226 132.686 129.729 132.505C140.233 132.326 144.959 130.909 144.959 130.909Z" fill="white"/>
<path d="M115.726 95.8766C115.786 99.4596 113.958 102.401 111.636 102.442C109.313 102.479 107.384 99.6026 107.323 96.0196C107.261 92.4326 109.094 89.4916 111.414 89.4546C113.733 89.4126 115.666 92.2896 115.726 95.8766Z" fill="#460000"/>
<path d="M142.337 95.4196C142.397 99.0026 144.332 101.879 146.651 101.842C148.971 101.8 150.801 98.8586 150.741 95.2716C150.679 91.6886 148.749 88.8126 146.427 88.8546C144.108 88.8906 142.277 91.8316 142.337 95.4196Z" fill="#460000"/>
<path d="M127.037 94.9156C127.561 96.6936 127.568 98.5957 127.882 100.244C127.944 100.66 128 101.08 128.122 101.472C128.233 101.869 128.304 102.271 128.45 102.649C128.653 103.429 129.07 104.131 129.365 104.874L129.248 104.68C130.098 105.959 130.603 107.099 131.063 108.369C131.276 109.001 131.507 109.629 131.646 110.308C131.724 110.64 131.769 111.009 131.829 111.356C131.868 111.757 131.901 112.104 131.866 112.64C131.838 112.811 131.833 112.912 131.769 113.143C131.7 113.383 131.628 113.646 131.529 113.849C131.335 114.251 131.088 114.615 130.8 114.915C130.227 115.529 129.517 115.866 128.852 116.102C127.494 116.55 126.152 116.578 124.859 116.351C126.066 115.857 127.237 115.363 128.151 114.693C128.608 114.37 128.963 113.973 129.184 113.608C129.295 113.423 129.359 113.229 129.401 113.044C129.42 112.957 129.401 112.905 129.415 112.841L129.427 112.412L129.299 111.812C129.211 111.544 129.153 111.295 129.052 111.023C128.847 110.483 128.672 109.924 128.44 109.37C127.974 108.299 127.477 107.108 126.972 106.258L126.875 106.096L126.857 106.063C126.481 105.144 126.183 104.198 126.021 103.219C125.897 102.743 125.893 102.245 125.87 101.76C125.833 101.271 125.86 100.79 125.887 100.315C126.039 98.3877 126.57 96.7216 127.037 94.9156Z" fill="#D99E93"/>
<path d="M25.1064 391.202C25.1064 391.202 41.2005 398.58 32.9595 419.457C32.9595 419.457 28.7304 419.226 26.9094 410.08C25.6124 403.556 24.7274 398.002 24.6954 394.452C24.6874 393.021 24.8114 391.917 25.1064 391.202Z" fill="#EAA797"/>
<path d="M215.643 563.816C215.643 563.816 203.986 631.429 242.075 742.081C247.407 757.566 260.149 739.006 260.149 739.006C260.149 739.006 256.116 584.615 252.711 567.98C249.307 551.341 215.643 563.816 215.643 563.816Z" fill="#EAA797"/>
<path d="M254.208 567.823C254.208 567.823 213.525 458.095 168.807 380.767L121.609 400.499C121.609 400.499 136.193 441.977 157.333 490.043C176.899 534.517 206.33 578.012 215.984 594.804C215.984 594.804 244.831 596.794 254.208 567.823Z" fill="#EAA797"/>
<path d="M218.392 695.521C213.09 695.308 207.859 697.178 202.882 696.453C188.111 694.306 197.559 668.738 199.038 659.394C202.141 639.781 199.601 620.405 199.272 600.834C199.038 587.094 195.878 567.279 213.349 565.16C222.043 564.103 253.354 553.143 256.078 566.462C261.076 590.89 262.158 616.73 264.079 641.527C264.744 650.128 265.339 658.739 265.819 667.354C266.216 674.418 269.069 686.449 266.881 693.167C263.322 704.091 230.512 697.262 220.404 695.711C219.731 695.608 219.062 695.548 218.392 695.521Z" fill="#008ACD"/>
<path d="M255.997 571.646C255.997 571.646 226.431 456.179 176.234 372.047L107.162 402.643C107.162 402.643 114.452 419.513 135.594 467.574C155.163 512.053 188.325 587.741 197.979 604.533C197.979 604.533 246.622 600.616 255.997 571.646Z" fill="#008ACD"/>
<path d="M161.335 341.211L75.2924 342.647C41.3444 378.737 58.0764 500.155 58.0764 500.155C66.3544 511.983 100.048 454.92 127.509 443.151C177.703 421.636 190.39 486.983 199.573 473.862C199.573 473.862 196.47 405.029 161.335 341.211Z" fill="#008ACD"/>
<path d="M10.1154 396.488C8.33643 401.497 7.46143 407.084 7.51143 412.384C7.57643 419.272 7.98742 429.06 14.6994 432.832C17.0224 434.139 19.4785 434.974 22.1145 435.168C24.9265 435.376 28.1714 434.762 29.0654 432.052C30.4714 427.763 29.8154 423.183 29.3264 418.801C28.8554 414.554 29.9034 410.26 29.5524 405.939C29.1924 401.456 24.1004 395.016 22.8394 394.776C21.5794 394.54 10.1154 396.488 10.1154 396.488Z" fill="#EAA797"/>
<path d="M73.3574 257.983C72.9784 254.423 72.1754 250.739 72.0974 247.166C72.0674 245.734 72.2844 244.239 72.5794 242.738C76.1784 236.057 77.7755 228.384 80.0775 220.767C84.0035 207.761 86.6264 200.397 83.9694 187.447C84.0594 187.401 82.4394 184.146 82.5334 184.1C87.3284 181.921 95.0614 180.517 100.22 180.758C105.806 197.318 108.556 226.557 124.599 233.579C128.427 235.25 132.478 194.424 135.652 184.114C135.878 183.371 136.049 182.96 136.179 182.748C136.119 182.498 136.059 182.129 135.994 181.589C135.763 179.618 151.024 181.506 152.494 185.85C164.205 220.509 178.782 243.454 165.638 269.987C159.054 283.27 161.813 305.121 161.695 342.287C161.695 342.287 139.765 346.003 112.936 346.23C86.1085 346.461 76.0064 342.647 76.0064 342.647C75.5954 342.49 77.4654 324.72 77.5324 322.896C77.7634 316.654 77.7604 310.407 77.5534 304.166C77.0374 288.699 74.9964 273.352 73.3574 257.983Z" fill="white"/>
<path d="M73.3574 257.983C72.9784 254.423 72.1754 250.739 72.0974 247.166C72.0674 245.734 72.2844 244.239 72.5794 242.738C76.1784 236.057 77.7755 228.384 80.0775 220.767C84.0035 207.761 86.6264 200.397 83.9694 187.447C84.0594 187.401 82.4394 184.15 82.5334 184.1C86.2154 182.221 86.0885 185.859 86.7185 188.791C87.4735 192.305 88.0345 195.864 88.3755 199.442C89.0495 206.492 88.8534 213.583 88.0964 220.619C87.0464 230.374 82.6254 239.257 82.5174 249.216C82.3604 263.694 94.0734 279.84 109.341 279.48C107.658 279.739 109.138 279.711 113.78 279.388C122.388 279.143 131.024 278.996 139.618 279.471C142.623 279.637 145.632 279.702 148.681 279.711C150.712 279.716 154.267 278.709 155.904 279.873C150.362 283.649 143.519 285.071 137.079 286.886C132.61 288.146 128.224 289.568 123.704 290.704C119.397 291.789 115.126 292.38 111.162 294.532C104.924 297.911 100.134 302.468 96.3955 308.438C89.3085 319.768 94.5954 338.508 107.965 342.496C113.2 344.061 118.611 345.142 124.091 345.936C120.499 346.088 116.776 346.199 112.937 346.231C86.1095 346.462 76.0074 342.648 76.0074 342.648C75.5964 342.491 77.4664 324.721 77.5334 322.897C77.7644 316.655 77.7614 310.408 77.5544 304.167C77.0374 288.699 74.9964 273.352 73.3574 257.983Z" fill="#D3D5D6"/>
<path d="M78.4106 570.483C78.4106 570.483 56.4295 625.253 74.4635 740.886C76.9865 757.063 91.4095 750.771 91.4095 750.771C91.4095 750.771 114.595 598.074 114.17 581.097C113.743 564.121 78.4106 570.483 78.4106 570.483Z" fill="#EAA797"/>
<path d="M116.324 583.788C116.324 583.788 141.923 445.832 114.937 378.163L63.7954 376.857C63.7954 376.857 60.1295 420.675 59.7555 473.183C59.4115 521.77 68.4675 573.502 70.4065 592.768C70.4065 592.768 95.9155 606.387 116.324 583.788Z" fill="#EAA797"/>
<path d="M70.4674 692.593C63.8844 692.145 55.0845 694.246 49.5165 692.584C42.4855 690.483 43.8145 683.207 43.8145 676.776C43.8145 653.544 51.0185 628.364 56.1645 605.769C59.1305 592.731 59.3405 577.505 74.7565 575.69C86.5475 574.3 109.452 570.496 117.578 582.015C123.335 590.182 119.583 610.981 119.444 620.713C119.218 636.641 118.357 652.597 116.076 668.377C114.991 675.884 115.36 687.412 112.106 694.199C105.116 708.765 82.6325 694.259 71.9585 692.745C71.4755 692.681 70.9774 692.63 70.4674 692.593Z" fill="#008ACD"/>
<path d="M119.821 612.417C119.821 612.417 140.135 446.442 123.561 373.002L60.1954 374.678C60.1954 374.678 50.7304 418.903 50.3564 471.41C50.0104 519.997 58.3664 588.128 60.3054 607.399C60.3054 607.399 99.4104 635.017 119.821 612.417Z" fill="#008ACD"/>
<path d="M186.774 74.3247C186.31 63.9417 183.485 52.7497 181.303 46.3417C175.377 28.9047 163.29 9.88276 144.548 4.55976C131.427 0.829762 119.275 0.589755 105.803 2.07176C85.9135 4.26476 70.8445 21.5688 62.7005 38.6188C59.4365 45.4608 55.6545 53.8588 56.5465 61.5558C57.4655 69.4508 59.3215 77.5068 60.5375 85.4157C61.1885 89.6497 61.6685 97.5538 65.3295 100.171C68.7345 95.1748 66.4635 88.1298 69.5285 82.9868C71.9035 78.9978 80.5424 74.4408 84.6444 73.9977C89.9034 67.9037 95.6415 55.6228 103.772 52.9818C107.493 51.7678 111.058 53.1018 114.89 51.4728C125.583 46.9258 124.535 37.3727 126.562 27.8847C128.395 31.9197 127.924 36.7217 129.734 40.6687C130.981 43.3837 133.328 45.7337 134.958 48.2907C138.824 54.3568 142.278 59.4078 149.812 60.9038C151.989 61.3378 155.079 60.7977 157.101 61.4627C162.882 63.3737 162.48 68.2037 164.855 72.4927C167.235 76.7867 172.212 78.5957 175.882 81.5137C180.73 85.3737 181.085 88.6788 182.001 94.4688C186.926 89.6528 187.06 80.7557 186.774 74.3247Z" fill="#E9635B"/>
<path d="M125.042 37.0026C125.563 34.0706 125.902 30.9776 126.562 27.8846C127.848 30.7146 128.009 33.9146 128.609 36.9386C129.862 36.9296 131.118 36.9156 132.365 36.9336C148.755 37.1646 165.928 39.5326 181.164 45.9646C178.597 38.5176 174.918 30.8076 170.073 24.0116C162.864 22.5576 155.628 21.5976 148.751 20.9096C116.54 17.6966 85.4964 22.8766 60.5284 43.5966C59.0674 47.2116 57.8535 50.9376 56.9435 54.7276C77.2835 43.1146 101.69 37.6626 125.042 37.0026Z" fill="#EB8974"/>
<path d="M241.719 757.709L241.897 763.983C241.897 763.983 283.756 770.617 299.351 764.163C299.351 764.163 305.626 762.28 302.128 755.645C299.476 750.608 241.719 757.709 241.719 757.709Z" fill="white"/>
<path d="M241.719 741.13V759.773C241.719 759.773 279.185 766.763 300.159 760.129C300.159 760.129 310.912 755.47 287.969 749.016C265.021 742.562 260.149 739.007 260.149 739.007C260.149 739.007 249.976 748.392 241.719 741.13Z" fill="#F1B454"/>
<path d="M246.825 750.004C244.369 749.293 242.019 744.736 242.197 741.486C248.113 744.893 252.698 743.416 254.849 742.428C254.729 746.573 250.974 751.19 246.825 750.004Z" fill="#ED954F"/>
<path d="M292.075 750.267C309.531 756.061 300.159 760.129 300.159 760.129C295.833 761.495 290.806 762.28 285.552 762.668C286.079 757.737 287.897 753.36 292.075 750.267Z" fill="#EE9B50"/>
<path d="M70.0795 753.785L68.8214 759.935C68.8214 759.935 108.052 775.96 124.71 773.245C124.71 773.245 131.251 772.848 129.365 765.59C127.931 760.077 70.0795 753.785 70.0795 753.785Z" fill="white"/>
<path d="M73.8724 737.64L69.6085 755.794C69.6085 755.794 104.484 771.164 126.418 769.501C126.418 769.501 137.955 767.423 117.092 755.895C96.2314 744.367 92.2994 739.791 92.2994 739.791C92.2994 739.791 80.2504 746.601 73.8724 737.64Z" fill="#F1B454"/>
<path d="M76.8155 747.446C74.5855 746.199 73.3395 741.223 74.2555 738.101C79.2345 742.769 84.0386 742.376 86.3586 741.91C85.2946 745.918 80.5825 749.556 76.8155 747.446Z" fill="#ED954F"/>
<path d="M120.804 758.051C136.474 767.686 126.418 769.501 126.418 769.501C121.898 769.843 116.823 769.455 111.62 768.633C113.261 763.951 116.03 760.11 120.804 758.051Z" fill="#EE9B50"/>
<path d="M83.2515 235.481C85.5345 227.028 99.5025 189.123 102.85 176.695C75.1265 177.171 54.9135 198.902 44.9945 216.825C31.6195 240.994 21.1225 267.924 13.4475 294.42C8.64851 310.99 4.33146 327.744 1.82946 344.831C1.41146 347.675 -0.321514 386.078 0.0524862 386.008C4.51449 385.163 9.90445 383.542 14.5124 382.153C19.6094 380.611 23.7464 378.552 29.2214 378.995C33.5984 379.35 37.7024 380.292 42.1274 380.334C51.4234 380.422 50.1605 376.267 51.2245 367.846C55.2085 336.263 68.1414 306.761 74.1794 275.574C76.7834 262.124 79.6775 248.722 83.2515 235.481Z" fill="#EEA572"/>
<path d="M247.915 317.342C240.773 319.881 233.118 322.485 225.422 325.943C197.772 338.376 214.824 391.188 216.08 413.848C216.757 426.059 223.132 442.648 220.399 453.368C219.111 442.472 213.162 429.485 208.229 419.157C193.552 388.441 180.902 356.668 171.737 323.847C162.892 292.171 168.846 258.001 162.161 225.605C160.363 216.884 158.224 208.232 155.662 199.705C153.797 193.505 149.858 187.438 148.354 181.464C152.084 179.903 156.816 183.86 160.214 185.416C165.597 187.886 170.934 190.859 175.51 194.834C187.795 205.504 197.741 218.846 211.188 228.177C217.009 232.217 225.766 237.743 232.984 236.829C241.971 235.698 252.396 229.701 260.489 225.799C274.787 218.911 283.061 254.765 284.385 263.099C290.38 300.892 272.093 308.745 247.915 317.342Z" fill="#EEA572"/>
<path d="M320.1 123.227L319.075 125.824L341.707 134.764L342.732 132.167L320.1 123.227Z" fill="#D29421"/>
<path d="M319.378 125.091L253.221 292.836L275.86 301.765L342.017 134.02L319.378 125.091Z" fill="#FCBE1F"/>
<path d="M276.424 233.855L270.741 248.273L284.451 279.838L290.215 265.226C285.632 254.76 281.036 244.303 276.424 233.855Z" fill="#F7D819"/>
<path d="M292.8 192.336L289.089 201.75C293.692 212.23 298.274 222.724 302.833 233.223L306.51 223.902C301.941 213.38 297.368 202.858 292.8 192.336Z" fill="#F7D819"/>
<path d="M319.243 125.06L253.104 292.806L256.072 293.977L322.211 126.231L319.243 125.06Z" fill="#F7D819"/>
<path d="M258.216 288.362L257.556 290.034L266.461 293.549L267.121 291.878L258.216 288.362Z" fill="black"/>
<path d="M258.216 288.362L257.556 290.034L266.461 293.549L267.121 291.878L258.216 288.362Z" fill="black"/>
<path d="M259.684 284.655L259.023 286.331L264.034 288.305L264.694 286.629L259.684 284.655Z" fill="black"/>
<path d="M260.995 281.313L260.335 282.985L265.344 284.962L266.004 283.291L260.995 281.313Z" fill="black"/>
<path d="M262.333 277.9L261.673 279.576L266.683 281.549L267.343 279.873L262.333 277.9Z" fill="black"/>
<path d="M263.728 274.435L263.067 276.106L268.075 278.085L268.736 276.413L263.728 274.435Z" fill="black"/>
<path d="M265.405 270.409L264.746 272.083L273.654 275.591L274.313 273.917L265.405 270.409Z" fill="black"/>
<path d="M265.405 270.409L264.746 272.083L273.654 275.591L274.313 273.917L265.405 270.409Z" fill="black"/>
<path d="M266.793 266.844L266.133 268.515L271.142 270.493L271.802 268.822L266.793 266.844Z" fill="black"/>
<path d="M268.138 263.321L267.475 264.997L272.484 266.978L273.147 265.303L268.138 263.321Z" fill="black"/>
<path d="M269.539 259.922L268.88 261.596L273.89 263.569L274.549 261.895L269.539 259.922Z" fill="black"/>
<path d="M270.748 256.562L270.089 258.237L275.101 260.211L275.76 258.536L270.748 256.562Z" fill="black"/>
<path d="M272.364 252.536L271.703 254.209L280.607 257.728L281.268 256.055L272.364 252.536Z" fill="black"/>
<path d="M272.364 252.536L271.703 254.209L280.607 257.728L281.268 256.055L272.364 252.536Z" fill="black"/>
<path d="M273.749 248.957L273.09 250.63L278.099 252.603L278.759 250.929L273.749 248.957Z" fill="black"/>
<path d="M275.117 245.502L274.457 247.173L279.467 249.151L280.127 247.48L275.117 245.502Z" fill="black"/>
<path d="M276.512 241.978L275.851 243.654L280.863 245.629L281.523 243.952L276.512 241.978Z" fill="black"/>
<path d="M277.942 238.623L277.281 240.294L282.289 242.274L282.95 240.603L277.942 238.623Z" fill="black"/>
<path d="M279.397 234.647L278.737 236.319L287.643 239.835L288.303 238.163L279.397 234.647Z" fill="black"/>
<path d="M279.397 234.647L278.737 236.319L287.643 239.835L288.303 238.163L279.397 234.647Z" fill="black"/>
<path d="M280.942 231.014L280.281 232.685L285.29 234.665L285.95 232.994L280.942 231.014Z" fill="black"/>
<path d="M282.181 227.47L281.521 229.146L286.531 231.12L287.191 229.445L282.181 227.47Z" fill="black"/>
<path d="M283.56 224.108L282.9 225.78L287.91 227.758L288.57 226.087L283.56 224.108Z" fill="black"/>
<path d="M284.95 220.62L284.29 222.295L289.302 224.269L289.962 222.593L284.95 220.62Z" fill="black"/>
<path d="M286.472 216.749L285.812 218.425L294.719 221.936L295.379 220.26L286.472 216.749Z" fill="black"/>
<path d="M286.472 216.749L285.812 218.425L294.719 221.936L295.379 220.26L286.472 216.749Z" fill="black"/>
<path d="M287.977 213.103L287.319 214.78L292.333 216.748L292.991 215.071L287.977 213.103Z" fill="black"/>
<path d="M289.356 209.694L288.698 211.371L293.713 213.339L294.371 211.663L289.356 209.694Z" fill="black"/>
<path d="M290.71 206.244L290.049 207.915L295.059 209.895L295.72 208.224L290.71 206.244Z" fill="black"/>
<path d="M291.948 202.702L291.288 204.377L296.298 206.351L296.959 204.676L291.948 202.702Z" fill="black"/>
<path d="M293.495 198.815L292.835 200.486L301.742 204.002L302.402 202.331L293.495 198.815Z" fill="black"/>
<path d="M293.495 198.815L292.835 200.486L301.742 204.002L302.402 202.331L293.495 198.815Z" fill="black"/>
<path d="M294.936 195.169L294.276 196.84L299.285 198.82L299.945 197.149L294.936 195.169Z" fill="black"/>
<path d="M296.365 191.714L295.705 193.389L300.715 195.364L301.376 193.688L296.365 191.714Z" fill="black"/>
<path d="M297.708 188.319L297.047 189.992L302.055 191.97L302.716 190.296L297.708 188.319Z" fill="black"/>
<path d="M299.123 184.899L298.461 186.573L303.469 188.553L304.131 186.879L299.123 184.899Z" fill="black"/>
<path d="M300.7 180.909L300.038 182.582L308.941 186.101L309.602 184.428L300.7 180.909Z" fill="black"/>
<path d="M300.7 180.909L300.038 182.582L308.941 186.101L309.602 184.428L300.7 180.909Z" fill="black"/>
<path d="M302.035 177.258L301.375 178.929L306.384 180.907L307.044 179.236L302.035 177.258Z" fill="black"/>
<path d="M303.402 173.908L302.741 175.583L307.751 177.558L308.411 175.883L303.402 173.908Z" fill="black"/>
<path d="M304.783 170.343L304.125 172.014L309.136 173.987L309.794 172.316L304.783 170.343Z" fill="black"/>
<path d="M306.097 166.998L305.437 168.67L310.446 170.649L311.106 168.978L306.097 166.998Z" fill="black"/>
<path d="M307.777 162.933L307.118 164.607L316.027 168.113L316.686 166.439L307.777 162.933Z" fill="black"/>
<path d="M307.777 162.933L307.118 164.607L316.027 168.113L316.686 166.439L307.777 162.933Z" fill="black"/>
<path d="M309.185 159.424L308.522 161.099L313.532 163.081L314.195 161.405L309.185 159.424Z" fill="black"/>
<path d="M310.434 155.911L309.772 157.582L314.78 159.565L315.442 157.895L310.434 155.911Z" fill="black"/>
<path d="M311.84 152.429L311.18 154.105L316.191 156.078L316.85 154.402L311.84 152.429Z" fill="black"/>
<path d="M313.193 149.037L312.533 150.71L317.543 152.684L318.202 151.01L313.193 149.037Z" fill="black"/>
<path d="M314.831 145.021L314.17 146.697L323.078 150.208L323.738 148.532L314.831 145.021Z" fill="black"/>
<path d="M314.831 145.021L314.17 146.697L323.078 150.208L323.738 148.532L314.831 145.021Z" fill="black"/>
<path d="M316.159 141.446L315.498 143.119L320.506 145.097L321.166 143.424L316.159 141.446Z" fill="black"/>
<path d="M317.52 137.975L316.86 139.651L321.87 141.625L322.531 139.949L317.52 137.975Z" fill="black"/>
<path d="M318.964 134.537L318.304 136.211L323.313 138.185L323.972 136.511L318.964 134.537Z" fill="black"/>
<path d="M320.284 131.198L319.624 132.869L324.633 134.847L325.293 133.176L320.284 131.198Z" fill="black"/>
<path d="M277.961 223.066C277.961 223.066 271.453 208.32 291.248 197.757C291.248 197.757 294.095 200.379 289.281 208.154C285.851 213.699 282.771 218.292 280.421 220.92C279.475 221.976 278.647 222.715 277.961 223.066Z" fill="#EAA797"/>
</svg>
