<svg width="2714" height="1659" viewBox="0 0 2714 1659" fill="none" xmlns="http://www.w3.org/2000/svg">
<g clip-path="url(#clip0_3_1821)">
<path d="M2713.66 0H0V1658.27H2713.66V0Z" fill="#96D1F2"/>
<path d="M0 861.575V1648.74L2713.66 1649.16V861.575H0Z" fill="#DBBB9C"/>
<path d="M2713.66 1639.95H0V1658.06H2713.66V1639.95Z" fill="#DBBB9C"/>
<path d="M105.183 861.575L103.334 862.245H353.396L354.873 861.575H105.183Z" fill="#DEBFA4"/>
<path d="M100.245 861.575L91.6071 864.696H352.556L359.43 861.575H100.245Z" fill="#AD967E"/>
<path d="M605.038 861.575L603.933 862.245H853.994L854.729 861.575H605.038Z" fill="#DEBFA4"/>
<path d="M600.807 861.575L595.632 864.696H855.305L858.722 861.575H600.807Z" fill="#AD967E"/>
<path d="M1104.9 861.575L1104.53 862.245H1354.59L1354.59 861.575H1104.9Z" fill="#DEBFA4"/>
<path d="M1101.06 861.575L1099.35 864.696H1358.41L1358.37 861.575H1101.06Z" fill="#AD967E"/>
<path d="M1604.75 861.575L1605.13 862.245H1855.19L1854.44 861.575H1604.75Z" fill="#DEBFA4"/>
<path d="M1600.92 861.575L1602.66 864.696H1861.94L1858.44 861.575H1600.92Z" fill="#AD967E"/>
<path d="M2104.61 861.575L2105.73 862.245H2355.79L2354.3 861.575H2104.61Z" fill="#DEBFA4"/>
<path d="M2100.38 861.575L2105.58 864.696H2365.82L2358.86 861.575H2100.38Z" fill="#AD967E"/>
<path d="M2713.66 861.575H2604.47L2606.33 862.245L2713.66 862.36V861.575Z" fill="#DEBFA4"/>
<path d="M2713.66 861.575H2599.53L2608.18 864.696L2713.66 864.807V861.575Z" fill="#AD967E"/>
<path d="M0 862.323V893.016H20.646L105.319 862.323H0Z" fill="#DEBFA4"/>
<path d="M0 861.575V864.775H93.609L22.754 890.403H0V895.647H18.518L112.316 861.575H0Z" fill="#AD967E"/>
<path d="M355.898 862.323L288.263 893.016H555.377L606.006 862.323H355.898Z" fill="#DEBFA4"/>
<path d="M352.999 861.575L277.731 895.647H555.44L611.472 861.575H352.999ZM555.315 890.403H298.732L355.074 864.775H597.719L555.315 890.403Z" fill="#AD967E"/>
<path d="M856.587 862.323L822.999 893.016H1090.11L1106.69 862.323H856.587Z" fill="#DEBFA4"/>
<path d="M853.417 861.575L815.972 895.647H1092.68L1110.93 861.575H853.417ZM1087.56 890.403H829.982L857.909 864.775H1101.52L1087.56 890.403Z" fill="#AD967E"/>
<path d="M1357.28 862.323L1357.73 893.016H1624.85L1607.38 862.323H1357.28Z" fill="#DEBFA4"/>
<path d="M1353.48 861.575L1353.83 895.647H1630.34L1610.79 861.575H1353.48ZM1361.11 864.775H1604.92L1619.39 890.403H1361.61L1361.11 864.775Z" fill="#AD967E"/>
<path d="M1857.96 862.323L1892.47 893.016H2159.58L2108.07 862.323H1857.96Z" fill="#DEBFA4"/>
<path d="M1853.13 861.575L1891.27 895.647H2168.41L2111.05 861.575H1853.13ZM1893.66 890.403L1864.72 864.775H2107.92L2150.81 890.403H1893.66Z" fill="#AD967E"/>
<path d="M2358.65 862.323L2427.2 893.016H2694.32L2608.76 862.323H2358.65Z" fill="#DEBFA4"/>
<path d="M2352.42 861.575L2428.33 895.647H2706.79L2611.61 861.575H2352.42ZM2426.08 890.403L2368.7 864.775H2610.62L2681.92 890.403H2426.08Z" fill="#AD967E"/>
<path d="M18.578 893.03L0 899.757V928.206H208.007L285.699 893.03H18.578Z" fill="#DEBFA4"/>
<path d="M20.698 890.417L0 897.891V901.626L16.45 895.661H275.152L209.353 925.38H0V931.049H206.65L296.184 890.417H20.698Z" fill="#AD967E"/>
<path d="M553.328 893.03L495.165 928.206H781.773L820.448 893.03H553.328Z" fill="#DEBFA4"/>
<path d="M782.96 931.049H485.876L553.275 890.416H827.45L782.96 931.049ZM504.387 925.38H780.591L813.407 895.661H553.381L504.387 925.38Z" fill="#AD967E"/>
<path d="M1088.08 893.03L1068.93 928.206H1355.54L1355.2 893.03H1088.08Z" fill="#DEBFA4"/>
<path d="M1359.66 931.049H1063.23L1085.54 890.416H1359.08L1359.66 931.049ZM1074.59 925.38H1351.44L1351.29 895.661H1090.64L1074.59 925.38Z" fill="#AD967E"/>
<path d="M1622.83 893.03L1642.69 928.206H1929.31L1889.95 893.03H1622.83Z" fill="#DEBFA4"/>
<path d="M1936.81 931.049H1640.15L1617.38 890.416H1891.15L1936.81 931.049ZM1645.22 925.38H1921.85L1888.74 895.661H1628.3L1645.22 925.38Z" fill="#AD967E"/>
<path d="M2157.58 893.03L2216.46 928.206H2503.07L2424.7 893.03H2157.58Z" fill="#DEBFA4"/>
<path d="M2514.34 931.049H2216.64L2148.82 890.416H2423.58L2514.34 931.049ZM2216.28 925.38H2491.88L2425.82 895.661H2166.39L2216.28 925.38Z" fill="#AD967E"/>
<path d="M2713.66 893.057L2692.32 893.03L2713.66 900.698V893.057Z" fill="#DEBFA4"/>
<path d="M2713.66 898.842L2704.79 895.661L2713.66 895.675V890.458L2679.94 890.417L2713.66 902.559V898.842Z" fill="#AD967E"/>
<path d="M207.7 928.307L117.734 969.037H426.967L494.366 928.307H207.7Z" fill="#DEBFA4"/>
<path d="M426.619 972.139H105.728L209.051 925.482H503.603L426.619 972.139ZM129.659 965.952H427.32L485.077 931.151H206.345L129.659 965.952Z" fill="#AD967E"/>
<path d="M781.579 928.307L736.792 969.037H1046.03L1068.25 928.307H781.579Z" fill="#DEBFA4"/>
<path d="M1048.67 972.139H728.869L780.4 925.482H1073.92L1048.67 972.139ZM744.663 965.952H1043.4L1062.55 931.151H782.771L744.663 965.952Z" fill="#AD967E"/>
<path d="M1355.46 928.307L1355.85 969.037H1665.09L1642.13 928.307H1355.46Z" fill="#DEBFA4"/>
<path d="M1671.17 972.139H1351.61L1351.37 925.482H1644.66L1671.17 972.139ZM1360.07 965.952H1659.04L1639.58 931.151H1359.59L1360.07 965.952Z" fill="#AD967E"/>
<path d="M1929.34 928.307L1974.91 969.037H2284.15L2216.01 928.307H1929.34Z" fill="#DEBFA4"/>
<path d="M2294.13 972.139H1973.87L1921.89 925.482H2215.83L2294.13 972.139ZM1975.94 965.952H2274.23L2216.19 931.151H1936.85L1975.94 965.952Z" fill="#AD967E"/>
<path d="M2713.66 928.307H2503.23L2593.98 969.037H2713.66V928.307Z" fill="#DEBFA4"/>
<path d="M2713.66 965.948H2592.22L2514.5 931.151H2713.66V925.482H2492.03L2595.74 972.139H2713.66V965.948Z" fill="#AD967E"/>
<path d="M0 969.207V1016.93H11.62L117.055 969.207H0Z" fill="#DEBFA4"/>
<path d="M0 966.124V972.314H105.04L13.758 1013.53H0V1020.35H9.46L128.99 966.124H0Z" fill="#AD967E"/>
<path d="M426.974 969.212L348.031 1016.93H683.804L736.306 969.212H426.974Z" fill="#DEBFA4"/>
<path d="M684.778 1020.35H337.338L427.325 966.124H744.181L684.778 1020.35ZM358.65 1013.53H682.844L728.38 972.314H426.623L358.65 1013.53Z" fill="#AD967E"/>
<path d="M1046.23 969.212L1020.22 1016.93H1355.99L1355.56 969.212H1046.23Z" fill="#DEBFA4"/>
<path d="M1360.51 1020.35H1013.8L1043.6 966.124H1359.78L1360.51 1020.35ZM1026.59 1013.53H1351.5L1351.31 972.314H1048.87L1026.59 1013.53Z" fill="#AD967E"/>
<path d="M1665.48 969.212L1692.4 1016.93H2028.18L1974.81 969.212H1665.48Z" fill="#DEBFA4"/>
<path d="M2036.74 1020.35H1689.78L1659.43 966.124H1975.85L2036.74 1020.35ZM1695.01 1013.53H2019.67L1973.77 972.314H1671.57L1695.01 1013.53Z" fill="#AD967E"/>
<path d="M2284.73 969.212L2364.59 1016.93H2700.36L2594.06 969.212H2284.73Z" fill="#DEBFA4"/>
<path d="M2713.4 1020.35H2365.29L2274.81 966.124H2592.31L2713.4 1020.35ZM2363.89 1013.53H2687.41L2595.83 972.314H2294.72L2363.89 1013.53Z" fill="#AD967E"/>
<path d="M12.443 1017.07L0 1022.71V1073.74H254.596L348.294 1017.07H12.443Z" fill="#DEBFA4"/>
<path d="M14.58 1013.67L0 1020.26V1025.16L10.286 1020.5H337.606L255.597 1069.94H0V1077.56H253.584L358.908 1013.67H14.58Z" fill="#AD967E"/>
<path d="M684.787 1017.07L622.543 1073.74H989.799L1020.64 1017.07H684.787Z" fill="#DEBFA4"/>
<path d="M992.525 1077.56H613.337L683.82 1013.67H1027.02L992.525 1077.56ZM631.68 1069.94H987.086L1014.23 1020.5H685.761L631.68 1069.94Z" fill="#AD967E"/>
<path d="M1357.13 1017.07L1357.75 1073.74H1725L1692.98 1017.07H1357.13Z" fill="#DEBFA4"/>
<path d="M1731.97 1077.56H1353.05L1352.63 1013.67H1695.58L1731.97 1077.56ZM1362.42 1069.94H1718.09L1690.36 1020.5H1361.66L1362.42 1069.94Z" fill="#AD967E"/>
<path d="M2029.48 1017.07L2092.95 1073.74H2460.21L2365.33 1017.07H2029.48Z" fill="#DEBFA4"/>
<path d="M2471.92 1077.56H2092.23L2020.96 1013.67H2364.63L2471.92 1077.56ZM2093.68 1069.94H2448.57L2366.03 1020.5H2038.05L2093.68 1069.94Z" fill="#AD967E"/>
<path d="M2713.66 1013.67H2688.86L2713.66 1024.82V1013.67Z" fill="#AD967E"/>
<path d="M253.764 1073.91L140.615 1142.3H545.86L621.112 1073.91H253.764Z" fill="#DEBFA4"/>
<path d="M546.421 1146.64H127.794L254.768 1070.11H630.253L546.421 1146.64ZM153.339 1138H545.299L611.899 1077.74H252.748L153.339 1138Z" fill="#AD967E"/>
<path d="M989.157 1073.91L951.876 1142.3H1357.12L1356.5 1073.91H989.157Z" fill="#DEBFA4"/>
<path d="M1362.21 1146.64H944.392L986.451 1070.11H1361.18L1362.21 1146.64ZM959.307 1138H1352.07L1351.79 1077.74H991.885L959.307 1138Z" fill="#AD967E"/>
<path d="M1724.55 1073.91L1763.14 1142.3H2168.38L2091.9 1073.91H1724.55Z" fill="#DEBFA4"/>
<path d="M2178.56 1146.64H1760.46L1717.63 1070.11H2092.62L2178.56 1146.64ZM1765.8 1138H2158.28L2091.17 1077.74H1731.52L1765.8 1138Z" fill="#AD967E"/>
<path d="M2713.66 1073.91H2459.95L2574.4 1142.3H2713.66V1073.91Z" fill="#DEBFA4"/>
<path d="M2713.66 1138H2572.82L2471.66 1077.74H2713.66V1070.11H2448.32L2575.99 1146.64H2713.66V1138Z" fill="#AD967E"/>
<path d="M0 1142.51V1226.69H4.991L143.844 1142.51H0Z" fill="#DEBFA4"/>
<path d="M0 1138.21V1146.84H131.044L7.156 1221.72H0V1231.7H2.812L156.552 1138.21H0Z" fill="#AD967E"/>
<path d="M549.976 1142.51L457.856 1226.69H909.863L955.338 1142.51H549.976Z" fill="#DEBFA4"/>
<path d="M912.665 1231.7H446.656L549.399 1138.21H962.744L912.665 1231.7ZM468.969 1221.72H907.088L947.868 1146.84H550.562L468.969 1221.72Z" fill="#AD967E"/>
<path d="M1361.47 1142.51L1362.73 1226.69H1814.73L1766.83 1142.51H1361.47Z" fill="#DEBFA4"/>
<path d="M1823.09 1231.7H1357.37L1356.39 1138.21H1769.47L1823.09 1231.7ZM1368.04 1221.72H1806.45L1764.17 1146.84H1366.59L1368.04 1221.72Z" fill="#AD967E"/>
<path d="M2713.66 1223.15L2578.32 1142.51H2172.96L2267.6 1226.69H2713.66V1223.15Z" fill="#DEBFA4"/>
<path d="M2713.66 1219.56L2576.72 1138.21H2162.83L2267.49 1231.7H2713.66L2713.66 1219.56ZM2183.16 1146.84H2579.93L2705.24 1221.73H2267.71L2183.16 1146.84Z" fill="#AD967E"/>
<path d="M1.501 1226.73L0 1227.64V1332.81H336.881L453.526 1226.73H1.501Z" fill="#DEBFA4"/>
<path d="M3.684 1221.76L0 1223.98V1231.73H442.297L337.156 1326.94H0V1338.73H336.6L464.666 1221.76H3.684Z" fill="#AD967E"/>
<path d="M906.409 1226.73L848.657 1332.81H1359.47L1358.43 1226.73H906.409Z" fill="#DEBFA4"/>
<path d="M1365.43 1338.73H839.446L903.657 1221.76H1363.77L1365.43 1338.73ZM857.787 1326.94H1353.56L1353.06 1231.73H909.193L857.787 1326.94Z" fill="#AD967E"/>
<path d="M1811.32 1226.73L1871.24 1332.81H2382.05L2263.35 1226.73H1811.32Z" fill="#DEBFA4"/>
<path d="M2394.91 1338.73H1868.59L1803.06 1221.76H2263.48L2394.91 1338.73ZM1873.87 1326.94H2369.31L2263.22 1231.73H1819.66L1873.87 1326.94Z" fill="#AD967E"/>
<path d="M0 1471.29V1638.43L183.893 1471.29H0Z" fill="#DEBFA4"/>
<path d="M0 1464.13V1478.52H169.055L0 1631.52V1645.41L198.589 1464.13H0Z" fill="#AD967E"/>
<path d="M1361.69 1648.5L1360.09 1471.29H772.551L675.96 1648.5H1361.69Z" fill="#DEBFA4"/>
<path d="M1369.09 1657.6H663.566L769.903 1464.13H1366.49L1369.09 1657.6ZM688.213 1639.5H1354.36L1353.62 1478.52H775.236L688.213 1639.5Z" fill="#AD967E"/>
<path d="M2713.66 1629.9L2536.29 1471.29H1948.75L2048.73 1648.5H2713.66V1629.9Z" fill="#DEBFA4"/>
<path d="M2713.66 1639.5H2051L1959.45 1478.52H2537.49L2713.66 1636.73V1623.13L2535.11 1464.13H1938.16L2046.43 1657.6H2713.66V1639.5Z" fill="#AD967E"/>
<path d="M336.378 1333.14L184.724 1471.04H772.129L847.369 1333.14H336.378Z" fill="#DEBFA4"/>
<path d="M774.802 1478.27H169.895L336.655 1327.27H856.508L774.802 1478.27ZM199.415 1463.89H769.474L838.14 1339.07H336.096L199.415 1463.89Z" fill="#AD967E"/>
<path d="M1359.33 1333.14L1360.65 1471.04H1948.05L1870.32 1333.14H1359.33Z" fill="#DEBFA4"/>
<path d="M1958.75 1478.27H1354.19L1353.42 1327.27H1872.95L1958.75 1478.27ZM1367.04 1463.89H1937.46L1867.67 1339.07H1365.3L1367.04 1463.89Z" fill="#AD967E"/>
<path d="M2713.66 1333.14H2382.28L2536.57 1471.04H2713.66V1333.14Z" fill="#DEBFA4"/>
<path d="M2713.66 1463.89H2535.39L2395.14 1339.07H2713.66V1327.27H2369.53L2537.77 1478.27H2713.66V1463.89Z" fill="#AD967E"/>
<path d="M2207.63 513.688L1857.31 511.818H860.241L568.185 513.688L0 593.402V1239.79L568.185 882.425L860.241 880.555H1857.31L2207.63 882.425L2713.66 1151.54V569.537L2207.63 513.688Z" fill="#0091BB"/>
<path d="M562.995 0V883.722L568.185 882.425L860.241 880.555H1857.31L2205.3 882.411V0H562.995Z" fill="#67C5F0"/>
<path d="M562.995 517.649V883.722L568.185 883.187L860.241 882.411H1857.31L2205.3 883.182V517.649H562.995Z" fill="#00799D"/>
</g>
<defs>
<clipPath id="clip0_3_1821">
<rect width="2714" height="1659" fill="white"/>
</clipPath>
</defs>
</svg>
